STARTFONT 2.1
COMMENT
COMMENT Converted from OpenType font "GenBasB.ttf" by "otf2bdf 3.0".
COMMENT
FONT -FreeType-Gentium Basic-Bold-R-Normal--48-480-72-72-P-238-ISO10646-1
SIZE 48 72 72
FONTBOUNDINGBOX 74 69 -24 -17
STARTPROPERTIES 19
FOUNDRY "FreeType"
FAMILY_NAME "Gentium Basic"
WEIGHT_NAME "Bold"
SLANT "R"
SETWIDTH_NAME "Normal"
ADD_STYLE_NAME ""
PIXEL_SIZE 48
POINT_SIZE 480
RESOLUTION_X 72
RESOLUTION_Y 72
SPACING "P"
AVERAGE_WIDTH 238
CHARSET_REGISTRY "ISO10646"
CHARSET_ENCODING "1"
FONT_ASCENT 41
FONT_DESCENT 13
COPYRIGHT "Copyright (c) SIL International, 2003-2008."
_OTF_FONTFILE "GenBasB.ttf"
_OTF_PSNAME "GentiumBasic-Bold"
ENDPROPERTIES
CHARS 704
STARTCHAR 0020
ENCODING 32
SWIDTH 250 0
DWIDTH 12 0
BBX 0 0 0 0
BITMAP
ENDCHAR
STARTCHAR 0021
ENCODING 33
SWIDTH 312 0
DWIDTH 15 0
BBX 8 36 3 -1
BITMAP
06
1F
7F
7E
7E
7E
7E
7E
7E
7E
3E
3E
3E
3E
3E
3E
3E
3C
3C
3C
3C
3C
3C
1C
1C
18
00
00
00
3E
7F
FF
FF
FF
FE
7C
ENDCHAR
STARTCHAR 0022
ENCODING 34
SWIDTH 479 0
DWIDTH 23 0
BBX 16 16 3 19
BITMAP
0E03
7E1F
FE3F
FE3F
7C3F
7C3F
7C3F
7C3F
7C1E
7C1E
7C1E
3C1E
3C1E
381E
381E
380E
ENDCHAR
STARTCHAR 0023
ENCODING 35
SWIDTH 500 0
DWIDTH 24 0
BBX 22 27 2 3
BITMAP
003830
007870
0070F0
0070E0
00F0E0
00E1E0
00E1C0
1FFFFC
1FFFFC
3FFFFC
03C380
03C380
038780
038700
078700
078700
FFFFF0
FFFFF0
FFFFE0
0E1E00
0E1C00
1E1C00
1C3C00
1C3C00
1C3800
3C3800
387000
ENDCHAR
STARTCHAR 0024
ENCODING 36
SWIDTH 500 0
DWIDTH 24 0
BBX 20 36 2 -4
BITMAP
003000
007000
007000
007000
03FF00
0FFFE0
3FFFF0
7C77F0
7873E0
F071E0
F070C0
F87000
FC7000
FF7000
7FF000
3FF800
1FFE00
07FF80
00FFC0
007FE0
0077E0
0071F0
0071F0
E070F0
E070F0
F070F0
F870E0
FC71E0
FF77C0
FFFFC0
3FFF00
07FC00
007000
007000
007000
006000
ENDCHAR
STARTCHAR 0025
ENCODING 37
SWIDTH 708 0
DWIDTH 34 0
BBX 31 30 2 0
BITMAP
00000010
07C000F0
1FE001E0
38F003C0
78780380
70780780
F03C0F00
F03C1E00
F03C1C00
F03C3C00
F03C7800
F03CF000
7039E000
7839E000
3873C000
1FE783E0
0F8F0C30
000F1838
001E381C
003C381C
0078781E
0078781E
00F0781E
01E0781E
03C0781E
03C0781C
07803C3C
0F001E38
1E000FF0
1C0007C0
ENDCHAR
STARTCHAR 0026
ENCODING 38
SWIDTH 687 0
DWIDTH 33 0
BBX 31 34 2 0
BITMAP
001F8000
007FE000
00E3F000
01E1F800
03C1F800
03C1F800
07C1F800
07C1F800
07C3F000
07C3F000
07E7E000
07EFC000
03FF8000
03FF0000
03FC0000
01F80000
07FC3FFC
0FFC7FFE
1FFE1FB8
3F7F0F80
3E7F0780
7E3F8780
FC1FC780
FC1FE780
FC0FF700
FC07FF00
FC03FE00
FC01FC00
FE00FF00
7F007F80
7F81FFF8
3FFFDFF8
0FFF0FF4
03FC0780
ENDCHAR
STARTCHAR 0027
ENCODING 39
SWIDTH 270 0
DWIDTH 13 0
BBX 7 16 3 19
BITMAP
0E
7E
FE
FE
7C
7C
7C
7C
7C
7C
7C
3C
3C
38
38
38
ENDCHAR
STARTCHAR 0028
ENCODING 40
SWIDTH 333 0
DWIDTH 16 0
BBX 13 45 3 -7
BITMAP
0010
0078
00F0
01E0
03E0
07C0
0780
0F80
1F00
1F00
3F00
3E00
3E00
7E00
7E00
7E00
7C00
FC00
FC00
FC00
FC00
FC00
FC00
FC00
FC00
FC00
FC00
FC00
FC00
7E00
7E00
7E00
7E00
3E00
3F00
3F00
1F00
0F80
0F80
07C0
03C0
01E0
00F0
0078
0010
ENDCHAR
STARTCHAR 0029
ENCODING 41
SWIDTH 333 0
DWIDTH 16 0
BBX 13 44 0 -7
BITMAP
4000
F000
7800
3C00
1E00
1F00
0F80
0FC0
07C0
07E0
07E0
03E0
03F0
03F0
03F0
01F0
01F8
01F8
01F8
01F8
01F8
01F8
01F8
01F8
01F8
01F8
01F8
01F0
03F0
03F0
03F0
03E0
03E0
07E0
07C0
07C0
0F80
0F00
1F00
3E00
3C00
7800
F000
4000
ENDCHAR
STARTCHAR 002A
ENCODING 42
SWIDTH 437 0
DWIDTH 21 0
BBX 19 20 1 17
BITMAP
003000
01F000
01F000
20F000
70E180
78E3C0
7EE7E0
7FFFE0
1FFF00
03F800
03F800
1FFF00
7FFFC0
FEE7C0
7CE3C0
30E1C0
00F080
00F000
01F000
00C000
ENDCHAR
STARTCHAR 002B
ENCODING 43
SWIDTH 416 0
DWIDTH 20 0
BBX 18 18 1 4
BITMAP
00E000
01E000
01E000
01E000
01E000
01E000
01E000
7FFFC0
FFFFC0
FFFF80
01E000
01E000
01E000
01E000
01E000
01E000
01E000
01C000
ENDCHAR
STARTCHAR 002C
ENCODING 44
SWIDTH 270 0
DWIDTH 13 0
BBX 10 15 1 -9
BITMAP
0700
3F80
FFC0
7FC0
3FC0
0FC0
0FC0
0F80
0F80
0F00
1F00
1E00
3C00
7800
3000
ENDCHAR
STARTCHAR 002D
ENCODING 45
SWIDTH 354 0
DWIDTH 17 0
BBX 15 3 1 11
BITMAP
7FFE
7FFC
FFFC
ENDCHAR
STARTCHAR 002E
ENCODING 46
SWIDTH 270 0
DWIDTH 13 0
BBX 8 7 3 -1
BITMAP
3E
7F
FF
FF
FF
FE
7C
ENDCHAR
STARTCHAR 002F
ENCODING 47
SWIDTH 479 0
DWIDTH 23 0
BBX 21 46 1 -8
BITMAP
000038
0000F8
0000F0
0001F0
0001F0
0001E0
0003E0
0003E0
0003C0
0007C0
000780
000F80
000F80
000F00
001F00
001F00
001E00
003E00
003C00
007C00
007C00
007800
00F800
00F800
00F000
01F000
01E000
03E000
03E000
03C000
07C000
07C000
078000
0F8000
0F0000
1F0000
1F0000
1E0000
3E0000
3E0000
3C0000
7C0000
780000
F80000
F80000
C00000
ENDCHAR
STARTCHAR 0030
ENCODING 48
SWIDTH 500 0
DWIDTH 24 0
BBX 22 29 1 0
BITMAP
00FC00
03FF00
078FC0
0F07E0
1E03E0
3E01F0
3E01F0
7C01F8
7C01F8
7C00F8
FC00FC
FC00FC
FC00FC
FC00FC
FC00FC
FC00FC
FC00FC
FC00FC
FC00FC
7C00F8
7C00F8
7E00F8
3E01F0
3E01F0
1F01E0
1F03C0
0F8780
03FF00
00FC00
ENDCHAR
STARTCHAR 0031
ENCODING 49
SWIDTH 500 0
DWIDTH 24 0
BBX 19 29 3 0
BITMAP
001000
00F800
07F800
3FF800
FFF800
E1F800
01F800
01F800
01F800
01F800
01F800
01F800
01F800
01F800
01F800
01F800
01F800
01F800
01F800
01F800
01F800
01F800
01F800
01F800
01F800
01F800
0FFF00
7FFFE0
7FFFE0
ENDCHAR
STARTCHAR 0032
ENCODING 50
SWIDTH 500 0
DWIDTH 24 0
BBX 20 29 1 0
BITMAP
00FF00
07FFC0
0F8FE0
3F07E0
3E03F0
7E03F0
7E03F0
7803F0
0003F0
0007E0
0007E0
000FC0
000F80
001F80
001F00
003E00
007C00
00F800
00F800
01F000
03E020
07C030
0F8030
0F0030
1E0070
3FFFF0
7FFFF0
FFFFF0
7FFFF0
ENDCHAR
STARTCHAR 0033
ENCODING 51
SWIDTH 500 0
DWIDTH 24 0
BBX 20 29 1 0
BITMAP
01FE00
07FF80
1F1FC0
3F0FC0
3E07E0
7E07E0
3C07E0
0007E0
0007C0
000FC0
001F80
007F00
01FE00
01FF80
023FC0
000FE0
0007E0
0003F0
0003F0
0003F0
0003F0
0003F0
0003F0
4007E0
600FE0
FC1FC0
3FFF80
1FFE00
03F800
ENDCHAR
STARTCHAR 0034
ENCODING 52
SWIDTH 520 0
DWIDTH 25 0
BBX 21 29 2 0
BITMAP
000180
000F80
001F80
003F80
003F80
007F80
00FF80
00EF80
01EF80
03CF80
038F80
078F80
070F80
0E0F80
1E0F80
1C0F80
380F80
380F80
7FFFF8
FFFFF0
FFFFE0
000F80
000F80
000F80
000F80
000F80
001FC0
01FFF0
01FFF0
ENDCHAR
STARTCHAR 0035
ENCODING 53
SWIDTH 500 0
DWIDTH 24 0
BBX 20 29 2 0
BITMAP
000020
1FFFF0
1FFFC0
1FFFC0
1FFF80
1C0000
1C0000
1C0000
3C0000
3C0000
380000
3BFC00
3FFF00
3FFF80
781FC0
200FE0
0007E0
0007F0
0003F0
0003F0
0003F0
0003F0
0003F0
0007E0
4007E0
E00FC0
FC1F80
3FFE00
07F800
ENDCHAR
STARTCHAR 0036
ENCODING 54
SWIDTH 500 0
DWIDTH 24 0
BBX 20 29 2 0
BITMAP
000180
001FC0
007F00
01FC00
03F000
07C000
0F8000
1F8000
3F0000
3E0000
7E0000
7C7E00
7DFF80
FFFFC0
FF0FE0
FE07E0
FC07F0
FC03F0
FC03F0
FC03F0
FC03F0
7C03F0
7E03E0
7E03E0
3E03C0
1F07C0
0F8F80
07FF00
01F800
ENDCHAR
STARTCHAR 0037
ENCODING 55
SWIDTH 500 0
DWIDTH 24 0
BBX 21 28 2 0
BITMAP
7FFFF0
7FFFF8
7FFFF0
7FFFE0
7001E0
E001E0
C001C0
4003C0
000380
000780
000700
000F00
000F00
001E00
001E00
003C00
003C00
007C00
007800
00F800
00F000
01F000
01F000
03E000
03E000
07E000
0FC000
060000
ENDCHAR
STARTCHAR 0038
ENCODING 56
SWIDTH 500 0
DWIDTH 24 0
BBX 20 29 2 0
BITMAP
00FC00
07FF80
0F1FC0
1E0FC0
1C07E0
3C07E0
3C07E0
3C07E0
3E0FC0
3F8F80
1FFF00
1FFE00
0FFC00
03FF00
07FF80
0FFFC0
1F1FE0
3E0FF0
7E07F0
FC03F0
FC03F0
FC03F0
FC03F0
FC03E0
7E03E0
7E07C0
3F0F80
1FFE00
03F800
ENDCHAR
STARTCHAR 0039
ENCODING 57
SWIDTH 500 0
DWIDTH 24 0
BBX 20 29 2 -1
BITMAP
01FC00
07FF00
0F1F80
1E0FC0
3E07E0
7C07E0
7C07E0
FC03F0
FC03F0
FC03F0
FC03F0
FC03F0
FE03F0
7E07F0
7F0FF0
3FFFF0
1FFBE0
07E3E0
0007E0
0007C0
0007C0
000F80
001F00
003E00
00FC00
03F800
0FE000
3F8000
380000
ENDCHAR
STARTCHAR 003A
ENCODING 58
SWIDTH 270 0
DWIDTH 13 0
BBX 8 23 3 -1
BITMAP
3E
7F
FF
FF
FF
FE
7C
00
00
00
00
00
00
00
00
00
3E
7F
FF
FF
FF
FE
7C
ENDCHAR
STARTCHAR 003B
ENCODING 59
SWIDTH 270 0
DWIDTH 13 0
BBX 10 31 1 -9
BITMAP
0F80
1FC0
3FC0
3FC0
3FC0
1F80
0E00
0000
0000
0000
0000
0000
0000
0000
0000
0000
0700
3F80
FFC0
7FC0
3FC0
0FC0
0FC0
0F80
0F80
0F00
1F00
1E00
3C00
7800
3000
ENDCHAR
STARTCHAR 003C
ENCODING 60
SWIDTH 458 0
DWIDTH 22 0
BBX 20 16 1 6
BITMAP
000060
0001F0
000FE0
007FE0
03FF80
0FFC00
7FE000
7F0000
FE0000
FFC000
3FF800
07FE00
01FFC0
003FE0
0007F0
0000C0
ENDCHAR
STARTCHAR 003D
ENCODING 61
SWIDTH 458 0
DWIDTH 22 0
BBX 20 10 1 8
BITMAP
7FFFE0
7FFFF0
FFFFE0
000000
000000
000000
000000
7FFFE0
7FFFF0
FFFFE0
ENDCHAR
STARTCHAR 003E
ENCODING 62
SWIDTH 458 0
DWIDTH 22 0
BBX 20 16 1 6
BITMAP
300000
7E0000
FFC000
3FF000
0FFE00
01FFC0
003FE0
0007F0
001FE0
007FE0
03FF00
1FF800
7FE000
7F0000
F80000
400000
ENDCHAR
STARTCHAR 003F
ENCODING 63
SWIDTH 458 0
DWIDTH 22 0
BBX 19 35 2 -1
BITMAP
01FE00
0FFF80
3F1FC0
7E0FC0
7C07E0
FC07E0
FC07E0
FC07E0
F007E0
0007C0
000FC0
000F80
001F80
003F00
007E00
007C00
00F800
01F000
01E000
03E000
03C000
03C000
03C000
03C000
038000
000000
000000
000000
01F000
03F800
07F800
07F800
07F800
07F000
03E000
ENDCHAR
STARTCHAR 0040
ENCODING 64
SWIDTH 875 0
DWIDTH 42 0
BBX 38 42 2 -10
BITMAP
0000FFC000
0007FFF800
001FFFFE00
007FFFFF00
00FF00FF80
01F8001FC0
03E00007E0
07C00003E0
0F800001F0
1F000001F0
1F00FC18F8
3E03FE78F8
3C07FFF078
7C0F87F07C
7C1F03F07C
781F03F03C
783E03F03C
F83E03F03C
F87E03F03C
F87E03F03C
F87E03F03C
F87E03F03C
F87E03F038
F87E03F038
F87E03F078
FC7F03F070
FC3F07F0E0
7C3F8FF9E0
7C1FFFFFC0
7E1FFBFF80
3E0FF1FE00
3F03E0F800
3F80000000
1FC0000000
0FE0000080
0FF00001C0
07FC0007C0
03FF807F80
00FFFFFE00
007FFFFC00
001FFFF000
0001FF0000
ENDCHAR
STARTCHAR 0041
ENCODING 65
SWIDTH 625 0
DWIDTH 30 0
BBX 30 30 0 0
BITMAP
00018000
00078000
000FC000
001FC000
001FE000
001FE000
003FE000
003FF000
003BF000
0079F000
0079F800
0071F800
00F0FC00
00F0FC00
00E0FC00
01E07E00
01E07E00
01C07E00
03FFFF00
03FFFF00
03801F00
07801F80
07001F80
07000FC0
0F000FC0
0E000FC0
0E0007E0
1E0007E0
FFC03FFC
FFC03FFC
ENDCHAR
STARTCHAR 0042
ENCODING 66
SWIDTH 604 0
DWIDTH 29 0
BBX 26 30 0 0
BITMAP
03FF8000
FFFFF000
7FC1FC00
0FC07E00
0FC07F00
0FC03F00
0FC03F00
0FC03F00
0FC03F00
0FC03E00
0FC07E00
0FC0FC00
0FC3F800
0FFFE000
0FFFFC00
0FC0FE00
0FC03F00
0FC01F80
0FC01F80
0FC00FC0
0FC00FC0
0FC00FC0
0FC00FC0
0FC00FC0
0FC00F80
0FC01F80
0FC03F00
1FC0FE00
7FFFFC00
7FFFE000
ENDCHAR
STARTCHAR 0043
ENCODING 67
SWIDTH 562 0
DWIDTH 27 0
BBX 24 30 1 0
BITMAP
001FE0
00FFFC
01FFFE
07E0FE
0F807E
1F803C
1F001C
3E0000
3E0000
7E0000
7C0000
FC0000
FC0000
FC0000
FC0000
FC0000
FC0000
FC0000
FC0000
FE0000
7E0000
7E0000
7F0000
3F8002
3FC00F
1FF03E
0FFFF8
07FFF0
01FFC0
007F00
ENDCHAR
STARTCHAR 0044
ENCODING 68
SWIDTH 645 0
DWIDTH 31 0
BBX 29 30 0 0
BITMAP
03FFC000
FFFFF800
7FC0FE00
8FC03F80
0FC01FC0
0FC00FC0
0FC007E0
0FC007F0
0FC003F0
0FC003F0
0FC003F8
0FC001F8
0FC001F8
0FC001F8
0FC001F8
0FC001F8
0FC001F8
0FC001F8
0FC001F8
0FC001F0
0FC003F0
0FC003F0
0FC007E0
0FC007E0
0FC00FC0
0FC01F80
0FC03F00
1FE0FE00
7FFFF800
7FFFC000
ENDCHAR
STARTCHAR 0045
ENCODING 69
SWIDTH 520 0
DWIDTH 25 0
BBX 23 30 1 0
BITMAP
FFFFF8
FFFFFC
3F8038
1F8038
1F8018
1F8018
1F8018
1F8018
1F8000
1F8000
1F8000
1F8000
1F8000
1FFFE0
1FFFE0
1F80C0
1F8000
1F8000
1F8000
1F8000
1F8000
1F8000
1F8000
1F8006
1F8006
1F800E
1F800E
3FC01E
FFFFFE
FFFFFC
ENDCHAR
STARTCHAR 0046
ENCODING 70
SWIDTH 500 0
DWIDTH 24 0
BBX 22 30 1 0
BITMAP
FFFFF8
FFFFFC
3F803C
1F801C
1F8018
1F8018
1F8018
1F8018
1F8000
1F8000
1F8000
1F8000
1F8000
1FFFC0
1FFFE0
1F8180
1F8000
1F8000
1F8000
1F8000
1F8000
1F8000
1F8000
1F8000
1F8000
1F8000
1F8000
3FC000
FFF800
FFF800
ENDCHAR
STARTCHAR 0047
ENCODING 71
SWIDTH 604 0
DWIDTH 29 0
BBX 27 30 1 0
BITMAP
000FF800
007FFF80
01F07F80
03C03F00
07800F00
0F000E00
1F000000
3E000000
3E000000
7E000000
7C000000
7C000000
FC000000
FC000000
FC01FFE0
FC01FFE0
FC007FC0
FC001F80
FC001F80
FE001F80
7E001F80
7F001F80
7F001F80
3F801F80
3FC01F80
1FF03F00
0FFFFE00
07FFFC00
01FFF000
003F8000
ENDCHAR
STARTCHAR 0048
ENCODING 72
SWIDTH 687 0
DWIDTH 33 0
BBX 30 30 1 0
BITMAP
FFF03FFC
FFF03FFC
3FC00FF0
1F8007E0
1F8007E0
1F8007E0
1F8007E0
1F8007E0
1F8007E0
1F8007E0
1F8007E0
1F8007E0
1F8007E0
1F8007E0
1FFFFFE0
1FFFFFE0
1F8007E0
1F8007E0
1F8007E0
1F8007E0
1F8007E0
1F8007E0
1F8007E0
1F8007E0
1F8007E0
1F8007E0
1F8007E0
3FC00FF0
FFF03FFC
FFF03FFC
ENDCHAR
STARTCHAR 0049
ENCODING 73
SWIDTH 333 0
DWIDTH 16 0
BBX 12 30 2 0
BITMAP
FFF0
FFF0
3FC0
1F80
1F80
1F80
1F80
1F80
1F80
1F80
1F80
1F80
1F80
1F80
1F80
1F80
1F80
1F80
1F80
1F80
1F80
1F80
1F80
1F80
1F80
1F80
1F80
3FC0
FFF0
FFF0
ENDCHAR
STARTCHAR 004A
ENCODING 74
SWIDTH 333 0
DWIDTH 16 0
BBX 21 40 -7 -10
BITMAP
00FFF8
00FFF8
001FE0
000FC0
000FC0
000FC0
000FC0
000FC0
000FC0
000FC0
000FC0
000FC0
000FC0
000FC0
000FC0
000FC0
000FC0
000FC0
000FC0
000FC0
000FC0
000FC0
000FC0
000FC0
000FC0
000FC0
000FC0
000FC0
000FC0
000FC0
000F80
000F80
000F80
001F00
181E00
3E3E00
7FF800
FFF000
7FE000
1F8000
ENDCHAR
STARTCHAR 004B
ENCODING 75
SWIDTH 625 0
DWIDTH 30 0
BBX 29 30 1 0
BITMAP
FFF0FFE0
FFF0FFE0
3FC01F00
1F803E00
1F807C00
1F80F800
1F81F000
1F81E000
1F83C000
1F878000
1F8F0000
1F9F0000
1FBE0000
1FBC0000
1FFC0000
1FFE0000
1FBF0000
1F9F8000
1F8FC000
1F87E000
1F87F000
1F83F800
1F81FC00
1F80FE00
1F807E00
1F807F00
1F803FC0
3FC01FF0
FFF00FF8
FFF00780
ENDCHAR
STARTCHAR 004C
ENCODING 76
SWIDTH 500 0
DWIDTH 24 0
BBX 23 30 1 0
BITMAP
FFF000
FFF000
3FC000
1F8000
1F8000
1F8000
1F8000
1F8000
1F8000
1F8000
1F8000
1F8000
1F8000
1F8000
1F8000
1F8000
1F8000
1F8000
1F8000
1F8000
1F8000
1F8000
1F8000
1F8004
1F8006
1F800E
1F801E
3FC03C
FFFFFC
FFFFFC
ENDCHAR
STARTCHAR 004D
ENCODING 77
SWIDTH 854 0
DWIDTH 41 0
BBX 38 30 1 0
BITMAP
FF80000FF8
FFC0000FF8
0FC0001FC0
0FE0001FC0
0FE0001FC0
0FF0003FC0
0FF0003FC0
0FF8007FC0
0FF80077C0
0EFC00F7C0
0EFC00F7C0
0E7C01E7C0
0E7E01E7C0
0E3E01C7C0
0E3F03C7C0
0E1F0387C0
0E1F8787C0
0E1F8787C0
0E0F8F07C0
0E0FCF07C0
1E07DE07C0
1E07FE07C0
1E03FC07C0
1E03FC07C0
1E03F807C0
1E01F807E0
1E01F807E0
1F00F00FE0
FFC0F03FFC
FFC0603FFC
ENDCHAR
STARTCHAR 004E
ENCODING 78
SWIDTH 666 0
DWIDTH 32 0
BBX 30 30 1 0
BITMAP
FF000FFC
FF800FFC
3FC003F0
1FC001E0
1FE001E0
1FF001E0
1FF001E0
1FF801E0
1FFC01E0
1EFE01E0
1E7E01E0
1E3F01E0
1E3F81E0
1E1F81E0
1E0FC1E0
1E07E1E0
1E07E1E0
1E03F1E0
1E01F9E0
1E01FDE0
1E00FDE0
1E007FE0
1E003FE0
1E003FE0
1E001FE0
1E000FE0
1E0007E0
3F0007E0
FFC003E0
FFC000E0
ENDCHAR
STARTCHAR 004F
ENCODING 79
SWIDTH 625 0
DWIDTH 30 0
BBX 27 30 1 0
BITMAP
001FC000
00FFF000
03E1FC00
07807E00
0F003F00
1F001F00
1E001F80
3E000F80
7E000FC0
7C000FC0
7C0007E0
FC0007E0
FC0007E0
FC0007E0
FC0007E0
FC0007E0
FC0007E0
FC0007E0
FC0007E0
FE0007C0
7E000FC0
7E000F80
7F000F80
3F001F00
1F801F00
1FC03E00
0FF0FC00
07FFF000
01FFE000
007F0000
ENDCHAR
STARTCHAR 0050
ENCODING 80
SWIDTH 562 0
DWIDTH 27 0
BBX 25 30 0 0
BITMAP
03FFC000
FFFFF800
7FC1FC00
8FC07E00
0FC03F00
0FC03F00
0FC01F80
0FC01F80
0FC01F80
0FC01F80
0FC01F80
0FC01F00
0FC03F00
0FC03E00
0FC07E00
0FD0FC00
0FDFF000
0FCFC000
0FC00000
0FC00000
0FC00000
0FC00000
0FC00000
0FC00000
0FC00000
0FC00000
0FC00000
1FE00000
7FFC0000
7FFC0000
ENDCHAR
STARTCHAR 0051
ENCODING 81
SWIDTH 625 0
DWIDTH 30 0
BBX 32 38 1 -8
BITMAP
001FC000
00FFF000
03E1FC00
07807E00
0F003F00
1F001F00
1E001F80
3E000F80
7E000FC0
7C000FC0
7C0007C0
FC0007E0
FC0007E0
FC0007E0
FC0007E0
FC0007E0
FC0007E0
FC0007E0
FC0007E0
FE0007C0
7E000FC0
7E000F80
7F000F80
3F001F00
1F801F00
1FC03E00
0FF0FC00
07FFF800
01FFE000
007FF000
0001FC00
0000FE02
00003F87
00001FFF
00000FFE
000003FC
000001FC
00000078
ENDCHAR
STARTCHAR 0052
ENCODING 82
SWIDTH 604 0
DWIDTH 29 0
BBX 29 30 0 0
BITMAP
07FF8000
FFFFF000
7FC1FC00
8FC07E00
0FC07E00
0FC03F00
0FC03F00
0FC03F00
0FC03F00
0FC03F00
0FC07E00
0FC07E00
0FC0FC00
0FFFF800
0FFFF000
0FFFC000
0FC7C000
0FC3E000
0FC1F000
0FC1F000
0FC0F800
0FC0FC00
0FC07E00
0FC07E00
0FC03F00
0FC03F80
0FC01FC0
1FE01FF8
7FF80FF8
7FF80F80
ENDCHAR
STARTCHAR 0053
ENCODING 83
SWIDTH 520 0
DWIDTH 25 0
BBX 20 30 3 0
BITMAP
01FF00
0FFFC0
1E0FE0
3C07C0
7803C0
F80180
F80000
FC0000
FE0000
FF0000
7FC000
7FF000
3FFC00
1FFF00
07FF80
01FFC0
007FE0
001FE0
0007F0
0003F0
0001F0
C001F0
E001F0
E001E0
F003E0
F803C0
FE0F80
FFFF00
7FFE00
0FF000
ENDCHAR
STARTCHAR 0054
ENCODING 84
SWIDTH 583 0
DWIDTH 28 0
BBX 27 30 0 0
BITMAP
7FFFFFE0
7FFFFFE0
701F80E0
701F80E0
601F80E0
601F80E0
E01F8060
401F8060
001F8000
001F8000
001F8000
001F8000
001F8000
001F8000
001F8000
001F8000
001F8000
001F8000
001F8000
001F8000
001F8000
001F8000
001F8000
001F8000
001F8000
001F8000
001F8000
003FC000
01FFF800
01FFF800
ENDCHAR
STARTCHAR 0055
ENCODING 85
SWIDTH 666 0
DWIDTH 32 0
BBX 29 30 1 0
BITMAP
FFF01FF8
FFF01FF8
3FC007E0
1F8003C0
1F8003C0
1F8003C0
1F8003C0
1F8003C0
1F8003C0
1F8003C0
1F8003C0
1F8003C0
1F8003C0
1F8003C0
1F8003C0
1F8003C0
1F8003C0
1F8003C0
1F8003C0
1F8003C0
1F8003C0
1F800380
1FC00780
0FC00780
0FE00700
07E00F00
03F83E00
01FFFC00
00FFF000
001FC000
ENDCHAR
STARTCHAR 0056
ENCODING 86
SWIDTH 666 0
DWIDTH 32 0
BBX 31 30 0 0
BITMAP
FFF007FE
FFF007FE
1F8000F0
0FC000E0
0FC000E0
0FC001E0
07E001C0
07E003C0
03F003C0
03F00380
03F00780
01F80780
01F80700
00F80F00
00FC0E00
00FC0E00
007E1E00
007E1C00
003E1C00
003F3C00
003F3800
001FF800
001FF000
000FF000
000FF000
000FE000
0007E000
0007E000
0003C000
00030000
ENDCHAR
STARTCHAR 0057
ENCODING 87
SWIDTH 854 0
DWIDTH 41 0
BBX 41 30 0 0
BITMAP
FFF00C03FF80
FFF01E03FF80
1F801E007C00
0F801E003800
0F803F007800
0F803F007800
0FC03F807000
07C07F807000
07C07F807000
07C07FC0F000
07E0F7C0E000
03E0E7E0E000
03E0E3E0E000
03E1E3E1E000
03F1C3F1E000
03F1C1F1C000
01F3C1F1C000
01F380F9C000
01FB80FBC000
01FF80FFC000
00FF007F8000
00FF007F8000
00FE007F8000
00FE003F8000
007E003F0000
007C001F0000
007C001F0000
007C001F0000
0078000E0000
0030000C0000
ENDCHAR
STARTCHAR 0058
ENCODING 88
SWIDTH 625 0
DWIDTH 30 0
BBX 29 30 1 0
BITMAP
FFF07FF0
FFF07FF0
3FC01F80
1FC00F00
0FC01E00
07E03C00
07F03C00
03F07800
01F8F000
01FCF000
00FFE000
007FC000
007FC000
003F8000
001F8000
001FC000
003FE000
007FE000
007FF000
00F3F800
01F1F800
01E1FC00
03C0FE00
07C07E00
07803F00
0F003F80
1F001FC0
3F003FE0
FFC0FFF8
FFC0FFF8
ENDCHAR
STARTCHAR 0059
ENCODING 89
SWIDTH 604 0
DWIDTH 29 0
BBX 29 30 0 0
BITMAP
7F001FF8
FF801FF8
1FC003C0
0FC00380
07E00780
03F00700
03F00F00
01F80E00
01F81E00
00FC1C00
007C3C00
007E3800
003F7800
003FF000
001FF000
001FE000
000FE000
000FC000
000FC000
000FC000
000FC000
000FC000
000FC000
000FC000
000FC000
000FC000
000FC000
001FE000
00FFFC00
00FFFC00
ENDCHAR
STARTCHAR 005A
ENCODING 90
SWIDTH 541 0
DWIDTH 26 0
BBX 23 30 1 0
BITMAP
3FFFFE
3FFFFE
3C00FE
3801FC
3801F8
3003F8
3007F0
4007F0
000FE0
000FC0
001FC0
003F80
003F80
007F00
007E00
00FE00
01FC00
01FC00
03F800
03F800
07F000
0FE000
0FE004
1FC006
1FC006
3F800E
7F000E
7F001E
FFFFFE
7FFFFE
ENDCHAR
STARTCHAR 005B
ENCODING 91
SWIDTH 333 0
DWIDTH 16 0
BBX 12 45 3 -8
BITMAP
FFF0
FFF0
FFF0
F800
F800
F800
F800
F800
F800
F800
F800
F800
F800
F800
F800
F800
F800
F800
F800
F800
F800
F800
F800
F800
F800
F800
F800
F800
F800
F800
F800
F800
F800
F800
F800
F800
F800
F800
F800
F800
F800
F800
FFF0
FFF0
FFF0
ENDCHAR
STARTCHAR 005C
ENCODING 92
SWIDTH 479 0
DWIDTH 23 0
BBX 21 46 1 -8
BITMAP
E00000
F80000
780000
780000
7C0000
3C0000
3C0000
3E0000
1E0000
1F0000
0F0000
0F0000
0F8000
078000
078000
07C000
03C000
03C000
03E000
01E000
01F000
00F000
00F000
00F800
007800
007800
007C00
003C00
003C00
003E00
001E00
001F00
000F00
000F00
000F80
000780
000780
0007C0
0003C0
0003C0
0001E0
0001E0
0001F0
0000F0
0000F0
000038
ENDCHAR
STARTCHAR 005D
ENCODING 93
SWIDTH 333 0
DWIDTH 16 0
BBX 12 45 1 -8
BITMAP
FFF0
FFF0
FFF0
01F0
01F0
01F0
01F0
01F0
01F0
01F0
01F0
01F0
01F0
01F0
01F0
01F0
01F0
01F0
01F0
01F0
01F0
01F0
01F0
01F0
01F0
01F0
01F0
01F0
01F0
01F0
01F0
01F0
01F0
01F0
01F0
01F0
01F0
01F0
01F0
01F0
01F0
01F0
FFF0
FFF0
FFF0
ENDCHAR
STARTCHAR 005E
ENCODING 94
SWIDTH 500 0
DWIDTH 24 0
BBX 19 23 2 13
BITMAP
002000
007000
00F000
01F000
01F800
01F800
03BC00
03BC00
073C00
071E00
061E00
0E0E00
0E0F00
0C0F00
1C0780
1C0780
180380
3803C0
3003C0
7001E0
7001E0
6000E0
C000C0
ENDCHAR
STARTCHAR 005F
ENCODING 95
SWIDTH 479 0
DWIDTH 23 0
BBX 21 3 1 -6
BITMAP
7FFFF8
7FFFF8
FFFFF0
ENDCHAR
STARTCHAR 0060
ENCODING 96
SWIDTH 312 0
DWIDTH 15 0
BBX 11 11 0 24
BITMAP
3C00
FC00
FE00
7E00
3F00
1F00
0F80
0780
03C0
01C0
00E0
ENDCHAR
STARTCHAR 0061
ENCODING 97
SWIDTH 500 0
DWIDTH 24 0
BBX 23 22 1 0
BITMAP
00FF00
0FFF80
1F0FC0
3E07E0
7E07E0
FC07E0
6007E0
0007E0
001FE0
01FFE0
07FFE0
1FE7E0
3F87E0
3F07E0
7E07E0
7E07E0
7E07E0
7E1FE4
7F3FFC
3FF7FE
3FE7F0
0F8380
ENDCHAR
STARTCHAR 0062
ENCODING 98
SWIDTH 541 0
DWIDTH 26 0
BBX 24 36 0 0
BITMAP
030000
3F8000
FF8000
7F8000
1F8000
1F8000
1F8000
1F8000
1F8000
1F8000
1F8000
1F8000
1F8000
1F8000
1F83E0
1F8FF8
1FBFFC
1FFFFC
1FF0FE
1FC07E
1F803F
1F803F
1F801F
1F801F
1F801F
1F801F
1F801F
1F801E
1F801E
1F803C
1F8038
1FF0F8
1FFFF0
0FFFC0
03FF80
007E00
ENDCHAR
STARTCHAR 0063
ENCODING 99
SWIDTH 458 0
DWIDTH 22 0
BBX 20 22 1 0
BITMAP
007F80
01FFF0
0787E0
0F03E0
1E01E0
3E00C0
7C00C0
7C0000
FC0000
FC0000
FC0000
FC0000
FC0000
FC0000
FE0000
7E0020
7F0070
3FC1E0
3FFFC0
1FFF80
07FF00
01FC00
ENDCHAR
STARTCHAR 0064
ENCODING 100
SWIDTH 562 0
DWIDTH 27 0
BBX 25 36 2 0
BITMAP
00003800
000FF800
000FF800
0003F800
0001F800
0001F800
0001F800
0001F800
0001F800
0001F800
0001F800
0001F800
0001F800
0001F800
00F9F800
07FFF800
0FFFF800
1F87F800
3F03F800
3E01F800
7E01F800
7C01F800
FC01F800
FC01F800
FC01F800
FC01F800
FC01F800
FC01F800
FE01F800
7E01F800
7F03F800
7F87FD00
3FFFFF80
1FFDFE00
0FF8FC00
03E0E000
ENDCHAR
STARTCHAR 0065
ENCODING 101
SWIDTH 479 0
DWIDTH 23 0
BBX 19 22 2 0
BITMAP
00FC00
07FF00
0F1F80
1E0F80
3E0FC0
7C07C0
7C07E0
7C07E0
FC07E0
FFFFE0
FFFF80
FC0000
FC0000
FC0000
FE0000
7E0040
7F00E0
3F83C0
3FFF80
1FFF00
0FFE00
03F800
ENDCHAR
STARTCHAR 0066
ENCODING 102
SWIDTH 333 0
DWIDTH 16 0
BBX 20 37 1 0
BITMAP
000F80
003FE0
00FFF0
01FFE0
03E3E0
07C1C0
07C100
0F8000
0F8000
0F8000
1F8000
1F8000
1F8000
1F8000
1F8000
7FFF00
FFFE00
1F8400
1F8000
1F8000
1F8000
1F8000
1F8000
1F8000
1F8000
1F8000
1F8000
1F8000
1F8000
1F8000
1F8000
1F8000
1F8000
1F8000
3FE000
FFFC00
FFFC00
ENDCHAR
STARTCHAR 0067
ENCODING 103
SWIDTH 520 0
DWIDTH 25 0
BBX 25 33 0 -11
BITMAP
007E0180
03FFDF80
0787FF00
0F03FE00
1E01F000
1E00F800
3E00F800
3E00F800
3E00F800
3E00F800
3F00F000
1F81E000
0FC3C000
07FF8000
01FE0000
03E00000
07C00000
0FC00000
1FFE0000
1FFFF000
0FFFFC00
07FFFE00
0F9FFF00
3E007F00
7C003F00
FC001F00
FC001E00
FE001E00
FF003C00
7FC0F800
3FFFF000
0FFFC000
01FE0000
ENDCHAR
STARTCHAR 0068
ENCODING 104
SWIDTH 583 0
DWIDTH 28 0
BBX 26 36 1 0
BITMAP
01800000
3F800000
FF800000
FF800000
1F800000
1F800000
1F800000
1F800000
1F800000
1F800000
1F800000
1F800000
1F800000
1F800000
1F81F000
1F8FFC00
1F9FFC00
1FFFFE00
1FF8FE00
1FE07E00
1FC07E00
1F807E00
1F807E00
1F807E00
1F807E00
1F807E00
1F807E00
1F807E00
1F807E00
1F807E00
1F807E00
1F807E00
1F807E00
3FC0FF00
FFF3FFC0
FFF3FFC0
ENDCHAR
STARTCHAR 0069
ENCODING 105
SWIDTH 291 0
DWIDTH 14 0
BBX 12 32 1 0
BITMAP
0780
0FC0
1FC0
1FC0
1F80
0F00
0000
0000
0000
0000
0380
7F80
FF80
7F80
1F80
1F80
1F80
1F80
1F80
1F80
1F80
1F80
1F80
1F80
1F80
1F80
1F80
1F80
1F80
3FC0
FFF0
FFF0
ENDCHAR
STARTCHAR 006A
ENCODING 106
SWIDTH 291 0
DWIDTH 14 0
BBX 17 43 -6 -11
BITMAP
000F00
001F80
003F80
003F80
003F00
001E00
000000
000000
000000
000000
000380
007F80
00FF80
007F80
001F80
001F80
001F80
001F80
001F80
001F80
001F80
001F80
001F80
001F80
001F80
001F80
001F80
001F80
001F80
001F80
001F80
001F80
001F80
001F80
001F00
001F00
003E00
103E00
3C7C00
7FF800
FFE000
FFC000
3F0000
ENDCHAR
STARTCHAR 006B
ENCODING 107
SWIDTH 541 0
DWIDTH 26 0
BBX 26 36 1 0
BITMAP
01800000
3F800000
FF800000
FF800000
1F800000
1F800000
1F800000
1F800000
1F800000
1F800000
1F800000
1F800000
1F800000
1F800000
1F81FF80
1F81FF80
1F80FC00
1F80F800
1F83E000
1F87C000
1F8F8000
1F9E0000
1FBC0000
1FFC0000
1FBE0000
1FBF0000
1F9F8000
1F8FC000
1F87E000
1F87F000
1F83F800
1F81FC00
1F80FC00
3F80FFC0
FFF07FC0
FFF03E00
ENDCHAR
STARTCHAR 006C
ENCODING 108
SWIDTH 291 0
DWIDTH 14 0
BBX 12 36 1 0
BITMAP
0180
3F80
FF80
FF80
1F80
1F80
1F80
1F80
1F80
1F80
1F80
1F80
1F80
1F80
1F80
1F80
1F80
1F80
1F80
1F80
1F80
1F80
1F80
1F80
1F80
1F80
1F80
1F80
1F80
1F80
1F80
1F80
1F80
1FC0
FFF0
FFF0
ENDCHAR
STARTCHAR 006D
ENCODING 109
SWIDTH 854 0
DWIDTH 41 0
BBX 39 22 1 0
BITMAP
0303E01F80
7F8FF87FC0
FF9FF9FFE0
7FFFFFFFF0
1FF1FF87F0
1FE0FF03F0
1F80FC03F0
1F80FC03F0
1F80FC03F0
1F80FC03F0
1F80FC03F0
1F80FC03F0
1F80FC03F0
1F80FC03F0
1F80FC03F0
1F80FC03F0
1F80FC03F0
1F80FC03F0
1F80FC03F0
3F80FC03F8
FFF7FF9FFE
FFF7FF9FFE
ENDCHAR
STARTCHAR 006E
ENCODING 110
SWIDTH 583 0
DWIDTH 28 0
BBX 26 22 1 0
BITMAP
0301F000
7F87FC00
FF9FFC00
3FBFFE00
1FF8FE00
1FE07E00
1FC07E00
1F807E00
1F807E00
1F807E00
1F807E00
1F807E00
1F807E00
1F807E00
1F807E00
1F807E00
1F807E00
1F807E00
1F807E00
3FC0FF00
FFF3FFC0
FFF3FFC0
ENDCHAR
STARTCHAR 006F
ENCODING 111
SWIDTH 520 0
DWIDTH 25 0
BBX 21 22 2 0
BITMAP
00FC00
03FF00
0F0FC0
1E07E0
3E07E0
3E03F0
7C03F0
7C01F8
FC01F8
FC01F8
FC01F8
FC01F8
FC01F8
FC01F8
FC01F0
7E01F0
7E03E0
3E03E0
3F03C0
1F8780
07FE00
01F800
ENDCHAR
STARTCHAR 0070
ENCODING 112
SWIDTH 562 0
DWIDTH 27 0
BBX 24 33 1 -11
BITMAP
0303E0
7F8FF8
FF9FFC
3FFFFC
1FF0FE
1FC07E
1F803F
1F803F
1F801F
1F801F
1F801F
1F801F
1F801F
1F801E
1F801E
1F803E
1FC03C
1FF07C
1FFFF8
1FFFF0
1F9FE0
1F8780
1F8000
1F8000
1F8000
1F8000
1F8000
1F8000
1F8000
1F8000
3FC000
FFF800
FFF800
ENDCHAR
STARTCHAR 0071
ENCODING 113
SWIDTH 541 0
DWIDTH 26 0
BBX 24 33 2 -11
BITMAP
007C08
01FF1C
07FFF8
0F87F8
1E03F8
3E01F8
7C01F8
7C01F8
FC01F8
FC01F8
FC01F8
FC01F8
FC01F8
FC01F8
FE01F8
7E01F8
7F03F8
7F8FF8
3FFFF8
1FFDF8
0FF9F8
03E1F8
0001F8
0001F8
0001F8
0001F8
0001F8
0001F8
0001F8
0001F8
0003F8
001FFF
001FFF
ENDCHAR
STARTCHAR 0072
ENCODING 114
SWIDTH 437 0
DWIDTH 21 0
BBX 20 22 1 0
BITMAP
0307C0
7F8FF0
FFBFF0
3FFFE0
1FF1E0
1FE0E0
1FC0E0
1F80C0
1F80C0
1F8000
1F8000
1F8000
1F8000
1F8000
1F8000
1F8000
1F8000
1F8000
1F8000
1FC000
FFF800
FFF800
ENDCHAR
STARTCHAR 0073
ENCODING 115
SWIDTH 416 0
DWIDTH 20 0
BBX 16 22 2 0
BITMAP
07F8
1FFE
3C3E
781E
F80E
F80C
FC00
FF00
7FC0
7FF0
3FF8
0FFE
03FE
00FF
807F
C03F
E01F
E01F
F01E
F83C
FFF8
3FE0
ENDCHAR
STARTCHAR 0074
ENCODING 116
SWIDTH 375 0
DWIDTH 18 0
BBX 18 30 -1 0
BITMAP
00C000
01C000
07C000
0FC000
0FC000
0FC000
0FC000
0FC000
3FFFC0
FFFF80
0FC100
0FC000
0FC000
0FC000
0FC000
0FC000
0FC000
0FC000
0FC000
0FC000
0FC000
0FC000
0FC000
0FC000
0FC080
0FE3C0
0FFF80
07FF00
03FC00
01F000
ENDCHAR
STARTCHAR 0075
ENCODING 117
SWIDTH 562 0
DWIDTH 27 0
BBX 26 22 1 0
BITMAP
03801C00
FF87FC00
FF87FC00
1F80FC00
1F80FC00
1F80FC00
1F80FC00
1F80FC00
1F80FC00
1F80FC00
1F80FC00
1F80FC00
1F80FC00
1F80FC00
1F80FC00
1F80FC00
1F81FC00
1FC7FC80
1FFFFF80
0FFEFFC0
07F87E00
03E07000
ENDCHAR
STARTCHAR 0076
ENCODING 118
SWIDTH 500 0
DWIDTH 24 0
BBX 24 22 0 0
BITMAP
FFE0FF
FFE0FF
3F803C
1F803C
1F8038
0FC078
0FC070
07C070
07E0F0
07E0E0
03F1E0
03F1C0
01F9C0
01FB80
00FF80
00FF80
007F00
007F00
007E00
003E00
003C00
001800
ENDCHAR
STARTCHAR 0077
ENCODING 119
SWIDTH 708 0
DWIDTH 34 0
BBX 34 22 0 0
BITMAP
FFE0603FC0
FFE0703FC0
3F00F00700
1F00F80F00
1F80F80E00
0F81FC0E00
0F81FC1E00
0FC3FC1C00
07C3FE1C00
07C3BE1C00
07E73F3C00
03E71F3800
03EF1FB800
03FE1FF800
01FE0FF000
01FC0FF000
01FC07F000
00FC07E000
00F803E000
00F803E000
007001C000
0060018000
ENDCHAR
STARTCHAR 0078
ENCODING 120
SWIDTH 520 0
DWIDTH 25 0
BBX 25 22 0 0
BITMAP
7FF1FF00
7FF1FF00
1FC07C00
0FE07000
07E0E000
07F1E000
03FBC000
01FF8000
00FF0000
00FE0000
007F0000
007F0000
007F8000
00FFC000
01CFE000
03C7E000
0783F000
0703F800
0E01FC00
1E01FE00
FF87FF80
FF87FF80
ENDCHAR
STARTCHAR 0079
ENCODING 121
SWIDTH 500 0
DWIDTH 24 0
BBX 25 33 -1 -11
BITMAP
7FF07F80
7FF07F80
1FC01E00
0FC01C00
0FC01C00
07E03C00
07E03800
03F03800
03F07000
01F07000
01F8F000
01F8E000
00FCE000
00FDE000
007DC000
007FC000
007F8000
003F8000
003F8000
001F0000
001F0000
000E0000
000E0000
001E0000
001C0000
003C0000
00780000
20F80000
3FF00000
7FE00000
FFC00000
FF800000
7E000000
ENDCHAR
STARTCHAR 007A
ENCODING 122
SWIDTH 458 0
DWIDTH 22 0
BBX 20 22 1 0
BITMAP
3FFFF0
3FFFF0
380FE0
380FC0
301FC0
301F80
203F00
007F00
007E00
00FC00
01FC00
01F800
03F000
07F000
07E000
0FE030
1FC030
1F8070
3F8070
7F00F0
7FFFF0
FFFFE0
ENDCHAR
STARTCHAR 007B
ENCODING 123
SWIDTH 354 0
DWIDTH 17 0
BBX 14 45 2 -7
BITMAP
0008
003C
00F8
01F0
03E0
07E0
07C0
0FC0
0FC0
0FC0
0FC0
0FC0
0FE0
07E0
07E0
07E0
07E0
07E0
07C0
0FC0
0F80
3F00
FE00
FF80
1FC0
07C0
07E0
07E0
07E0
07E0
07E0
07E0
0FE0
0FC0
0FC0
0FC0
0FC0
0FC0
0FC0
07C0
07E0
03F0
00F8
007C
0008
ENDCHAR
STARTCHAR 007C
ENCODING 124
SWIDTH 229 0
DWIDTH 11 0
BBX 4 49 4 -10
BITMAP
30
F0
F0
F0
F0
F0
F0
F0
F0
F0
F0
F0
F0
F0
F0
F0
F0
F0
F0
F0
F0
F0
F0
F0
F0
F0
F0
F0
F0
F0
F0
F0
F0
F0
F0
F0
F0
F0
F0
F0
F0
F0
F0
F0
F0
F0
F0
F0
C0
ENDCHAR
STARTCHAR 007D
ENCODING 125
SWIDTH 354 0
DWIDTH 17 0
BBX 14 44 1 -7
BITMAP
4000
F800
7C00
3F00
1F80
0F80
0FC0
0FC0
0FC0
0FC0
0FC0
0FC0
1FC0
1F80
1F80
1F80
1F80
1F80
1F80
0FC0
0FFC
07FC
01F8
07E0
0FC0
0F80
1F80
1F80
1F80
1F80
1F80
1FC0
0FC0
0FC0
0FC0
0FC0
0FC0
0F80
1F80
1F00
3E00
7C00
F000
4000
ENDCHAR
STARTCHAR 007E
ENCODING 126
SWIDTH 479 0
DWIDTH 23 0
BBX 21 8 1 11
BITMAP
078008
0FE018
1FF010
3FFC30
31FFE0
607FC0
401F80
C00F00
ENDCHAR
STARTCHAR 00A0
ENCODING 160
SWIDTH 250 0
DWIDTH 12 0
BBX 0 0 0 0
BITMAP
ENDCHAR
STARTCHAR 00A1
ENCODING 161
SWIDTH 312 0
DWIDTH 15 0
BBX 8 35 3 -13
BITMAP
3E
7F
FF
FF
FF
FE
7C
00
00
0C
1C
1C
1C
3C
3C
3C
3C
3C
3E
3E
3E
3E
3E
3E
3E
3E
7E
7E
7E
7E
7E
7F
7E
78
60
ENDCHAR
STARTCHAR 00A2
ENCODING 162
SWIDTH 500 0
DWIDTH 24 0
BBX 21 30 2 -1
BITMAP
001800
003800
003800
003800
007FC0
03FFF0
07FFF8
1FBBF0
3E38F0
3C3860
7C3820
783800
F83800
F83800
F83800
F83800
F83800
F83800
FC3800
7C3810
7E3838
3F38F0
1FFBE0
0FFFC0
07FF80
01FC00
003800
003800
003800
003000
ENDCHAR
STARTCHAR 00A3
ENCODING 163
SWIDTH 500 0
DWIDTH 24 0
BBX 22 29 1 0
BITMAP
001FC0
00FFF8
01E1F8
03C0F8
07C078
078070
0F8030
0F8030
0F8000
1F8000
1F8000
1F8000
1F8000
1F8000
FFFF00
FFFF00
1F8000
1F8000
1F8000
1F8000
1F8010
1F000C
1F0018
1E0038
3E0078
3FFFF8
7FFFF8
FFFFF8
800FF0
ENDCHAR
STARTCHAR 00A4
ENCODING 164
SWIDTH 500 0
DWIDTH 24 0
BBX 20 20 2 4
BITMAP
400020
E00060
71F8F0
3FFFC0
1F0F80
1E0780
1C0380
3801C0
3801C0
3801C0
3801C0
3801C0
3C03C0
1E0780
1F0F80
1FFF80
39F9C0
7000E0
E00070
400020
ENDCHAR
STARTCHAR 00A5
ENCODING 165
SWIDTH 500 0
DWIDTH 24 0
BBX 27 28 -2 0
BITMAP
7F007FE0
FF807FE0
7FC00F00
0FE01E00
0FE01E00
07F03C00
03F03C00
03F83800
01FC7800
00FC7000
00FEF000
007EE000
007FE000
003FC000
003FC000
001FC000
001F8000
0FFFFF00
0FFFFE00
001F8000
001F8000
001F8000
001F8000
001F8000
001F8000
003FC000
01FFF800
01FFF800
ENDCHAR
STARTCHAR 00A6
ENCODING 166
SWIDTH 229 0
DWIDTH 11 0
BBX 4 49 4 -10
BITMAP
30
F0
F0
F0
F0
F0
F0
F0
F0
F0
F0
F0
F0
F0
F0
F0
F0
F0
F0
F0
F0
E0
00
00
00
00
00
70
F0
F0
F0
F0
F0
F0
F0
F0
F0
F0
F0
F0
F0
F0
F0
F0
F0
F0
F0
F0
C0
ENDCHAR
STARTCHAR 00A7
ENCODING 167
SWIDTH 479 0
DWIDTH 23 0
BBX 18 34 3 0
BITMAP
03FC00
0FFF00
1E1F00
3C0F00
7C0700
7C0600
7E0200
7F8000
3FE000
3FF000
3FFC00
7FFE00
7BFF00
F0FF80
F03F80
F01FC0
F007C0
F807C0
7C03C0
7F03C0
3FC3C0
1FF380
0FFF80
07FF00
01FF00
007F80
603F80
601F80
700F80
700F80
780F00
7E1E00
7FFC00
0FF000
ENDCHAR
STARTCHAR 00A8
ENCODING 168
SWIDTH 395 0
DWIDTH 19 0
BBX 17 7 1 26
BITMAP
380700
7C0F80
FC1F80
FC1F80
FC1F80
F81F00
700E00
ENDCHAR
STARTCHAR 00A9
ENCODING 169
SWIDTH 729 0
DWIDTH 35 0
BBX 31 31 2 0
BITMAP
001FE000
007FFC00
01F01F00
07C00780
0F0001E0
1E0000E0
1C03F070
381FFE38
383C7C38
70783C1C
70F01C1C
F0F0181C
E0E0000E
E1E0000E
E1E0000E
E1E0000E
E1E0000E
E1E0000E
E1F0000E
F0F0001E
70F8061C
707E1E1C
387FFC38
381FF038
1C07C070
0E0000E0
0F0001E0
07C00780
01F01F00
007FFC00
001FF000
ENDCHAR
STARTCHAR 00AA
ENCODING 170
SWIDTH 270 0
DWIDTH 13 0
BBX 12 16 1 14
BITMAP
0F00
3F80
63C0
E3C0
83C0
07C0
3FC0
7BC0
F3C0
F3C0
F7E0
FFF0
7380
0000
FFE0
FFE0
ENDCHAR
STARTCHAR 00AB
ENCODING 171
SWIDTH 520 0
DWIDTH 25 0
BBX 20 22 2 0
BITMAP
00C020
01C070
01C0E0
0381E0
0783C0
0F07C0
1F0F80
3E0F80
7E1F00
FC3F00
FC7E00
FC7E00
FC3F00
7E1F00
3E0F80
1F0F80
0F07C0
0783C0
0381E0
01C0E0
00C070
00C020
ENDCHAR
STARTCHAR 00AC
ENCODING 172
SWIDTH 500 0
DWIDTH 24 0
BBX 21 11 2 4
BITMAP
7FFFF8
FFFFF8
FFFFF8
000078
000078
000078
000078
000078
000078
000078
000060
ENDCHAR
STARTCHAR 00AD
ENCODING 173
SWIDTH 354 0
DWIDTH 17 0
BBX 15 3 1 11
BITMAP
7FFE
7FFC
FFFC
ENDCHAR
STARTCHAR 00AE
ENCODING 174
SWIDTH 354 0
DWIDTH 17 0
BBX 17 17 0 17
BITMAP
03E000
0FF800
3C1E00
300600
67E300
633300
C33180
C33180
C3E180
C34180
C36180
632300
633300
379E00
3C1E00
0FF800
03E000
ENDCHAR
STARTCHAR 00AF
ENCODING 175
SWIDTH 500 0
DWIDTH 24 0
BBX 20 4 2 27
BITMAP
7FFFF0
FFFFF0
FFFFE0
FFFFE0
ENDCHAR
STARTCHAR 00B0
ENCODING 176
SWIDTH 354 0
DWIDTH 17 0
BBX 11 13 3 17
BITMAP
0F00
1FC0
3FC0
7BE0
71E0
F1E0
F1E0
F1E0
F1C0
FBC0
7F80
7F00
1E00
ENDCHAR
STARTCHAR 00B1
ENCODING 177
SWIDTH 416 0
DWIDTH 20 0
BBX 18 22 1 3
BITMAP
00E000
01E000
01E000
01E000
01E000
01E000
01E000
7FFFC0
FFFFC0
FFFF80
01E000
01E000
01E000
01E000
01E000
01E000
01C000
000000
000000
7FFFC0
7FFFC0
FFFF80
ENDCHAR
STARTCHAR 00B2
ENCODING 178
SWIDTH 354 0
DWIDTH 17 0
BBX 13 17 2 15
BITMAP
07E0
1FF0
78F8
7878
F878
0078
00F0
00E0
01E0
03C0
0780
0F00
1E08
3C08
7818
FFF8
FFF8
ENDCHAR
STARTCHAR 00B3
ENCODING 179
SWIDTH 354 0
DWIDTH 17 0
BBX 13 18 1 14
BITMAP
07E0
1FF0
3CF8
7878
7C78
0078
00F0
01E0
07F0
05F0
0078
0078
0078
0078
8078
E0F0
7FE0
1F80
ENDCHAR
STARTCHAR 00B4
ENCODING 180
SWIDTH 312 0
DWIDTH 15 0
BBX 11 11 5 24
BITMAP
0F00
0FC0
1FE0
1F80
3F00
3E00
7C00
7800
F000
E000
4000
ENDCHAR
STARTCHAR 00B5
ENCODING 181
SWIDTH 583 0
DWIDTH 28 0
BBX 27 33 1 -11
BITMAP
03000600
FF80FE00
FF807E00
3F807E00
1F807E00
1F807E00
1F807E00
1F807E00
1F807E00
1F807E00
1F807E00
1F807E00
1F807E00
1F807E00
1F807E00
1FC0FE00
1FE3FE00
1FFFFE40
1FFF7FE0
1EFE7FC0
1E7C3F80
1E381C00
1E000000
1E000000
1F000000
1F000000
1F000000
1F000000
1F800000
1F800000
1FC00000
1F000000
18000000
ENDCHAR
STARTCHAR 00B6
ENCODING 182
SWIDTH 604 0
DWIDTH 29 0
BBX 26 36 1 -6
BITMAP
01FFFFC0
07FFFFC0
1FC3FF00
3F03DE00
7E03DE00
7C03DE00
FC03DE00
FC03DE00
FC03DE00
FC03DE00
FC03DE00
7E03DE00
7F03DE00
3F03DE00
1FC3DE00
07FFDE00
01FFDE00
0003DE00
0003DE00
0003DE00
0003DE00
0003DE00
0003DE00
0003DE00
0003DE00
0003DE00
0003DE00
0003DE00
0003DE00
0003DE00
0003DE00
0003DE00
0003DE00
0007FF00
001FFFC0
001FFFC0
ENDCHAR
STARTCHAR 00B7
ENCODING 183
SWIDTH 208 0
DWIDTH 10 0
BBX 7 7 1 13
BITMAP
3C
7E
FE
FE
FE
FC
78
ENDCHAR
STARTCHAR 00B8
ENCODING 184
SWIDTH 229 0
DWIDTH 11 0
BBX 10 10 1 -10
BITMAP
0E00
1C00
1E00
3F80
3FC0
0FC0
0FC0
1F80
FE00
7000
ENDCHAR
STARTCHAR 00B9
ENCODING 185
SWIDTH 354 0
DWIDTH 17 0
BBX 13 17 2 15
BITMAP
0180
0F80
FF80
4780
0780
0780
0780
0780
0780
0780
0780
0780
0780
0780
0780
3FF0
7FF8
ENDCHAR
STARTCHAR 00BA
ENCODING 186
SWIDTH 270 0
DWIDTH 13 0
BBX 11 16 1 14
BITMAP
0F00
3F80
7BC0
71C0
F1E0
F1E0
F1E0
F1E0
F1E0
F1C0
7BC0
3F80
1E00
0000
FFE0
FFE0
ENDCHAR
STARTCHAR 00BB
ENCODING 187
SWIDTH 520 0
DWIDTH 25 0
BBX 20 22 3 0
BITMAP
402000
E07000
703800
781C00
381E00
3C0F00
1E0F80
1F07C0
1F87E0
0FC7F0
0FE3F0
0FE3F0
0FC7F0
1F87E0
1F07C0
1E0F80
3C0F00
381E00
781C00
703800
E03000
406000
ENDCHAR
STARTCHAR 00BC
ENCODING 188
SWIDTH 625 0
DWIDTH 30 0
BBX 27 29 2 0
BITMAP
030001C0
3F000380
FF000780
0F000F00
0F000E00
0F001C00
0F003C00
0F007800
0F007000
0F00F000
0F01E000
0F01C000
1F838000
FFE78000
000F0000
000E0100
001C0F80
003C0F80
00781F80
00703780
00E03780
01E06780
03C0C780
0381C780
0781FFE0
0F03FFC0
1E000780
1C000780
3C003FE0
ENDCHAR
STARTCHAR 00BD
ENCODING 189
SWIDTH 625 0
DWIDTH 30 0
BBX 26 29 2 0
BITMAP
030001C0
3F000780
FF000780
0F000F00
0F001E00
0F003C00
0F003C00
0F007800
0F00F000
0F00E000
0F01E000
0F03C000
1F878000
FFE70000
000F0000
001E3F00
003C7FC0
0038E7C0
0079C3C0
00F183C0
01E00380
01C00700
03C00E00
07801C00
0F003800
0E007040
1E00E040
3C01FFC0
7803FFC0
ENDCHAR
STARTCHAR 00BE
ENCODING 190
SWIDTH 625 0
DWIDTH 30 0
BBX 28 29 1 0
BITMAP
0F8000E0
3FC001C0
73E003C0
F1E00780
81C00700
03800E00
0FC01E00
0FE03C00
01F03800
00F07800
00F0F000
00F0E000
E1E1C000
7FC3C000
1F078000
00070080
000E07C0
001E07C0
003C0BC0
00381BC0
007013C0
00F033C0
01E063C0
01C0E3C0
03C0FFF0
0781FFE0
0F0003C0
0E0003C0
1E001FF0
ENDCHAR
STARTCHAR 00BF
ENCODING 191
SWIDTH 458 0
DWIDTH 22 0
BBX 18 35 2 -13
BITMAP
00F800
01FC00
03FC00
03FC00
03FC00
03F800
01F000
000000
000000
000000
007000
00F000
00F000
00F000
00F000
01F000
01E000
03E000
07C000
0FC000
0F8000
1F0000
3F0000
7E0000
7E0000
FC0000
FC03C0
FC0FC0
FC0FC0
FC0FC0
FC0F80
7E1F80
7F1F00
3FFE00
0FF000
ENDCHAR
STARTCHAR 00C0
ENCODING 192
SWIDTH 625 0
DWIDTH 30 0
BBX 30 42 0 0
BITMAP
00200000
00700000
00F80000
01FC0000
01FE0000
00FF0000
003F8000
000FC000
0003E000
0000E000
00004000
00000000
00018000
00078000
000FC000
001FC000
001FE000
001FE000
003FE000
003FF000
003BF000
0079F000
0079F800
0071F800
00F0FC00
00F0FC00
00E0FC00
01E07E00
01E07E00
01C07E00
03FFFF00
03FFFF00
03801F00
07801F80
07001F80
07000FC0
0F000FC0
0E000FC0
0E0007E0
1E0007E0
FFC03FFC
FFC03FFC
ENDCHAR
STARTCHAR 00C1
ENCODING 193
SWIDTH 625 0
DWIDTH 30 0
BBX 30 42 0 0
BITMAP
00002000
00003000
00007C00
0000FE00
0001FE00
0003F800
0007E000
000F8000
001F0000
003C0000
00100000
00000000
00018000
00078000
000FC000
001FC000
001FE000
001FE000
003FE000
003FF000
003BF000
0079F000
0079F800
0071F800
00F0FC00
00F0FC00
00E0FC00
01E07E00
01E07E00
01C07E00
03FFFF00
03FFFF00
03801F00
07801F80
07001F80
07000FC0
0F000FC0
0E000FC0
0E0007E0
1E0007E0
FFC03FFC
FFC03FFC
ENDCHAR
STARTCHAR 00C2
ENCODING 194
SWIDTH 625 0
DWIDTH 30 0
BBX 30 41 0 0
BITMAP
00070000
00078000
000FC000
001FE000
003FF000
007FF800
00F8F800
01F03C00
01C00E00
01000800
00000000
00018000
00078000
000FC000
001FC000
001FE000
001FE000
003FE000
003FF000
003BF000
0079F000
0079F800
0071F800
00F0FC00
00F0FC00
00E0FC00
01E07E00
01E07E00
01C07E00
03FFFF00
03FFFF00
03801F00
07801F80
07001F80
07000FC0
0F000FC0
0E000FC0
0E0007E0
1E0007E0
FFC03FFC
FFC03FFC
ENDCHAR
STARTCHAR 00C3
ENCODING 195
SWIDTH 625 0
DWIDTH 30 0
BBX 30 40 0 0
BITMAP
00100400
007F0700
00FFFE00
01FFFE00
01FFFC00
03FFF800
0303F000
02004000
00000000
00000000
00018000
00078000
000FC000
001FC000
001FE000
001FE000
003FE000
003FF000
003BF000
0079F000
0079F800
0071F800
00F0FC00
00F0FC00
00E0FC00
01E07E00
01E07E00
01C07E00
03FFFF00
03FFFF00
03801F00
07801F80
07001F80
07000FC0
0F000FC0
0E000FC0
0E0007E0
1E0007E0
FFC03FFC
FFC03FFC
ENDCHAR
STARTCHAR 00C4
ENCODING 196
SWIDTH 625 0
DWIDTH 30 0
BBX 30 40 0 0
BITMAP
00401000
00F03C00
01F87E00
01F87E00
01F87E00
01F07C00
01F07C00
00402000
00000000
00000000
00018000
00078000
000FC000
001FC000
001FE000
001FE000
003FE000
003FF000
003BF000
0079F000
0079F800
0071F800
00F0FC00
00F0FC00
00E0FC00
01E07E00
01E07E00
01C07E00
03FFFF00
03FFFF00
03801F00
07801F80
07001F80
07000FC0
0F000FC0
0E000FC0
0E0007E0
1E0007E0
FFC03FFC
FFC03FFC
ENDCHAR
STARTCHAR 00C5
ENCODING 197
SWIDTH 625 0
DWIDTH 30 0
BBX 30 42 0 0
BITMAP
00010000
000FE000
001FE000
001CF000
003CF000
003CF000
003CE000
003FE000
001F8000
00040000
00000000
00000000
00018000
00078000
000FC000
001FC000
001FE000
001FE000
003FE000
003FF000
003BF000
0079F000
0079F800
0071F800
00F0FC00
00F0FC00
00E0FC00
01E07E00
01E07E00
01C07E00
03FFFF00
03FFFF00
03801F00
07801F80
07001F80
07000FC0
0F000FC0
0E000FC0
0E0007E0
1E0007E0
FFC03FFC
FFC03FFC
ENDCHAR
STARTCHAR 00C6
ENCODING 198
SWIDTH 812 0
DWIDTH 39 0
BBX 38 30 0 0
BITMAP
007FFFFFF0
007FFFFFF8
000FFF0070
0007FF0070
000F3F0070
000F3F0030
000F3F0030
001E3F0030
001E3F0000
003C3F0000
003C3F0000
003C3F0000
00783F0000
007FFFFFC0
00FFFFFF80
00F03F0180
00E03F0000
01E03F0000
01E03F0000
03C03F0000
03C03F0000
03803F0000
07803F0000
07803F000C
0F003F000C
0F003F001C
0E003F001C
1F007F807C
FFC1FFFFF8
FFC1FFFFF8
ENDCHAR
STARTCHAR 00C7
ENCODING 199
SWIDTH 562 0
DWIDTH 27 0
BBX 24 40 1 -10
BITMAP
001FE0
00FFFC
01FFFE
07E0FE
0FC07E
1F803C
1F001C
3E0000
3E0000
7E0000
7C0000
7C0000
FC0000
FC0000
FC0000
FC0000
FC0000
FC0000
FC0000
FC0000
FE0000
7E0000
7F0000
3F8002
3F8007
1FE00F
0FFCFE
07FFF8
03FFF0
00FFC0
001E00
001C00
001F00
003FC0
003FC0
000FC0
000F80
001F80
00FE00
007000
ENDCHAR
STARTCHAR 00C8
ENCODING 200
SWIDTH 520 0
DWIDTH 25 0
BBX 23 42 1 0
BITMAP
010000
038000
0FC000
0FE000
1FF000
07F800
01FC00
007E00
001F00
000700
000200
000000
FFFFF8
FFFFFC
3F8038
1F8038
1F8018
1F8018
1F8018
1F8018
1F8000
1F8000
1F8000
1F8000
1F8000
1FFFE0
1FFFE0
1F80C0
1F8000
1F8000
1F8000
1F8000
1F8000
1F8000
1F8000
1F8006
1F8006
1F800E
1F800E
3FC01E
FFFFFE
FFFFFC
ENDCHAR
STARTCHAR 00C9
ENCODING 201
SWIDTH 520 0
DWIDTH 25 0
BBX 23 42 1 0
BITMAP
000200
000380
0007E0
000FF0
001FF0
003FC0
007F00
00FC00
01F000
01C000
010000
000000
FFFFF8
FFFFFC
3F8038
1F8038
1F8018
1F8018
1F8018
1F8018
1F8000
1F8000
1F8000
1F8000
1F8000
1FFFE0
1FFFE0
1F80C0
1F8000
1F8000
1F8000
1F8000
1F8000
1F8000
1F8000
1F8006
1F8006
1F800E
1F800E
3FC01E
FFFFFE
FFFFFC
ENDCHAR
STARTCHAR 00CA
ENCODING 202
SWIDTH 520 0
DWIDTH 25 0
BBX 23 41 1 0
BITMAP
003800
007C00
00FE00
00FF00
01FF00
03FF80
07C7C0
0F01E0
0E00E0
080040
000000
FFFFF8
FFFFFC
3F8038
1F8038
1F8018
1F8018
1F8018
1F8018
1F8000
1F8000
1F8000
1F8000
1F8000
1FFFE0
1FFFE0
1F80C0
1F8000
1F8000
1F8000
1F8000
1F8000
1F8000
1F8000
1F8006
1F8006
1F800E
1F800E
3FC01E
FFFFFE
FFFFFC
ENDCHAR
STARTCHAR 00CB
ENCODING 203
SWIDTH 520 0
DWIDTH 25 0
BBX 23 40 1 0
BITMAP
020080
0781E0
0FC3F0
0FC3F0
0FC3F0
0F83E0
0F03C0
040100
000000
000000
FFFFF8
FFFFFC
3F8038
1F8038
1F8018
1F8018
1F8018
1F8018
1F8000
1F8000
1F8000
1F8000
1F8000
1FFFE0
1FFFE0
1F80C0
1F8000
1F8000
1F8000
1F8000
1F8000
1F8000
1F8000
1F8006
1F8006
1F800E
1F800E
3FC01E
FFFFFE
FFFFFC
ENDCHAR
STARTCHAR 00CC
ENCODING 204
SWIDTH 333 0
DWIDTH 16 0
BBX 15 42 -1 0
BITMAP
0800
1C00
3E00
7F00
7F80
BFC0
0FE0
03F0
00F8
0038
0010
0000
1FFE
1FFE
07F8
03F0
03F0
03F0
03F0
03F0
03F0
03F0
03F0
03F0
03F0
03F0
03F0
03F0
03F0
03F0
03F0
03F0
03F0
03F0
03F0
03F0
03F0
03F0
03F0
07F8
1FFE
1FFE
ENDCHAR
STARTCHAR 00CD
ENCODING 205
SWIDTH 333 0
DWIDTH 16 0
BBX 14 42 2 0
BITMAP
0080
00E0
01F8
03FC
07FC
0FF0
1FC0
3F00
7C00
7000
2000
0000
FFF0
FFF0
3FC0
1F80
1F80
1F80
1F80
1F80
1F80
1F80
1F80
1F80
1F80
1F80
1F80
1F80
1F80
1F80
1F80
1F80
1F80
1F80
1F80
1F80
1F80
1F80
1F80
3FC0
FFF0
FFF0
ENDCHAR
STARTCHAR 00CE
ENCODING 206
SWIDTH 333 0
DWIDTH 16 0
BBX 16 41 0 0
BITMAP
0380
07C0
0FE0
0FF0
1FF0
3FF8
7C7C
F01E
E00F
8004
0000
3FFC
3FFC
0FF0
07E0
07E0
07E0
07E0
07E0
07E0
07E0
07E0
07E0
07E0
07E0
07E0
07E0
07E0
07E0
07E0
07E0
07E0
07E0
07E0
07E0
07E0
07E0
07E0
0FF0
3FFC
3FFC
ENDCHAR
STARTCHAR 00CF
ENCODING 207
SWIDTH 333 0
DWIDTH 16 0
BBX 16 40 0 0
BITMAP
2008
781E
FC3F
FC3F
FC3F
F83E
F03C
4010
0000
0000
3FFC
3FFC
0FF0
07E0
07E0
07E0
07E0
07E0
07E0
07E0
07E0
07E0
07E0
07E0
07E0
07E0
07E0
07E0
07E0
07E0
07E0
07E0
07E0
07E0
07E0
07E0
07E0
0FF0
3FFC
3FFC
ENDCHAR
STARTCHAR 00D0
ENCODING 208
SWIDTH 645 0
DWIDTH 31 0
BBX 29 30 0 0
BITMAP
03FFC000
FFFFF800
7FC0FE00
8FC03F80
0FC01FC0
0FC00FC0
0FC007E0
0FC007F0
0FC003F0
0FC003F0
0FC003F8
0FC001F8
0FC001F8
7FFF01F8
FFFF01F8
0FC001F8
0FC001F8
0FC001F8
0FC001F8
0FC001F0
0FC003F0
0FC003F0
0FC007E0
0FC007E0
0FC00FC0
0FC01F80
0FC03F00
1FE0FE00
7FFFF800
7FFFC000
ENDCHAR
STARTCHAR 00D1
ENCODING 209
SWIDTH 666 0
DWIDTH 32 0
BBX 30 40 1 0
BITMAP
00100400
007F0700
00FFFF00
00FFFE00
01FFFC00
03FFFC00
0303F800
02004000
00000000
00000000
FF000FFC
FF800FFC
3FC003F0
1FC001E0
1FE001E0
1FF001E0
1FF001E0
1FF801E0
1FFC01E0
1EFE01E0
1E7E01E0
1E3F01E0
1E3F81E0
1E1F81E0
1E0FC1E0
1E07E1E0
1E07E1E0
1E03F1E0
1E01F9E0
1E01FDE0
1E00FDE0
1E007FE0
1E003FE0
1E003FE0
1E001FE0
1E000FE0
1E0007E0
3F0007E0
FFC003E0
FFC000E0
ENDCHAR
STARTCHAR 00D2
ENCODING 210
SWIDTH 625 0
DWIDTH 30 0
BBX 27 42 1 0
BITMAP
00400000
00E00000
01F00000
03F80000
03FC0000
01FE0000
007F0000
001F8000
0007C000
0001C000
00008000
00000000
001FC000
00FFF000
03E1FC00
07807E00
0F003F00
1F001F00
1E001F80
3E000F80
7E000FC0
7C000FC0
7C0007E0
FC0007E0
FC0007E0
FC0007E0
FC0007E0
FC0007E0
FC0007E0
FC0007E0
FC0007E0
FE0007C0
7E000FC0
7E000F80
7F000F80
3F001F00
1F801F00
1FC03E00
0FF0FC00
07FFF000
01FFE000
007F0000
ENDCHAR
STARTCHAR 00D3
ENCODING 211
SWIDTH 625 0
DWIDTH 30 0
BBX 27 42 1 0
BITMAP
00004000
00006000
0000F800
0001FC00
0003FC00
0007F000
000FC000
001F8000
003E0000
00780000
00200000
00000000
001FC000
00FFF000
03E1FC00
07807E00
0F003F00
1F001F00
1E001F80
3E000F80
7E000FC0
7C000FC0
7C0007E0
FC0007E0
FC0007E0
FC0007E0
FC0007E0
FC0007E0
FC0007E0
FC0007E0
FC0007E0
FE0007C0
7E000FC0
7E000F80
7F000F80
3F001F00
1F801F00
1FC03E00
0FF0FC00
07FFF000
01FFE000
007F0000
ENDCHAR
STARTCHAR 00D4
ENCODING 212
SWIDTH 625 0
DWIDTH 30 0
BBX 27 41 1 0
BITMAP
00060000
000F0000
001F8000
003FC000
007FE000
00FFF000
01F9F800
03E07800
03801C00
02000800
00000000
001FC000
00FFF000
03E1FC00
07807E00
0F003F00
1F001F00
1E001F80
3E000F80
7E000FC0
7C000FC0
7C0007E0
FC0007E0
FC0007E0
FC0007E0
FC0007E0
FC0007E0
FC0007E0
FC0007E0
FC0007E0
FE0007C0
7E000FC0
7E000F80
7F000F80
3F001F00
1F801F00
1FC03E00
0FF0FC00
07FFF000
01FFE000
007F0000
ENDCHAR
STARTCHAR 00D5
ENCODING 213
SWIDTH 625 0
DWIDTH 30 0
BBX 27 40 1 0
BITMAP
00200800
00FE0E00
01FFFE00
01FFFC00
03FFF800
07FFF800
0607F000
02008000
00000000
00000000
001FC000
00FFF000
03E1FC00
07807E00
0F003F00
1F001F00
1E001F80
3E000F80
7E000FC0
7C000FC0
7C0007E0
FC0007E0
FC0007E0
FC0007E0
FC0007E0
FC0007E0
FC0007E0
FC0007E0
FC0007E0
FE0007C0
7E000FC0
7E000F80
7F000F80
3F001F00
1F801F00
1FC03E00
0FF0FC00
07FFF000
01FFE000
007F0000
ENDCHAR
STARTCHAR 00D6
ENCODING 214
SWIDTH 625 0
DWIDTH 30 0
BBX 27 40 1 0
BITMAP
00802000
01F07C00
01F07C00
03F0FC00
03F0FC00
03F0FC00
03E0F800
00802000
00000000
00000000
001FC000
00FFF000
03E1FC00
07807E00
0F003F00
1F001F00
1E001F80
3E000F80
7E000FC0
7C000FC0
7C0007E0
FC0007E0
FC0007E0
FC0007E0
FC0007E0
FC0007E0
FC0007E0
FC0007E0
FC0007E0
FE0007C0
7E000FC0
7E000F80
7F000F80
3F001F00
1F801F00
1FC03E00
0FF0FC00
07FFF000
01FFE000
007F0000
ENDCHAR
STARTCHAR 00D7
ENCODING 215
SWIDTH 416 0
DWIDTH 20 0
BBX 16 15 2 6
BITMAP
6006
F00F
781F
3C3E
1E7C
0FF8
07F0
03C0
07E0
0FF8
1E7C
3C3E
781F
F00F
6006
ENDCHAR
STARTCHAR 00D8
ENCODING 216
SWIDTH 625 0
DWIDTH 30 0
BBX 27 31 1 -1
BITMAP
001FC3E0
00FFF7C0
03E1FF80
07807F00
0F003F00
1F003F80
1E007F80
3E00FFC0
7E00FFC0
7C01FFC0
7C03EFE0
FC03E7E0
FC07C7E0
FC0F87E0
FC0F07E0
FC1F07E0
FC3E07E0
FC3C07E0
FC7807C0
FEF807C0
7FF00FC0
7FE00F80
7FC00F80
3F801F00
3F801F00
1FC03E00
1FF0FC00
3FFFF000
79FFE000
F87F0000
C0000000
ENDCHAR
STARTCHAR 00D9
ENCODING 217
SWIDTH 666 0
DWIDTH 32 0
BBX 29 42 1 0
BITMAP
00200000
00300000
00F80000
01FC0000
01FE0000
007F0000
001F8000
000FC000
0003E000
0000F000
00004000
00000000
FFF01FF8
FFF01FF8
3FC007E0
1F8003C0
1F8003C0
1F8003C0
1F8003C0
1F8003C0
1F8003C0
1F8003C0
1F8003C0
1F8003C0
1F8003C0
1F8003C0
1F8003C0
1F8003C0
1F8003C0
1F8003C0
1F8003C0
1F8003C0
1F8003C0
1F800380
1FC00780
0FC00780
0FE00700
07E00F00
03F83E00
01FFFC00
00FFF000
001FC000
ENDCHAR
STARTCHAR 00DA
ENCODING 218
SWIDTH 666 0
DWIDTH 32 0
BBX 29 42 1 0
BITMAP
00002000
00003800
00007C00
0000FE00
0001FE00
0003FC00
0007F000
000FC000
001F0000
001C0000
00100000
00000000
FFF01FF8
FFF01FF8
3FC007E0
1F8003C0
1F8003C0
1F8003C0
1F8003C0
1F8003C0
1F8003C0
1F8003C0
1F8003C0
1F8003C0
1F8003C0
1F8003C0
1F8003C0
1F8003C0
1F8003C0
1F8003C0
1F8003C0
1F8003C0
1F8003C0
1F800380
1FC00780
0FC00780
0FE00700
07E00F00
03F83E00
01FFFC00
00FFF000
001FC000
ENDCHAR
STARTCHAR 00DB
ENCODING 219
SWIDTH 666 0
DWIDTH 32 0
BBX 29 41 1 0
BITMAP
00038000
00078000
000FC000
001FE000
003FF000
007FF800
007C7C00
00F03E00
01C00E00
00800400
00000000
FFF01FF8
FFF01FF8
3FC007E0
1F8003C0
1F8003C0
1F8003C0
1F8003C0
1F8003C0
1F8003C0
1F8003C0
1F8003C0
1F8003C0
1F8003C0
1F8003C0
1F8003C0
1F8003C0
1F8003C0
1F8003C0
1F8003C0
1F8003C0
1F8003C0
1F800380
1FC00780
0FC00780
0FE00700
07E00F00
03F83E00
01FFFC00
00FFF000
001FC000
ENDCHAR
STARTCHAR 00DC
ENCODING 220
SWIDTH 666 0
DWIDTH 32 0
BBX 29 40 1 0
BITMAP
00200800
00F83E00
00F83E00
01F87E00
01F87E00
01F87E00
00F03C00
00401000
00000000
00000000
FFF01FF8
FFF01FF8
3FC007E0
1F8003C0
1F8003C0
1F8003C0
1F8003C0
1F8003C0
1F8003C0
1F8003C0
1F8003C0
1F8003C0
1F8003C0
1F8003C0
1F8003C0
1F8003C0
1F8003C0
1F8003C0
1F8003C0
1F8003C0
1F8003C0
1F800380
1FC00780
0FC00780
0FE00700
07E00F00
03F83E00
01FFFC00
00FFF000
001FC000
ENDCHAR
STARTCHAR 00DD
ENCODING 221
SWIDTH 604 0
DWIDTH 29 0
BBX 29 42 0 0
BITMAP
00002000
00003000
00007C00
0001FE00
0003FE00
0007F800
000FE000
001F8000
003E0000
003C0000
00100000
00000000
7F001FF8
FF801FF8
1FC003C0
0FC00380
07E00780
03F00700
03F00F00
01F80E00
01F81E00
00FC1C00
007C3C00
007E3800
003F7800
003FF000
001FF000
001FE000
000FE000
000FC000
000FC000
000FC000
000FC000
000FC000
000FC000
000FC000
000FC000
000FC000
000FC000
001FE000
00FFFC00
00FFFC00
ENDCHAR
STARTCHAR 00DE
ENCODING 222
SWIDTH 562 0
DWIDTH 27 0
BBX 24 30 1 0
BITMAP
FFF800
FFF800
3FC000
1F8000
1F8000
1F8000
1FFF80
1FFFF0
1F83F8
1F80FC
1F807E
1F807F
1F803F
1F803F
1F803F
1F803F
1F803F
1F803E
1F807E
1F80FC
1F81F8
1FBFF0
1FBF80
1F8000
1F8000
1F8000
1F8000
3FC000
FFF800
FFF800
ENDCHAR
STARTCHAR 00DF
ENCODING 223
SWIDTH 645 0
DWIDTH 31 0
BBX 28 36 1 0
BITMAP
0007F000
003FFC00
00FFFE00
01F0FF00
03E03F80
07C01F80
07C01FC0
0F800FC0
0F800FC0
1F800FC0
1F800FC0
1F801F80
1F803F00
1F807E00
1F81F800
1F87E000
1F878000
1F8F8000
1F8F8000
1F8FC000
1F8FE000
1F87F800
1F87FE00
1F83FF80
1F80FFC0
1F803FE0
1F801FF0
1F8007F0
1F8C03F0
1F8E01F0
1F8E01F0
1F8E01F0
1F8F01E0
3F8FC3C0
FF8FFF80
FF81FE00
ENDCHAR
STARTCHAR 00E0
ENCODING 224
SWIDTH 500 0
DWIDTH 24 0
BBX 23 35 1 0
BITMAP
01C000
0FC000
0FE000
07F000
03F000
01F800
00F800
007C00
003C00
001E00
000C00
000000
000000
00FF00
0FFF80
1F0FC0
3E07E0
7E07E0
FC07E0
6007E0
0007E0
001FE0
01FFE0
07FFE0
1FE7E0
3F87E0
3F07E0
7E07E0
7E07E0
7E07E0
7E1FE4
7F3FFC
3FF7FE
3FE7F0
0F8380
ENDCHAR
STARTCHAR 00E1
ENCODING 225
SWIDTH 500 0
DWIDTH 24 0
BBX 23 35 1 0
BITMAP
000F00
000FC0
001FE0
001F80
003F00
003E00
007C00
007800
00F000
00E000
00C000
000000
000000
00FF00
0FFF80
1F0FC0
3E07E0
7E07E0
FC07E0
6007E0
0007E0
001FE0
01FFE0
07FFE0
1FE7E0
3F87E0
3F07E0
7E07E0
7E07E0
7E07E0
7E1FE4
7F3FFC
3FF7FE
3FE7F0
0F8380
ENDCHAR
STARTCHAR 00E2
ENCODING 226
SWIDTH 500 0
DWIDTH 24 0
BBX 23 35 1 0
BITMAP
007800
00FC00
00FC00
01FE00
03FF00
03FF00
07CF80
0F87C0
0F01C0
1C00E0
080040
000000
000000
00FF00
0FFF80
1F0FC0
3E07E0
7E07E0
FC07E0
6007E0
0007E0
001FE0
01FFE0
07FFE0
1FE7E0
3F87E0
3F07E0
7E07E0
7E07E0
7E07E0
7E1FE4
7F3FFC
3FF7FE
3FE7F0
0F8380
ENDCHAR
STARTCHAR 00E3
ENCODING 227
SWIDTH 500 0
DWIDTH 24 0
BBX 23 33 1 0
BITMAP
03C030
07F030
0FFC60
1FFFE0
1FFFC0
387F80
300F00
000000
000000
000000
000000
00FF00
0FFF80
1F0FC0
3E07E0
7E07E0
FC07E0
6007E0
0007E0
001FE0
01FFE0
07FFE0
1FE7E0
3F87E0
3F07E0
7E07E0
7E07E0
7E07E0
7E1FE4
7F3FFC
3FF7FE
3FE7F0
0F8380
ENDCHAR
STARTCHAR 00E4
ENCODING 228
SWIDTH 500 0
DWIDTH 24 0
BBX 23 33 1 0
BITMAP
0701C0
0F83E0
1F87E0
1F87E0
1F87E0
1F07C0
0E0380
000000
000000
000000
000000
00FF00
0FFF80
1F0FC0
3E07E0
7E07E0
FC07E0
6007E0
0007E0
001FE0
01FFE0
07FFE0
1FE7E0
3F87E0
3F07E0
7E07E0
7E07E0
7E07E0
7E1FE4
7F3FFC
3FF7FE
3FE7F0
0F8380
ENDCHAR
STARTCHAR 00E5
ENCODING 229
SWIDTH 500 0
DWIDTH 24 0
BBX 23 34 1 0
BITMAP
003C00
00FE00
01EF00
03CF00
03CF00
03CF00
03EE00
01FC00
00F800
000000
000000
000000
00FF00
0FFF80
1F0FC0
3E07E0
7E07E0
FC07E0
6007E0
0007E0
001FE0
01FFE0
07FFE0
1FE7E0
3F87E0
3F07E0
7E07E0
7E07E0
7E07E0
7E1FE4
7F3FFC
3FF7FE
3FE7F0
0F8380
ENDCHAR
STARTCHAR 00E6
ENCODING 230
SWIDTH 729 0
DWIDTH 35 0
BBX 33 22 1 0
BITMAP
003F03E000
01FF9FF800
07FFFC3E00
0F87F81E00
1F03F01F00
3F03F00F00
7F03E00F80
7803E00F80
0003E00F80
007FFFFF80
03FFFFFE00
0FC3E00000
3F03E00000
7E03E00000
7C03F00000
FC03F00100
FC07F80700
FE1FFC1F00
FFFCFFFE00
7FF87FFC00
7FE03FF000
1F800FC000
ENDCHAR
STARTCHAR 00E7
ENCODING 231
SWIDTH 458 0
DWIDTH 22 0
BBX 20 32 2 -10
BITMAP
007F80
01FFF0
0787E0
0F03E0
1E01E0
3E00C0
7C00C0
7C0000
FC0000
FC0000
FC0000
FC0000
FC0000
FC0000
FE0000
7E0000
7F0060
7F81E0
3FFFC0
1FFF80
0FFE00
03FC00
00F000
00E000
00FC00
01FE00
00FE00
007E00
007C00
00FC00
03F000
018000
ENDCHAR
STARTCHAR 00E8
ENCODING 232
SWIDTH 479 0
DWIDTH 23 0
BBX 19 35 2 0
BITMAP
038000
0FC000
1FE000
07E000
03F000
01F000
00F800
007800
003C00
001C00
000800
000000
000000
00FC00
07FF00
0F1F80
1E0F80
3E0FC0
7C07C0
7C07E0
7C07E0
FC07E0
FFFFE0
FFFF80
FC0000
FC0000
FC0000
FE0000
7E0040
7F00E0
3F83C0
3FFF80
1FFF00
0FFE00
03F800
ENDCHAR
STARTCHAR 00E9
ENCODING 233
SWIDTH 479 0
DWIDTH 23 0
BBX 19 35 2 0
BITMAP
000E00
001FC0
001FC0
003F80
003F00
007E00
007C00
00F800
00F000
01E000
00C000
000000
000000
00FC00
07FF00
0F1F80
1E0F80
3E0FC0
7C07C0
7C07E0
7C07E0
FC07E0
FFFFE0
FFFF80
FC0000
FC0000
FC0000
FE0000
7E0040
7F00E0
3F83C0
3FFF80
1FFF00
0FFE00
03F800
ENDCHAR
STARTCHAR 00EA
ENCODING 234
SWIDTH 479 0
DWIDTH 23 0
BBX 19 35 2 0
BITMAP
007800
00F800
01FC00
01FE00
03FE00
07FF00
0FDF80
0F0780
1E03C0
3C01E0
180040
000000
000000
00FC00
07FF00
0F1F80
1E0F80
3E0FC0
7C07C0
7C07E0
7C07E0
FC07E0
FFFFE0
FFFF80
FC0000
FC0000
FC0000
FE0000
7E0040
7F00E0
3F83C0
3FFF80
1FFF00
0FFE00
03F800
ENDCHAR
STARTCHAR 00EB
ENCODING 235
SWIDTH 479 0
DWIDTH 23 0
BBX 19 33 2 0
BITMAP
0F03C0
1F07C0
1F87E0
1F87E0
1F07C0
1F07C0
0E0380
000000
000000
000000
000000
00FC00
07FF00
0F1F80
1E0F80
3E0FC0
7C07C0
7C07E0
7C07E0
FC07E0
FFFFE0
FFFF80
FC0000
FC0000
FC0000
FE0000
7E0040
7F00E0
3F83C0
3FFF80
1FFF00
0FFE00
03F800
ENDCHAR
STARTCHAR 00EC
ENCODING 236
SWIDTH 291 0
DWIDTH 14 0
BBX 13 35 0 0
BITMAP
1C00
7E00
FE00
7F00
1F00
0F80
0780
03C0
01C0
00E0
0040
0000
0000
01C0
3FC0
7FC0
3FC0
0FC0
0FC0
0FC0
0FC0
0FC0
0FC0
0FC0
0FC0
0FC0
0FC0
0FC0
0FC0
0FC0
0FC0
0FC0
1FE0
7FF8
7FF8
ENDCHAR
STARTCHAR 00ED
ENCODING 237
SWIDTH 291 0
DWIDTH 14 0
BBX 14 35 1 0
BITMAP
00E0
01FC
01FC
03F8
03F0
07E0
07C0
0F80
0F00
1E00
0800
0000
0000
0380
7F80
FF80
7F80
1F80
1F80
1F80
1F80
1F80
1F80
1F80
1F80
1F80
1F80
1F80
1F80
1F80
1F80
1F80
3FC0
FFF0
FFF0
ENDCHAR
STARTCHAR 00EE
ENCODING 238
SWIDTH 291 0
DWIDTH 14 0
BBX 16 35 -1 0
BITMAP
03C0
03E0
07F0
0FF0
0FF8
1FFC
3E7C
3C1E
780F
F007
4003
0000
0000
00E0
1FE0
3FE0
1FE0
07E0
07E0
07E0
07E0
07E0
07E0
07E0
07E0
07E0
07E0
07E0
07E0
07E0
07E0
07E0
0FF0
3FFC
3FFC
ENDCHAR
STARTCHAR 00EF
ENCODING 239
SWIDTH 291 0
DWIDTH 14 0
BBX 16 33 -1 0
BITMAP
380E
7C1F
7C1F
FC3F
FC3F
7C1F
781E
0000
0000
0000
0000
00E0
1FE0
3FE0
1FE0
07E0
07E0
07E0
07E0
07E0
07E0
07E0
07E0
07E0
07E0
07E0
07E0
07E0
07E0
07E0
0FF0
3FFC
3FFC
ENDCHAR
STARTCHAR 00F0
ENCODING 240
SWIDTH 520 0
DWIDTH 25 0
BBX 21 34 2 0
BITMAP
01C000
0FE000
3FF0F8
1FFFF8
00FFC0
007E00
01FF00
07EF80
1F8F80
0207C0
0003E0
0003E0
01FBF0
07FDF0
0FFFF0
1F0FF8
3E07F8
3E03F8
7C03F8
7C01F8
FC01F8
FC01F8
FC01F8
FC01F8
FC01F0
FC01F0
FC01F0
7E03E0
7E03E0
3F03C0
3F0780
1F8F00
07FE00
01F800
ENDCHAR
STARTCHAR 00F1
ENCODING 241
SWIDTH 583 0
DWIDTH 28 0
BBX 26 33 1 0
BITMAP
00F00C00
01FC0C00
03FF1C00
03FFF800
07FFF000
0E1FE000
0C03C000
00000000
00000000
00000000
00000000
0301F000
7F87FC00
FF9FFC00
3FBFFE00
1FF8FE00
1FE07E00
1FC07E00
1F807E00
1F807E00
1F807E00
1F807E00
1F807E00
1F807E00
1F807E00
1F807E00
1F807E00
1F807E00
1F807E00
1F807E00
3FC0FF00
FFF3FFC0
FFF3FFC0
ENDCHAR
STARTCHAR 00F2
ENCODING 242
SWIDTH 520 0
DWIDTH 25 0
BBX 21 35 2 0
BITMAP
01C000
0FE000
0FE000
07F000
03F000
01F800
00F800
007C00
003C00
001E00
000C00
000000
000000
00FC00
03FF00
0F0FC0
1E07E0
3E07E0
3E03F0
7C03F0
7C01F8
FC01F8
FC01F8
FC01F8
FC01F8
FC01F8
FC01F8
FC01F0
7E01F0
7E03E0
3E03E0
3F03C0
1F8780
07FE00
01F800
ENDCHAR
STARTCHAR 00F3
ENCODING 243
SWIDTH 520 0
DWIDTH 25 0
BBX 21 35 2 0
BITMAP
000F00
000FC0
001FE0
001F80
003F00
003E00
007C00
007800
00F000
00E000
00C000
000000
000000
00FC00
03FF00
0F0FC0
1E07E0
3E07E0
3E03F0
7C03F0
7C01F8
FC01F8
FC01F8
FC01F8
FC01F8
FC01F8
FC01F8
FC01F0
7E01F0
7E03E0
3E03E0
3F03C0
1F8780
07FE00
01F800
ENDCHAR
STARTCHAR 00F4
ENCODING 244
SWIDTH 520 0
DWIDTH 25 0
BBX 21 35 2 0
BITMAP
007800
00FC00
00FC00
01FE00
03FF00
03FF00
07CF80
0F87C0
0F01C0
1C00E0
080040
000000
000000
00FC00
03FF00
0F0FC0
1E07E0
3E07E0
3E03F0
7C03F0
7C01F8
FC01F8
FC01F8
FC01F8
FC01F8
FC01F8
FC01F8
FC01F0
7E01F0
7E03E0
3E03E0
3F03C0
1F8780
07FE00
01F800
ENDCHAR
STARTCHAR 00F5
ENCODING 245
SWIDTH 520 0
DWIDTH 25 0
BBX 21 33 2 0
BITMAP
03C030
07F030
0FFC60
1FFFE0
1FFFC0
387F80
300F00
000000
000000
000000
000000
00FC00
03FF00
0F0FC0
1E07E0
3E07E0
3E03F0
7C03F0
7C01F8
FC01F8
FC01F8
FC01F8
FC01F8
FC01F8
FC01F8
FC01F0
7E01F0
7E03E0
3E03E0
3F03C0
1F8780
07FE00
01F800
ENDCHAR
STARTCHAR 00F6
ENCODING 246
SWIDTH 520 0
DWIDTH 25 0
BBX 21 33 2 0
BITMAP
0701C0
0F83E0
1F87E0
1F87E0
1F87E0
1F07C0
0E0380
000000
000000
000000
000000
00FC00
03FF00
0F0FC0
1E07E0
3E07E0
3E03F0
7C03F0
7C01F8
FC01F8
FC01F8
FC01F8
FC01F8
FC01F8
FC01F8
FC01F0
7E01F0
7E03E0
3E03E0
3F03C0
1F8780
07FE00
01F800
ENDCHAR
STARTCHAR 00F7
ENCODING 247
SWIDTH 416 0
DWIDTH 20 0
BBX 18 18 1 4
BITMAP
00C000
01E000
01E000
01E000
01E000
00C000
000000
7FFFC0
7FFFC0
FFFF80
000000
000000
00C000
01E000
01E000
01E000
01E000
00C000
ENDCHAR
STARTCHAR 00F8
ENCODING 248
SWIDTH 520 0
DWIDTH 25 0
BBX 21 24 2 -1
BITMAP
000018
00FC38
03FFF0
0F0FE0
1E07E0
3E03F0
3C07F0
7C0FF0
7C1FF8
FC1DF8
FC39F8
FC79F8
FCF1F8
FCE1F8
FDC1F8
FFC1F0
7F81F0
7F01E0
3E03E0
3F03C0
3F8780
7FFE00
71F800
C00000
ENDCHAR
STARTCHAR 00F9
ENCODING 249
SWIDTH 562 0
DWIDTH 27 0
BBX 26 35 1 0
BITMAP
00E00000
03F00000
07F00000
01F80000
00F80000
007C0000
003E0000
001E0000
000F0000
00070000
00020000
00000000
00000000
03801C00
FF87FC00
FF87FC00
1F80FC00
1F80FC00
1F80FC00
1F80FC00
1F80FC00
1F80FC00
1F80FC00
1F80FC00
1F80FC00
1F80FC00
1F80FC00
1F80FC00
1F80FC00
1F81FC00
1FC7FC80
1FFFFF80
0FFEFFC0
07F87E00
03E07000
ENDCHAR
STARTCHAR 00FA
ENCODING 250
SWIDTH 562 0
DWIDTH 27 0
BBX 26 35 1 0
BITMAP
00038000
0007F000
0007F000
000FE000
000FC000
001F8000
001F0000
003E0000
003C0000
00780000
00300000
00000000
00000000
03801C00
FF87FC00
FF87FC00
1F80FC00
1F80FC00
1F80FC00
1F80FC00
1F80FC00
1F80FC00
1F80FC00
1F80FC00
1F80FC00
1F80FC00
1F80FC00
1F80FC00
1F80FC00
1F81FC00
1FC7FC80
1FFFFF80
0FFEFFC0
07F87E00
03E07000
ENDCHAR
STARTCHAR 00FB
ENCODING 251
SWIDTH 562 0
DWIDTH 27 0
BBX 26 35 1 0
BITMAP
001E0000
003E0000
007F0000
00FF8000
00FF8000
01FFC000
03F7E000
03C1E000
0780F000
0F007000
06003000
00000000
00000000
03801C00
FF87FC00
FF87FC00
1F80FC00
1F80FC00
1F80FC00
1F80FC00
1F80FC00
1F80FC00
1F80FC00
1F80FC00
1F80FC00
1F80FC00
1F80FC00
1F80FC00
1F80FC00
1F81FC00
1FC7FC80
1FFFFF80
0FFEFFC0
07F87E00
03E07000
ENDCHAR
STARTCHAR 00FC
ENCODING 252
SWIDTH 562 0
DWIDTH 27 0
BBX 26 33 1 0
BITMAP
03C0F000
07C1F000
07E1F800
07E1F800
07C1F000
07C1F000
0781E000
00000000
00000000
00000000
00000000
03801C00
FF87FC00
FF87FC00
1F80FC00
1F80FC00
1F80FC00
1F80FC00
1F80FC00
1F80FC00
1F80FC00
1F80FC00
1F80FC00
1F80FC00
1F80FC00
1F80FC00
1F80FC00
1F81FC00
1FC7FC80
1FFFFF80
0FFEFFC0
07F87E00
03E07000
ENDCHAR
STARTCHAR 00FD
ENCODING 253
SWIDTH 500 0
DWIDTH 24 0
BBX 25 46 -1 -11
BITMAP
0001E000
0003F800
0003F800
0003F000
0007E000
0007C000
000F8000
000F0000
001E0000
001C0000
00380000
00000000
00000000
7FF07F80
7FF07F80
1FC01E00
0FC01C00
0FC01C00
07E03C00
07E03800
03F03800
03F07000
01F07000
01F8F000
01F8E000
00FCE000
00FDE000
007DC000
007FC000
007F8000
003F8000
003F8000
001F0000
001F0000
000E0000
000E0000
001E0000
001C0000
003C0000
00780000
20F80000
3FF00000
7FE00000
FFC00000
FF800000
7E000000
ENDCHAR
STARTCHAR 00FE
ENCODING 254
SWIDTH 562 0
DWIDTH 27 0
BBX 24 47 1 -11
BITMAP
030000
3F8000
FF8000
FF8000
1F8000
1F8000
1F8000
1F8000
1F8000
1F8000
1F8000
1F8000
1F8000
1F8000
1F83E0
1F8FF8
1FBFFC
1FFFFC
1FF0FE
1FC07E
1F803F
1F803F
1F801F
1F801F
1F801F
1F801F
1F801F
1F801E
1F801E
1F803E
1FC03C
1FF07C
1FFFF8
1FFFF0
1F9FE0
1F8780
1F8000
1F8000
1F8000
1F8000
1F8000
1F8000
1F8000
1F8000
3FC000
FFF800
FFF800
ENDCHAR
STARTCHAR 00FF
ENCODING 255
SWIDTH 500 0
DWIDTH 24 0
BBX 25 44 -1 -11
BITMAP
00E03800
01F07C00
03F0FC00
03F0FC00
03F0FC00
03E0F800
01C07000
00000000
00000000
00000000
00000000
7FF07F80
7FF07F80
1FC01E00
0FC01C00
0FC01C00
07E03C00
07E03800
03F03800
03F07000
01F07000
01F8F000
01F8E000
00FCE000
00FDE000
007DC000
007FC000
007F8000
003F8000
003F8000
001F0000
001F0000
000E0000
000E0000
001E0000
001C0000
003C0000
00780000
20F80000
3FF00000
7FE00000
FFC00000
FF800000
7E000000
ENDCHAR
STARTCHAR 0100
ENCODING 256
SWIDTH 625 0
DWIDTH 30 0
BBX 30 38 0 0
BITMAP
03FFFF00
03FFFF80
07FFFF80
07FFFF00
03FFFF00
00000000
00000000
00000000
00018000
00078000
000FC000
001FC000
001FE000
001FE000
003FE000
003FF000
003BF000
0079F000
0079F800
0071F800
00F0FC00
00F0FC00
00E0FC00
01E07E00
01E07E00
01C07E00
03FFFF00
03FFFF00
03801F00
07801F80
07001F80
07000FC0
0F000FC0
0E000FC0
0E0007E0
1E0007E0
FFC03FFC
FFC03FFC
ENDCHAR
STARTCHAR 0101
ENCODING 257
SWIDTH 500 0
DWIDTH 24 0
BBX 23 31 1 0
BITMAP
3FFFF8
3FFFF8
3FFFF8
7FFFF0
000000
000000
000000
000000
000000
00FF00
0FFF80
1F0FC0
3E07E0
7E07E0
FC07E0
6007E0
0007E0
001FE0
01FFE0
07FFE0
1FE7E0
3F87E0
3F07E0
7E07E0
7E07E0
7E07E0
7E1FE4
7F3FFC
3FF7FE
3FE7F0
0F8380
ENDCHAR
STARTCHAR 0102
ENCODING 258
SWIDTH 625 0
DWIDTH 30 0
BBX 30 42 0 0
BITMAP
01000800
01800600
01C00E00
01E03E00
00FFFC00
00FFFC00
007FF800
003FF000
001FC000
00020000
00000000
00000000
00018000
00078000
000FC000
001FC000
001FE000
001FE000
003FE000
003FF000
003BF000
0079F000
0079F800
0071F800
00F0FC00
00F0FC00
00E0FC00
01E07E00
01E07E00
01C07E00
03FFFF00
03FFFF00
03801F00
07801F80
07001F80
07000FC0
0F000FC0
0E000FC0
0E0007E0
1E0007E0
FFC03FFC
FFC03FFC
ENDCHAR
STARTCHAR 0103
ENCODING 259
SWIDTH 500 0
DWIDTH 24 0
BBX 23 34 1 0
BITMAP
080040
1C00E0
1E01E0
0F83E0
0FFFC0
07FF80
03FF80
01FE00
00FC00
000000
000000
000000
00FF00
0FFF80
1F0FC0
3E07E0
7E07E0
FC07E0
6007E0
0007E0
001FE0
01FFE0
07FFE0
1FE7E0
3F87E0
3F07E0
7E07E0
7E07E0
7E07E0
7E1FE4
7F3FFC
3FF7FE
3FE7F0
0F8380
ENDCHAR
STARTCHAR 0106
ENCODING 262
SWIDTH 562 0
DWIDTH 27 0
BBX 24 42 1 0
BITMAP
000040
000060
0000F8
0001FC
0003FC
0007F0
000FC0
001F80
003E00
007800
002000
000000
001FE0
00FFFC
01FFFE
07E0FE
0F807E
1F803C
1F001C
3E0000
3E0000
7E0000
7C0000
FC0000
FC0000
FC0000
FC0000
FC0000
FC0000
FC0000
FC0000
FE0000
7E0000
7E0000
7F0000
3F8002
3FC00F
1FF03E
0FFFF8
07FFF0
01FFC0
007F00
ENDCHAR
STARTCHAR 0107
ENCODING 263
SWIDTH 458 0
DWIDTH 22 0
BBX 20 35 1 0
BITMAP
000F00
000FC0
001FE0
001F80
003F00
003E00
007C00
007800
00F000
00E000
00C000
000000
000000
007F80
01FFF0
0787E0
0F03E0
1E01E0
3E00C0
7C00C0
7C0000
FC0000
FC0000
FC0000
FC0000
FC0000
FC0000
FE0000
7E0020
7F0070
3FC1E0
3FFFC0
1FFF80
07FF00
01FC00
ENDCHAR
STARTCHAR 0108
ENCODING 264
SWIDTH 562 0
DWIDTH 27 0
BBX 24 41 1 0
BITMAP
000E00
000F00
001F80
003FC0
007FE0
00FFF0
01F9F0
03E078
03801C
020008
000000
001FE0
00FFFC
01FFFE
07E0FE
0F807E
1F803C
1F001C
3E0000
3E0000
7E0000
7C0000
FC0000
FC0000
FC0000
FC0000
FC0000
FC0000
FC0000
FC0000
FE0000
7E0000
7E0000
7F0000
3F8002
3FC00F
1FF03E
0FFFF8
07FFF0
01FFC0
007F00
ENDCHAR
STARTCHAR 0109
ENCODING 265
SWIDTH 458 0
DWIDTH 22 0
BBX 20 35 1 0
BITMAP
007800
00FC00
00FC00
01FE00
03FF00
03FF00
07CF80
0F87C0
1F03C0
1C00E0
080040
000000
000000
007F80
01FFF0
0787E0
0F03E0
1E01E0
3E00C0
7C00C0
7C0000
FC0000
FC0000
FC0000
FC0000
FC0000
FC0000
FE0000
7E0020
7F0070
3FC1E0
3FFFC0
1FFF80
07FF00
01FC00
ENDCHAR
STARTCHAR 010A
ENCODING 266
SWIDTH 562 0
DWIDTH 27 0
BBX 24 40 1 0
BITMAP
000400
000F80
001F80
001F80
001F80
001F00
001F00
000400
000000
000000
001FE0
00FFFC
01FFFE
07E0FE
0F807E
1F803C
1F001C
3E0000
3E0000
7E0000
7C0000
FC0000
FC0000
FC0000
FC0000
FC0000
FC0000
FC0000
FC0000
FE0000
7E0000
7E0000
7F0000
3F8002
3FC00F
1FF03E
0FFFF8
07FFF0
01FFC0
007F00
ENDCHAR
STARTCHAR 010B
ENCODING 267
SWIDTH 458 0
DWIDTH 22 0
BBX 20 33 1 0
BITMAP
003800
007C00
00FC00
00FC00
00FC00
00F800
007000
000000
000000
000000
000000
007F80
01FFF0
0787E0
0F03E0
1E01E0
3E00C0
7C00C0
7C0000
FC0000
FC0000
FC0000
FC0000
FC0000
FC0000
FE0000
7E0020
7F0070
3FC1E0
3FFFC0
1FFF80
07FF00
01FC00
ENDCHAR
STARTCHAR 010C
ENCODING 268
SWIDTH 562 0
DWIDTH 27 0
BBX 24 42 1 0
BITMAP
020008
03801C
03C038
01F0F8
00F9F0
007FE0
003FC0
001F80
000F00
000F00
000000
000000
001FE0
00FFFC
01FFFE
07E0FE
0F807E
1F803C
1F001C
3E0000
3E0000
7E0000
7C0000
FC0000
FC0000
FC0000
FC0000
FC0000
FC0000
FC0000
FC0000
FE0000
7E0000
7E0000
7F0000
3F8002
3FC00F
1FF03E
0FFFF8
07FFF0
01FFC0
007F00
ENDCHAR
STARTCHAR 010D
ENCODING 269
SWIDTH 458 0
DWIDTH 22 0
BBX 20 35 1 0
BITMAP
080040
1C01E0
0F03C0
0F8780
07CF80
03FF00
01FE00
01FC00
00FC00
007800
000000
000000
000000
007F80
01FFF0
0787E0
0F03E0
1E01E0
3E00C0
7C00C0
7C0000
FC0000
FC0000
FC0000
FC0000
FC0000
FC0000
FE0000
7E0020
7F0070
3FC1E0
3FFFC0
1FFF80
07FF00
01FC00
ENDCHAR
STARTCHAR 010E
ENCODING 270
SWIDTH 645 0
DWIDTH 31 0
BBX 29 42 0 0
BITMAP
02001000
03801800
03C07C00
01F0F000
00FBF000
007FE000
003FC000
001F8000
001F0000
000E0000
00000000
00000000
03FFC000
FFFFF800
7FC0FE00
8FC03F80
0FC01FC0
0FC00FC0
0FC007E0
0FC007F0
0FC003F0
0FC003F0
0FC003F8
0FC001F8
0FC001F8
0FC001F8
0FC001F8
0FC001F8
0FC001F8
0FC001F8
0FC001F8
0FC001F0
0FC003F0
0FC003F0
0FC007E0
0FC007E0
0FC00FC0
0FC01F80
0FC03F00
1FE0FE00
7FFFF800
7FFFC000
ENDCHAR
STARTCHAR 0110
ENCODING 272
SWIDTH 645 0
DWIDTH 31 0
BBX 29 30 0 0
BITMAP
03FFC000
FFFFF800
7FC0FE00
8FC03F80
0FC01FC0
0FC00FC0
0FC007E0
0FC007F0
0FC003F0
0FC003F0
0FC003F8
0FC001F8
0FC001F8
7FFF01F8
FFFF01F8
0FC001F8
0FC001F8
0FC001F8
0FC001F8
0FC001F0
0FC003F0
0FC003F0
0FC007E0
0FC007E0
0FC00FC0
0FC01F80
0FC03F00
1FE0FE00
7FFFF800
7FFFC000
ENDCHAR
STARTCHAR 0111
ENCODING 273
SWIDTH 562 0
DWIDTH 27 0
BBX 25 36 2 0
BITMAP
00003800
000FF800
000FF800
0003F800
0001F800
0001F800
0001F800
00FFFF80
00FFFF00
0001F800
0001F800
0001F800
0001F800
0001F800
00F9F800
07FFF800
0FFFF800
1F87F800
3F03F800
3E01F800
7E01F800
7C01F800
FC01F800
FC01F800
FC01F800
FC01F800
FC01F800
FC01F800
FE01F800
7E01F800
7F03F800
7F87FF00
3FFFFF80
1FFDFE00
0FF8F800
03E0E000
ENDCHAR
STARTCHAR 0112
ENCODING 274
SWIDTH 520 0
DWIDTH 25 0
BBX 23 38 1 0
BITMAP
1FFFF8
1FFFFC
3FFFF8
3FFFF8
1FFFF0
000000
000000
000000
FFFFF8
FFFFFC
3F8038
1F8038
1F8018
1F8018
1F8018
1F8018
1F8000
1F8000
1F8000
1F8000
1F8000
1FFFE0
1FFFE0
1F80C0
1F8000
1F8000
1F8000
1F8000
1F8000
1F8000
1F8000
1F8006
1F8006
1F800E
1F800E
3FC01E
FFFFFE
FFFFFC
ENDCHAR
STARTCHAR 0113
ENCODING 275
SWIDTH 479 0
DWIDTH 23 0
BBX 21 31 2 0
BITMAP
3FFFF8
7FFFF8
7FFFF0
7FFFF0
000000
000000
000000
000000
000000
00FC00
07FF00
0F1F80
1E0F80
3E0FC0
7C07C0
7C07E0
7C07E0
FC07E0
FFFFE0
FFFF80
FC0000
FC0000
FC0000
FE0000
7E0040
7F00E0
3F83C0
3FFF80
1FFF00
0FFE00
03F800
ENDCHAR
STARTCHAR 0114
ENCODING 276
SWIDTH 520 0
DWIDTH 25 0
BBX 23 42 1 0
BITMAP
080040
0C0060
1E00F0
0F01E0
0FFFE0
07FFC0
03FFC0
01FF80
00FE00
001000
000000
000000
FFFFF8
FFFFFC
3F8038
1F8038
1F8018
1F8018
1F8018
1F8018
1F8000
1F8000
1F8000
1F8000
1F8000
1FFFE0
1FFFE0
1F80C0
1F8000
1F8000
1F8000
1F8000
1F8000
1F8000
1F8000
1F8006
1F8006
1F800E
1F800E
3FC01E
FFFFFE
FFFFFC
ENDCHAR
STARTCHAR 0115
ENCODING 277
SWIDTH 479 0
DWIDTH 23 0
BBX 19 34 2 0
BITMAP
100040
3800E0
1C01E0
1F07C0
0FFFC0
0FFF80
07FF00
03FE00
00F800
000000
000000
000000
00FC00
07FF00
0F1F80
1E0F80
3E0FC0
7C07C0
7C07E0
7C07E0
FC07E0
FFFFE0
FFFF80
FC0000
FC0000
FC0000
FE0000
7E0040
7F00E0
3F83C0
3FFF80
1FFF00
0FFE00
03F800
ENDCHAR
STARTCHAR 0116
ENCODING 278
SWIDTH 520 0
DWIDTH 25 0
BBX 23 40 1 0
BITMAP
001000
003C00
007E00
007E00
007E00
007C00
007800
002000
000000
000000
FFFFF8
FFFFFC
3F8038
1F8038
1F8018
1F8018
1F8018
1F8018
1F8000
1F8000
1F8000
1F8000
1F8000
1FFFE0
1FFFE0
1F80C0
1F8000
1F8000
1F8000
1F8000
1F8000
1F8000
1F8000
1F8006
1F8006
1F800E
1F800E
3FC01E
FFFFFE
FFFFFC
ENDCHAR
STARTCHAR 0117
ENCODING 279
SWIDTH 479 0
DWIDTH 23 0
BBX 19 33 2 0
BITMAP
007800
00F800
00FC00
00FC00
00F800
00F800
007000
000000
000000
000000
000000
00FC00
07FF00
0F1F80
1E0F80
3E0FC0
7C07C0
7C07E0
7C07E0
FC07E0
FFFFE0
FFFF80
FC0000
FC0000
FC0000
FE0000
7E0040
7F00E0
3F83C0
3FFF80
1FFF00
0FFE00
03F800
ENDCHAR
STARTCHAR 011A
ENCODING 282
SWIDTH 520 0
DWIDTH 25 0
BBX 23 42 1 0
BITMAP
080040
0E0060
0F01E0
07C3C0
03EF80
01FF80
01FF00
00FE00
007C00
003800
000000
000000
FFFFF8
FFFFFC
3F8038
1F8038
1F8018
1F8018
1F8018
1F8018
1F8000
1F8000
1F8000
1F8000
1F8000
1FFFE0
1FFFE0
1F80C0
1F8000
1F8000
1F8000
1F8000
1F8000
1F8000
1F8000
1F8006
1F8006
1F800E
1F800E
3FC01E
FFFFFE
FFFFFC
ENDCHAR
STARTCHAR 011B
ENCODING 283
SWIDTH 479 0
DWIDTH 23 0
BBX 19 35 2 0
BITMAP
1800C0
1C01E0
1E03C0
0F0780
07DF00
07FF00
03FE00
01FC00
00F800
00F000
000000
000000
000000
00FC00
07FF00
0F1F80
1E0F80
3E0FC0
7C07C0
7C07E0
7C07E0
FC07E0
FFFFE0
FFFF80
FC0000
FC0000
FC0000
FE0000
7E0040
7F00E0
3F83C0
3FFF80
1FFF00
0FFE00
03F800
ENDCHAR
STARTCHAR 011C
ENCODING 284
SWIDTH 604 0
DWIDTH 29 0
BBX 27 41 1 0
BITMAP
00070000
000F8000
001FC000
003FC000
003FE000
007FF000
00F8F800
01E03C00
03C01C00
01000800
00000000
000FF800
007FFF80
01F07F80
03C03F00
07800F00
0F000E00
1F000000
3E000000
3E000000
7E000000
7C000000
7C000000
FC000000
FC000000
FC01FFE0
FC01FFE0
FC007FC0
FC001F80
FC001F80
FE001F80
7E001F80
7F001F80
7F001F80
3F801F80
3FC01F80
1FF03F00
0FFFFE00
07FFFC00
01FFF000
003F8000
ENDCHAR
STARTCHAR 011D
ENCODING 285
SWIDTH 520 0
DWIDTH 25 0
BBX 25 46 0 -11
BITMAP
003C0000
003E0000
007F0000
00FF0000
00FF8000
01FFC000
03E7C000
07C3E000
0780F000
0F007000
04002000
00000000
00000000
007E0180
03FFDF80
0787FF00
0F03FE00
1E01F000
1E00F800
3E00F800
3E00F800
3E00F800
3E00F800
3F00F000
1F81E000
0FC3C000
07FF8000
01FE0000
03E00000
07C00000
0FC00000
1FFE0000
1FFFF000
0FFFFC00
07FFFE00
0F9FFF00
3E007F00
7C003F00
FC001F00
FC001E00
FE001E00
FF003C00
7FC0F800
3FFFF000
0FFFC000
01FE0000
ENDCHAR
STARTCHAR 011E
ENCODING 286
SWIDTH 604 0
DWIDTH 29 0
BBX 27 42 1 0
BITMAP
01000800
01800C00
03801E00
01E03C00
01FFFC00
00FFF800
00FFF000
007FE000
001FC000
00040000
00000000
00000000
000FF800
007FFF80
01F07F80
03C03F00
07800F00
0F000E00
1F000000
3E000000
3E000000
7E000000
7C000000
7C000000
FC000000
FC000000
FC01FFE0
FC01FFE0
FC007FC0
FC001F80
FC001F80
FE001F80
7E001F80
7F001F80
7F001F80
3F801F80
3FC01F80
1FF03F00
0FFFFE00
07FFFC00
01FFF000
003F8000
ENDCHAR
STARTCHAR 011F
ENCODING 287
SWIDTH 520 0
DWIDTH 25 0
BBX 25 45 0 -11
BITMAP
04001000
0E003800
0F007000
07C1F000
07FFE000
03FFE000
01FFC000
00FF8000
003E0000
00000000
00000000
00000000
007E0180
03FFDF80
0787FF00
0F03FE00
1E01F000
1E00F800
3E00F800
3E00F800
3E00F800
3E00F800
3F00F000
1F81E000
0FC3C000
07FF8000
01FE0000
03E00000
07C00000
0FC00000
1FFE0000
1FFFF000
0FFFFC00
07FFFE00
0F9FFF00
3E007F00
7C003F00
FC001F00
FC001E00
FE001E00
FF003C00
7FC0F800
3FFFF000
0FFFC000
01FE0000
ENDCHAR
STARTCHAR 0120
ENCODING 288
SWIDTH 604 0
DWIDTH 29 0
BBX 27 40 1 0
BITMAP
00020000
00078000
000F8000
000F8000
001F8000
000F8000
000F0000
00040000
00000000
00000000
000FF800
007FFF80
01F07F80
03C03F00
07800F00
0F000E00
1F000000
3E000000
3E000000
7E000000
7C000000
7C000000
FC000000
FC000000
FC01FFE0
FC01FFE0
FC007FC0
FC001F80
FC001F80
FE001F80
7E001F80
7F001F80
7F001F80
3F801F80
3FC01F80
1FF03F00
0FFFFE00
07FFFC00
01FFF000
003F8000
ENDCHAR
STARTCHAR 0121
ENCODING 289
SWIDTH 520 0
DWIDTH 25 0
BBX 25 44 0 -11
BITMAP
001C0000
003E0000
003E0000
007E0000
007E0000
003E0000
003C0000
00000000
00000000
00000000
00000000
007E0180
03FFDF80
0787FF00
0F03FE00
1E01F000
1E00F800
3E00F800
3E00F800
3E00F800
3E00F800
3F00F000
1F81E000
0FC3C000
07FF8000
01FE0000
03E00000
07C00000
0FC00000
1FFE0000
1FFFF000
0FFFFC00
07FFFE00
0F9FFF00
3E007F00
7C003F00
FC001F00
FC001E00
FE001E00
FF003C00
7FC0F800
3FFFF000
0FFFC000
01FE0000
ENDCHAR
STARTCHAR 0124
ENCODING 292
SWIDTH 687 0
DWIDTH 33 0
BBX 30 41 1 0
BITMAP
00038000
00078000
000FC000
001FE000
003FF000
007FF800
007C7C00
00F03E00
01C00E00
00800400
00000000
FFF03FFC
FFF03FFC
3FC00FF0
1F8007E0
1F8007E0
1F8007E0
1F8007E0
1F8007E0
1F8007E0
1F8007E0
1F8007E0
1F8007E0
1F8007E0
1F8007E0
1FFFFFE0
1FFFFFE0
1F8007E0
1F8007E0
1F8007E0
1F8007E0
1F8007E0
1F8007E0
1F8007E0
1F8007E0
1F8007E0
1F8007E0
1F8007E0
3FC00FF0
FFF03FFC
FFF03FFC
ENDCHAR
STARTCHAR 0125
ENCODING 293
SWIDTH 583 0
DWIDTH 28 0
BBX 26 46 1 0
BITMAP
001E0000
003F0000
007F8000
00FFC000
00FFE000
01F3F000
03C0F800
07803800
02001000
00000000
01800000
3F800000
FF800000
FF800000
1F800000
1F800000
1F800000
1F800000
1F800000
1F800000
1F800000
1F800000
1F800000
1F800000
1F81F000
1F8FFC00
1F9FFC00
1FFFFE00
1FF8FE00
1FE07E00
1FC07E00
1F807E00
1F807E00
1F807E00
1F807E00
1F807E00
1F807E00
1F807E00
1F807E00
1F807E00
1F807E00
1F807E00
1F807E00
3FC0FF00
FFF3FFC0
FFF3FFC0
ENDCHAR
STARTCHAR 0128
ENCODING 296
SWIDTH 333 0
DWIDTH 16 0
BBX 19 40 -2 0
BITMAP
020080
0FC0E0
1FFFC0
3FFFC0
3FFF80
7FFF00
607E00
C00800
000000
000000
0FFF00
0FFF00
03FC00
01F800
01F800
01F800
01F800
01F800
01F800
01F800
01F800
01F800
01F800
01F800
01F800
01F800
01F800
01F800
01F800
01F800
01F800
01F800
01F800
01F800
01F800
01F800
01F800
03FC00
0FFF00
0FFF00
ENDCHAR
STARTCHAR 0129
ENCODING 297
SWIDTH 291 0
DWIDTH 14 0
BBX 19 33 -2 0
BITMAP
070040
1FC0E0
3FF1C0
3FFF80
7FFF00
70FF00
C03C00
000000
000000
000000
000000
007000
0FF000
1FF000
0FF000
03F000
03F000
03F000
03F000
03F000
03F000
03F000
03F000
03F000
03F000
03F000
03F000
03F000
03F000
03F000
07F800
1FFE00
1FFE00
ENDCHAR
STARTCHAR 012A
ENCODING 298
SWIDTH 333 0
DWIDTH 16 0
BBX 15 39 0 0
BITMAP
3FFE
7FFE
7FFE
FFFC
7FFC
0000
0000
0000
0000
3FFC
3FFC
0FF0
07E0
07E0
07E0
07E0
07E0
07E0
07E0
07E0
07E0
07E0
07E0
07E0
07E0
07E0
07E0
07E0
07E0
07E0
07E0
07E0
07E0
07E0
07E0
07E0
0FF0
3FFC
3FFC
ENDCHAR
STARTCHAR 012B
ENCODING 299
SWIDTH 291 0
DWIDTH 14 0
BBX 15 31 0 0
BITMAP
7FFE
7FFE
FFFC
FFFC
0000
0000
0000
0000
0000
01C0
3FC0
7FC0
3FC0
0FC0
0FC0
0FC0
0FC0
0FC0
0FC0
0FC0
0FC0
0FC0
0FC0
0FC0
0FC0
0FC0
0FC0
0FC0
1FE0
7FF8
7FF8
ENDCHAR
STARTCHAR 012C
ENCODING 300
SWIDTH 333 0
DWIDTH 16 0
BBX 17 42 -1 0
BITMAP
400200
600300
F00780
780F00
7FFF00
3FFE00
1FFE00
0FFC00
07F000
008000
000000
000000
1FFE00
1FFE00
07F800
03F000
03F000
03F000
03F000
03F000
03F000
03F000
03F000
03F000
03F000
03F000
03F000
03F000
03F000
03F000
03F000
03F000
03F000
03F000
03F000
03F000
03F000
03F000
03F000
07F800
1FFE00
1FFE00
ENDCHAR
STARTCHAR 012D
ENCODING 301
SWIDTH 291 0
DWIDTH 14 0
BBX 17 34 -1 0
BITMAP
400100
E00380
F00700
7C1F00
7FFE00
3FFE00
1FFC00
0FF800
03E000
000000
000000
000000
00E000
1FE000
3FE000
1FE000
07E000
07E000
07E000
07E000
07E000
07E000
07E000
07E000
07E000
07E000
07E000
07E000
07E000
07E000
07E000
0FF000
3FFC00
3FFC00
ENDCHAR
STARTCHAR 0130
ENCODING 304
SWIDTH 333 0
DWIDTH 16 0
BBX 12 40 2 0
BITMAP
0400
0F00
1F80
1F80
1F80
1F00
1E00
0800
0000
0000
FFF0
FFF0
3FC0
1F80
1F80
1F80
1F80
1F80
1F80
1F80
1F80
1F80
1F80
1F80
1F80
1F80
1F80
1F80
1F80
1F80
1F80
1F80
1F80
1F80
1F80
1F80
1F80
3FC0
FFF0
FFF0
ENDCHAR
STARTCHAR 0131
ENCODING 305
SWIDTH 291 0
DWIDTH 14 0
BBX 12 22 1 0
BITMAP
0380
7F80
FF80
7F80
1F80
1F80
1F80
1F80
1F80
1F80
1F80
1F80
1F80
1F80
1F80
1F80
1F80
1F80
1F80
3FC0
FFF0
FFF0
ENDCHAR
STARTCHAR 0132
ENCODING 306
SWIDTH 666 0
DWIDTH 32 0
BBX 28 40 2 -10
BITMAP
FFF3FFF0
FFF3FFF0
3FC03FC0
1F801F80
1F801F80
1F801F80
1F801F80
1F801F80
1F801F80
1F801F80
1F801F80
1F801F80
1F801F80
1F801F80
1F801F80
1F801F80
1F801F80
1F801F80
1F801F80
1F801F80
1F801F80
1F801F80
1F801F80
1F801F80
1F801F80
1F801F80
1F801F80
3FC01F80
FFF01F80
FFF01F00
00001F00
00003F00
00003E00
00003E00
00303C00
00787800
00FFF000
01FFE000
00FFC000
003E0000
ENDCHAR
STARTCHAR 0133
ENCODING 307
SWIDTH 583 0
DWIDTH 28 0
BBX 24 43 1 -11
BITMAP
07801E
0FC03F
1FC03F
1FC07F
1F803F
0F001E
000000
000000
000000
000000
038007
7F80FF
FF81FF
7F807F
1F803F
1F803F
1F803F
1F803F
1F803F
1F803F
1F803F
1F803F
1F803F
1F803F
1F803F
1F803F
1F803F
1F803F
1F803F
3FC03F
FFF03F
FFF03F
00003F
00003F
00003F
00003E
00003E
00107C
007878
00FFF0
01FFE0
00FF80
003E00
ENDCHAR
STARTCHAR 0139
ENCODING 313
SWIDTH 500 0
DWIDTH 24 0
BBX 23 42 1 0
BITMAP
000200
000300
000FC0
001FE0
003FE0
007F80
00FE00
01F800
03E000
038000
010000
000000
FFF000
FFF000
3FC000
1F8000
1F8000
1F8000
1F8000
1F8000
1F8000
1F8000
1F8000
1F8000
1F8000
1F8000
1F8000
1F8000
1F8000
1F8000
1F8000
1F8000
1F8000
1F8000
1F8000
1F8004
1F8006
1F800E
1F801E
3FC03C
FFFFFC
FFFFFC
ENDCHAR
STARTCHAR 013A
ENCODING 314
SWIDTH 291 0
DWIDTH 14 0
BBX 15 49 1 0
BITMAP
0020
0078
00FC
01FE
03FC
07F0
0FC0
1F00
3C00
1000
0000
0000
0000
0180
3F80
FF80
FF80
1F80
1F80
1F80
1F80
1F80
1F80
1F80
1F80
1F80
1F80
1F80
1F80
1F80
1F80
1F80
1F80
1F80
1F80
1F80
1F80
1F80
1F80
1F80
1F80
1F80
1F80
1F80
1F80
1F80
1FC0
FFF0
FFF0
ENDCHAR
STARTCHAR 0141
ENCODING 321
SWIDTH 500 0
DWIDTH 24 0
BBX 24 30 0 0
BITMAP
7FF800
7FF800
1FE000
0FC000
0FC000
0FC000
0FC000
0FC000
0FC000
0FC080
0FC380
0FCF80
0FFF00
0FFE00
0FF800
0FE000
3FC000
7FC000
7FC000
EFC000
0FC000
0FC000
0FC000
0FC002
0FC003
0FC007
0FC00F
1FE01E
7FFFFE
7FFFFE
ENDCHAR
STARTCHAR 0142
ENCODING 322
SWIDTH 312 0
DWIDTH 15 0
BBX 14 37 1 0
BITMAP
0080
0FC0
7FC0
7FC0
0FC0
0FC0
0FC0
0FC0
0FC0
0FC0
0FC0
0FC0
0FC4
0FCC
0FFC
0FF8
0FF8
0FE0
0FC0
1FC0
3FC0
7FC0
7FC0
EFC0
8FC0
0FC0
0FC0
0FC0
0FC0
0FC0
0FC0
0FC0
0FC0
0FC0
1FE0
7FF8
7FF8
ENDCHAR
STARTCHAR 0143
ENCODING 323
SWIDTH 666 0
DWIDTH 32 0
BBX 30 42 1 0
BITMAP
00002000
00003000
00007C00
0000FE00
0001FE00
0003F800
0007E000
000FC000
001F0000
003C0000
00100000
00000000
FF000FFC
FF800FFC
3FC003F0
1FC001E0
1FE001E0
1FF001E0
1FF001E0
1FF801E0
1FFC01E0
1EFE01E0
1E7E01E0
1E3F01E0
1E3F81E0
1E1F81E0
1E0FC1E0
1E07E1E0
1E07E1E0
1E03F1E0
1E01F9E0
1E01FDE0
1E00FDE0
1E007FE0
1E003FE0
1E003FE0
1E001FE0
1E000FE0
1E0007E0
3F0007E0
FFC003E0
FFC000E0
ENDCHAR
STARTCHAR 0144
ENCODING 324
SWIDTH 583 0
DWIDTH 28 0
BBX 26 35 1 0
BITMAP
0003C000
0003F000
0007F800
0007E000
000FC000
000F8000
001F0000
001E0000
001C0000
00380000
00100000
00000000
00000000
0301F000
7F87FC00
FF9FFC00
3FBFFE00
1FF8FE00
1FE07E00
1FC07E00
1F807E00
1F807E00
1F807E00
1F807E00
1F807E00
1F807E00
1F807E00
1F807E00
1F807E00
1F807E00
1F807E00
1F807E00
3FC0FF00
FFF3FFC0
FFF3FFC0
ENDCHAR
STARTCHAR 0147
ENCODING 327
SWIDTH 666 0
DWIDTH 32 0
BBX 30 42 1 0
BITMAP
01000400
01C00E00
01E01C00
00F87C00
007CF800
003FF000
001FE000
000FC000
00078000
00078000
00000000
00000000
FF000FFC
FF800FFC
3FC003F0
1FC001E0
1FE001E0
1FF001E0
1FF001E0
1FF801E0
1FFC01E0
1EFE01E0
1E7E01E0
1E3F01E0
1E3F81E0
1E1F81E0
1E0FC1E0
1E07E1E0
1E07E1E0
1E03F1E0
1E01F9E0
1E01FDE0
1E00FDE0
1E007FE0
1E003FE0
1E003FE0
1E001FE0
1E000FE0
1E0007E0
3F0007E0
FFC003E0
FFC000E0
ENDCHAR
STARTCHAR 0148
ENCODING 328
SWIDTH 583 0
DWIDTH 28 0
BBX 26 35 1 0
BITMAP
02001000
07003800
03C0F800
01E1F000
01F3E000
00FFC000
007F8000
003F8000
003F0000
001E0000
00000000
00000000
00000000
0301F000
7F87FC00
FF9FFC00
3FBFFE00
1FF8FE00
1FE07E00
1FC07E00
1F807E00
1F807E00
1F807E00
1F807E00
1F807E00
1F807E00
1F807E00
1F807E00
1F807E00
1F807E00
1F807E00
1F807E00
3FC0FF00
FFF3FFC0
FFF3FFC0
ENDCHAR
STARTCHAR 014A
ENCODING 330
SWIDTH 645 0
DWIDTH 31 0
BBX 27 40 1 -10
BITMAP
01803E00
3F81FF80
FF87FFC0
FF8FFFC0
1F9FFFE0
1FBF0FE0
1FFC07E0
1FF807E0
1FE007E0
1FC007E0
1F8007E0
1F8007E0
1F8007E0
1F8007E0
1F8007E0
1F8007E0
1F8007E0
1F8007E0
1F8007E0
1F8007E0
1F8007E0
1F8007E0
1F8007E0
1F8007E0
1F8007E0
1F8007E0
1F8007E0
3FC007E0
FFF007C0
FFF007C0
000007C0
00000F80
00000F80
00200F00
00F01E00
01FC3C00
03FFF800
03FFF000
01FFE000
003F0000
ENDCHAR
STARTCHAR 014B
ENCODING 331
SWIDTH 562 0
DWIDTH 27 0
BBX 23 33 1 -11
BITMAP
0301F0
3F87FC
FF9FFC
7FBFFE
1FF8FE
1FE07E
1FC07E
1F807E
1F807E
1F807E
1F807E
1F807E
1F807E
1F807E
1F807E
1F807E
1F807E
1F807E
1F807E
3FC07E
FFF07E
FFF07E
00007E
00007E
00007C
0000FC
0180F8
03C0F8
07E1F0
0FFFE0
0FFF80
07FF00
01F800
ENDCHAR
STARTCHAR 014C
ENCODING 332
SWIDTH 625 0
DWIDTH 30 0
BBX 27 38 1 0
BITMAP
03FFFE00
07FFFF00
07FFFF00
0FFFFE00
07FFFE00
00000000
00000000
00000000
001FC000
00FFF000
03E1FC00
07807E00
0F003F00
1F001F00
1E001F80
3E000F80
7E000FC0
7C000FC0
7C0007E0
FC0007E0
FC0007E0
FC0007E0
FC0007E0
FC0007E0
FC0007E0
FC0007E0
FC0007E0
FE0007C0
7E000FC0
7E000F80
7F000F80
3F001F00
1F801F00
1FC03E00
0FF0FC00
07FFF000
01FFE000
007F0000
ENDCHAR
STARTCHAR 014D
ENCODING 333
SWIDTH 520 0
DWIDTH 25 0
BBX 21 31 2 0
BITMAP
3FFFF8
3FFFF8
3FFFF8
7FFFF0
000000
000000
000000
000000
000000
00FC00
03FF00
0F0FC0
1E07E0
3E07E0
3E03F0
7C03F0
7C01F8
FC01F8
FC01F8
FC01F8
FC01F8
FC01F8
FC01F8
FC01F0
7E01F0
7E03E0
3E03E0
3F03C0
1F8780
07FE00
01F800
ENDCHAR
STARTCHAR 014E
ENCODING 334
SWIDTH 625 0
DWIDTH 30 0
BBX 27 42 1 0
BITMAP
02000800
03000C00
03801C00
03C07C00
01FFF800
01FFF800
00FFF000
007FE000
003FC000
00040000
00000000
00000000
001FC000
00FFF000
03E1FC00
07807E00
0F003F00
1F001F00
1E001F80
3E000F80
7E000FC0
7C000FC0
7C0007E0
FC0007E0
FC0007E0
FC0007E0
FC0007E0
FC0007E0
FC0007E0
FC0007E0
FC0007E0
FE0007C0
7E000FC0
7E000F80
7F000F80
3F001F00
1F801F00
1FC03E00
0FF0FC00
07FFF000
01FFE000
007F0000
ENDCHAR
STARTCHAR 014F
ENCODING 335
SWIDTH 520 0
DWIDTH 25 0
BBX 21 34 2 0
BITMAP
080040
1C0060
1E01E0
0F83E0
0FFFC0
07FF80
03FF80
01FE00
00FC00
000000
000000
000000
00FC00
03FF00
0F0FC0
1E07E0
3E07E0
3E03F0
7C03F0
7C01F8
FC01F8
FC01F8
FC01F8
FC01F8
FC01F8
FC01F8
FC01F0
7E01F0
7E03E0
3E03E0
3F03C0
1F8780
07FE00
01F800
ENDCHAR
STARTCHAR 0150
ENCODING 336
SWIDTH 625 0
DWIDTH 30 0
BBX 27 43 1 0
BITMAP
00102000
001F1E00
001F3F00
001F3E00
003E3E00
003C7C00
003C7800
00787000
0070F000
00F0E000
00E0C000
00404000
00000000
001FC000
00FFF000
03E1FC00
07807E00
0F003F00
1F001F00
1E001F80
3E000F80
7E000FC0
7C000FC0
7C0007E0
FC0007E0
FC0007E0
FC0007E0
FC0007E0
FC0007E0
FC0007E0
FC0007E0
FC0007E0
FE0007C0
7E000FC0
7E000F80
7F000F80
3F001F00
1F801F00
1FC03E00
0FF0FC00
07FFF000
01FFE000
007F0000
ENDCHAR
STARTCHAR 0151
ENCODING 337
SWIDTH 520 0
DWIDTH 25 0
BBX 21 35 2 0
BITMAP
0070F0
00F8F8
00FDF8
00F9F0
01F1E0
01E3E0
01C3C0
03C380
038780
070700
030200
000000
000000
00FC00
03FF00
0F0FC0
1E07E0
3E07E0
3E03F0
7C03F0
7C01F8
FC01F8
FC01F8
FC01F8
FC01F8
FC01F8
FC01F8
FC01F0
7E01F0
7E03E0
3E03E0
3F03C0
1F8780
07FE00
01F800
ENDCHAR
STARTCHAR 0152
ENCODING 338
SWIDTH 833 0
DWIDTH 40 0
BBX 39 30 1 0
BITMAP
001FFFFFF8
00FFFFFFFC
01E0FFFFFC
07803FFFF8
0F001F8038
1F001F8018
1E001F8018
3E001F8018
3E001F8000
7C001F8000
7C001F8000
FC001F8000
FC001F8000
FC001FFFE0
FC001FFFC0
FC001F8180
FC001F8000
FC001F8000
FC001F8000
FE001F8000
7E001F8000
7E001F8004
3F001F8006
3F801F800E
1F801F801E
1FE01FC03C
0FF07FFFFC
03FFFFFFFC
01FFFFFFFC
003FFFFFFC
ENDCHAR
STARTCHAR 0153
ENCODING 339
SWIDTH 812 0
DWIDTH 39 0
BBX 36 22 1 0
BITMAP
00FE00FC00
03FF83FF00
0F8FCF87C0
1F03FF03C0
3E03FE03E0
3E01FE01E0
7C01FC01F0
7C00FC01F0
FC00FC01F0
FC00FFFFF0
FC00FFFFC0
FC00FC0000
FC00FC0000
FC00FC0000
FC00FE0000
7E00FE0020
7E01FF0070
3F01FFC1E0
3F83DFFFC0
1FC78FFF80
07FF07FF00
01FC01F800
ENDCHAR
STARTCHAR 0154
ENCODING 340
SWIDTH 604 0
DWIDTH 29 0
BBX 29 42 0 0
BITMAP
00008000
0000E000
0001F000
0003F800
0007F800
000FF000
001FC000
003F0000
007C0000
00F00000
00400000
00000000
07FF8000
FFFFF000
7FC1FC00
8FC07E00
0FC07E00
0FC03F00
0FC03F00
0FC03F00
0FC03F00
0FC03F00
0FC07E00
0FC07E00
0FC0FC00
0FFFF800
0FFFF000
0FFFC000
0FC7C000
0FC3E000
0FC1F000
0FC1F000
0FC0F800
0FC0FC00
0FC07E00
0FC07E00
0FC03F00
0FC03F80
0FC01FC0
1FE01FF8
7FF80FF8
7FF80F80
ENDCHAR
STARTCHAR 0155
ENCODING 341
SWIDTH 437 0
DWIDTH 21 0
BBX 20 35 1 0
BITMAP
000F00
000FC0
001FC0
001F80
003F00
003E00
007C00
007800
00F000
00E000
01C000
000000
000000
0307C0
7F8FF0
FFBFF0
3FFFE0
1FF1E0
1FE0E0
1FC0E0
1F80C0
1F80C0
1F8000
1F8000
1F8000
1F8000
1F8000
1F8000
1F8000
1F8000
1F8000
1F8000
1FC000
FFF800
FFF800
ENDCHAR
STARTCHAR 0158
ENCODING 344
SWIDTH 604 0
DWIDTH 29 0
BBX 29 42 0 0
BITMAP
02001000
07003800
03C07800
03E1F000
01FBE000
00FFC000
007F8000
003F0000
001F0000
000E0000
00000000
00000000
07FF8000
FFFFF000
7FC1FC00
8FC07E00
0FC07E00
0FC03F00
0FC03F00
0FC03F00
0FC03F00
0FC03F00
0FC07E00
0FC07E00
0FC0FC00
0FFFF800
0FFFF000
0FFFC000
0FC7C000
0FC3E000
0FC1F000
0FC1F000
0FC0F800
0FC0FC00
0FC07E00
0FC07E00
0FC03F00
0FC03F80
0FC01FC0
1FE01FF8
7FF80FF8
7FF80F80
ENDCHAR
STARTCHAR 0159
ENCODING 345
SWIDTH 437 0
DWIDTH 21 0
BBX 20 35 1 0
BITMAP
180040
1C01E0
1E03C0
0F8780
07DF80
03FF00
03FE00
01FC00
00F800
007800
000000
000000
000000
0307C0
7F8FF0
FFBFF0
3FFFE0
1FF1E0
1FE0E0
1FC0E0
1F80C0
1F80C0
1F8000
1F8000
1F8000
1F8000
1F8000
1F8000
1F8000
1F8000
1F8000
1F8000
1FC000
FFF800
FFF800
ENDCHAR
STARTCHAR 015A
ENCODING 346
SWIDTH 520 0
DWIDTH 25 0
BBX 20 42 3 0
BITMAP
000800
000E00
001F80
003FC0
007FC0
00FF00
01FC00
03F000
07C000
070000
040000
000000
01FF00
0FFFC0
1E0FE0
3C07C0
7803C0
F80180
F80000
FC0000
FE0000
FF0000
7FC000
7FF000
3FFC00
1FFF00
07FF80
01FFC0
007FE0
001FE0
0007F0
0003F0
0001F0
C001F0
E001F0
E001E0
F003E0
F803C0
FE0F80
FFFF00
7FFE00
0FF000
ENDCHAR
STARTCHAR 015B
ENCODING 347
SWIDTH 416 0
DWIDTH 20 0
BBX 16 35 2 0
BITMAP
0078
007E
00FF
00FC
01F8
01F0
03E0
03C0
0780
0700
0600
0000
0000
07F8
1FFE
3C3E
781E
F80E
F80C
FC00
FF00
7FC0
7FF0
3FF8
0FFE
03FE
00FF
807F
C03F
E01F
E01F
F01E
F83C
FFF8
3FE0
ENDCHAR
STARTCHAR 015C
ENCODING 348
SWIDTH 520 0
DWIDTH 25 0
BBX 20 41 3 0
BITMAP
00E000
01F000
03F800
03FC00
07FC00
0FFE00
1F1F00
3C0780
380380
200100
000000
01FF00
0FFFC0
1E0FE0
3C07C0
7803C0
F80180
F80000
FC0000
FE0000
FF0000
7FC000
7FF000
3FFC00
1FFF00
07FF80
01FFC0
007FE0
001FE0
0007F0
0003F0
0001F0
C001F0
E001F0
E001E0
F003E0
F803C0
FE0F80
FFFF00
7FFE00
0FF000
ENDCHAR
STARTCHAR 015D
ENCODING 349
SWIDTH 416 0
DWIDTH 20 0
BBX 16 35 2 0
BITMAP
03C0
07E0
07E0
0FF0
1FF8
1FF8
3E7C
7C3E
781E
E007
4002
0000
0000
07F8
1FFE
3C3E
781E
F80E
F80C
FC00
FF00
7FC0
7FF0
3FF8
0FFE
03FE
00FF
807F
C03F
E01F
E01F
F01E
F83C
FFF8
3FE0
ENDCHAR
STARTCHAR 0160
ENCODING 352
SWIDTH 520 0
DWIDTH 25 0
BBX 20 42 3 0
BITMAP
200100
300180
3C0780
1E0F00
0FBE00
07FE00
07FC00
03F800
01F000
00E000
000000
000000
01FF00
0FFFC0
1E0FE0
3C07C0
7803C0
F80180
F80000
FC0000
FE0000
FF0000
7FC000
7FF000
3FFC00
1FFF00
07FF80
01FFC0
007FE0
001FE0
0007F0
0003F0
0001F0
C001F0
E001F0
E001E0
F003E0
F803C0
FE0F80
FFFF00
7FFE00
0FF000
ENDCHAR
STARTCHAR 0161
ENCODING 353
SWIDTH 416 0
DWIDTH 20 0
BBX 16 35 2 0
BITMAP
4002
E007
781E
7C3E
3E7C
1FF8
0FF0
0FF0
07E0
03C0
0000
0000
0000
07F8
1FFE
3C3E
781E
F80E
F80C
FC00
FF00
7FC0
7FF0
3FF8
0FFE
03FE
00FF
807F
C03F
E01F
E01F
F01E
F83C
FFF8
3FE0
ENDCHAR
STARTCHAR 0164
ENCODING 356
SWIDTH 583 0
DWIDTH 28 0
BBX 27 42 0 0
BITMAP
02001000
03001800
03C07800
01E0F000
00FBE000
007FC000
007FC000
003F8000
001F0000
000E0000
00000000
00000000
7FFFFFE0
7FFFFFE0
701F80E0
701F80E0
601F80E0
601F80E0
E01F8060
401F8060
001F8000
001F8000
001F8000
001F8000
001F8000
001F8000
001F8000
001F8000
001F8000
001F8000
001F8000
001F8000
001F8000
001F8000
001F8000
001F8000
001F8000
001F8000
001F8000
003FC000
01FFF800
01FFF800
ENDCHAR
STARTCHAR 0168
ENCODING 360
SWIDTH 666 0
DWIDTH 32 0
BBX 29 40 1 0
BITMAP
00100200
003F0300
007FFF00
00FFFE00
01FFFE00
01FFFC00
0381F800
01004000
00000000
00000000
FFF01FF8
FFF01FF8
3FC007E0
1F8003C0
1F8003C0
1F8003C0
1F8003C0
1F8003C0
1F8003C0
1F8003C0
1F8003C0
1F8003C0
1F8003C0
1F8003C0
1F8003C0
1F8003C0
1F8003C0
1F8003C0
1F8003C0
1F8003C0
1F8003C0
1F800380
1FC00780
0FC00780
0FE00700
07E00F00
03F83E00
01FFFC00
00FFF000
001FC000
ENDCHAR
STARTCHAR 0169
ENCODING 361
SWIDTH 562 0
DWIDTH 27 0
BBX 26 33 1 0
BITMAP
00F00800
03F81C00
07FE3800
07FFF000
0FFFF000
0E1FE000
1C078000
00000000
00000000
00000000
00000000
03801C00
FF87FC00
FF87FC00
1F80FC00
1F80FC00
1F80FC00
1F80FC00
1F80FC00
1F80FC00
1F80FC00
1F80FC00
1F80FC00
1F80FC00
1F80FC00
1F80FC00
1F80FC00
1F81FC00
1FC7FC80
1FFFFF80
0FFEFFC0
07F87E00
03E07000
ENDCHAR
STARTCHAR 016A
ENCODING 362
SWIDTH 666 0
DWIDTH 32 0
BBX 29 38 1 0
BITMAP
01FFFF80
03FFFF80
03FFFF80
03FFFF80
07FFFF00
00000000
00000000
00000000
FFF01FF8
FFF01FF8
3FC007E0
1F8003C0
1F8003C0
1F8003C0
1F8003C0
1F8003C0
1F8003C0
1F8003C0
1F8003C0
1F8003C0
1F8003C0
1F8003C0
1F8003C0
1F8003C0
1F8003C0
1F8003C0
1F8003C0
1F8003C0
1F8003C0
1F800380
1FC00780
0FC00780
0FE00700
07E00F00
03F83E00
01FFFC00
00FFF000
001FC000
ENDCHAR
STARTCHAR 016B
ENCODING 363
SWIDTH 562 0
DWIDTH 27 0
BBX 26 31 1 0
BITMAP
0FFFFC00
1FFFFE00
1FFFFC00
1FFFFC00
00000000
00000000
00000000
00000000
00000000
03801C00
FF87FC00
FF87FC00
1F80FC00
1F80FC00
1F80FC00
1F80FC00
1F80FC00
1F80FC00
1F80FC00
1F80FC00
1F80FC00
1F80FC00
1F80FC00
1F80FC00
1F80FC00
1F81FC00
1FC7FC80
1FFFFF80
0FFEFFC0
07F87E00
03E07000
ENDCHAR
STARTCHAR 016C
ENCODING 364
SWIDTH 666 0
DWIDTH 32 0
BBX 29 42 1 0
BITMAP
00800400
01800600
01C00F00
01F01E00
00FFFE00
007FFC00
007FF800
003FF000
000FE000
00020000
00000000
00000000
FFF01FF8
FFF01FF8
3FC007E0
1F8003C0
1F8003C0
1F8003C0
1F8003C0
1F8003C0
1F8003C0
1F8003C0
1F8003C0
1F8003C0
1F8003C0
1F8003C0
1F8003C0
1F8003C0
1F8003C0
1F8003C0
1F8003C0
1F8003C0
1F8003C0
1F800380
1FC00780
0FC00780
0FE00700
07E00F00
03F83E00
01FFFC00
00FFF000
001FC000
ENDCHAR
STARTCHAR 016D
ENCODING 365
SWIDTH 562 0
DWIDTH 27 0
BBX 26 34 1 0
BITMAP
04001000
0E003800
07007800
07C1F000
03FFF000
03FFE000
01FFC000
00FF8000
003E0000
00000000
00000000
00000000
03801C00
FF87FC00
FF87FC00
1F80FC00
1F80FC00
1F80FC00
1F80FC00
1F80FC00
1F80FC00
1F80FC00
1F80FC00
1F80FC00
1F80FC00
1F80FC00
1F80FC00
1F80FC00
1F81FC00
1FC7FC80
1FFFFF80
0FFEFFC0
07F87E00
03E07000
ENDCHAR
STARTCHAR 016E
ENCODING 366
SWIDTH 666 0
DWIDTH 32 0
BBX 29 42 1 0
BITMAP
00010000
0007E000
000FF000
001EF000
003CF000
003CF000
003CF000
001FE000
001FC000
00020000
00000000
00000000
FFF01FF8
FFF01FF8
3FC007E0
1F8003C0
1F8003C0
1F8003C0
1F8003C0
1F8003C0
1F8003C0
1F8003C0
1F8003C0
1F8003C0
1F8003C0
1F8003C0
1F8003C0
1F8003C0
1F8003C0
1F8003C0
1F8003C0
1F8003C0
1F8003C0
1F800380
1FC00780
0FC00780
0FE00700
07E00F00
03F83E00
01FFFC00
00FFF000
001FC000
ENDCHAR
STARTCHAR 016F
ENCODING 367
SWIDTH 562 0
DWIDTH 27 0
BBX 26 34 1 0
BITMAP
001F0000
007F8000
00778000
00F3C000
00F3C000
00F38000
00F78000
00FF0000
003C0000
00000000
00000000
00000000
03801C00
FF87FC00
FF87FC00
1F80FC00
1F80FC00
1F80FC00
1F80FC00
1F80FC00
1F80FC00
1F80FC00
1F80FC00
1F80FC00
1F80FC00
1F80FC00
1F80FC00
1F80FC00
1F81FC00
1FC7FC80
1FFFFF80
0FFEFFC0
07F87E00
03E07000
ENDCHAR
STARTCHAR 0170
ENCODING 368
SWIDTH 666 0
DWIDTH 32 0
BBX 29 43 1 0
BITMAP
00081000
00078F80
000FCF80
000F9F00
000F1F00
001F1E00
001E3C00
003C3C00
003C3800
00387000
00707000
00202000
00000000
FFF01FF8
FFF01FF8
3FC007E0
1F8003C0
1F8003C0
1F8003C0
1F8003C0
1F8003C0
1F8003C0
1F8003C0
1F8003C0
1F8003C0
1F8003C0
1F8003C0
1F8003C0
1F8003C0
1F8003C0
1F8003C0
1F8003C0
1F8003C0
1F8003C0
1F800380
1FC00780
0FC00780
0FE00700
07E00F00
03F83E00
01FFFC00
00FFF000
001FC000
ENDCHAR
STARTCHAR 0171
ENCODING 369
SWIDTH 562 0
DWIDTH 27 0
BBX 26 35 1 0
BITMAP
003C3800
003E7C00
007E7E00
007C7800
0078F800
00F8F000
00F1E000
00E1E000
01C1C000
01C38000
00818000
00000000
00000000
03801C00
FF87FC00
FF87FC00
1F80FC00
1F80FC00
1F80FC00
1F80FC00
1F80FC00
1F80FC00
1F80FC00
1F80FC00
1F80FC00
1F80FC00
1F80FC00
1F80FC00
1F80FC00
1F81FC00
1FC7FC80
1FFFFF80
0FFEFFC0
07F87E00
03E07000
ENDCHAR
STARTCHAR 0174
ENCODING 372
SWIDTH 854 0
DWIDTH 41 0
BBX 41 41 0 0
BITMAP
00001C000000
00003E000000
00007F000000
00007F800000
0000FF800000
0001FFC00000
0003E3E00000
000780F00000
000700700000
000400200000
000000000000
FFF00C03FF80
FFF01E03FF80
1F801E007C00
0F801E003800
0F803F007800
0F803F007800
0FC03F807000
07C07F807000
07C07F807000
07C07FC0F000
07E0F7C0E000
03E0E7E0E000
03E0E3E0E000
03E1E3E1E000
03F1C3F1E000
03F1C1F1C000
01F3C1F1C000
01F380F9C000
01FB80FBC000
01FF80FFC000
00FF007F8000
00FF007F8000
00FE007F8000
00FE003F8000
007E003F0000
007C001F0000
007C001F0000
007C001F0000
0078000E0000
0030000C0000
ENDCHAR
STARTCHAR 0175
ENCODING 373
SWIDTH 708 0
DWIDTH 34 0
BBX 34 35 0 0
BITMAP
0000F00000
0001F00000
0001F80000
0003FC0000
0007FE0000
000FFE0000
000F9F0000
001F0F8000
003C078000
003801C000
0010008000
0000000000
0000000000
FFE0603FC0
FFE0703FC0
3F00F00700
1F00F80F00
1F80F80E00
0F81FC0E00
0F81FC1E00
0FC3FC1C00
07C3FE1C00
07C3BE1C00
07E73F3C00
03E71F3800
03EF1FB800
03FE1FF800
01FE0FF000
01FC0FF000
01FC07F000
00FC07E000
00F803E000
00F803E000
007001C000
0060018000
ENDCHAR
STARTCHAR 0176
ENCODING 374
SWIDTH 604 0
DWIDTH 29 0
BBX 29 41 0 0
BITMAP
00070000
000F8000
000FC000
001FE000
003FF000
007FF000
00F8F800
01F03C00
01C00E00
01000800
00000000
7F001FF8
FF801FF8
1FC003C0
0FC00380
07E00780
03F00700
03F00F00
01F80E00
01F81E00
00FC1C00
007C3C00
007E3800
003F7800
003FF000
001FF000
001FE000
000FE000
000FC000
000FC000
000FC000
000FC000
000FC000
000FC000
000FC000
000FC000
000FC000
000FC000
001FE000
00FFFC00
00FFFC00
ENDCHAR
STARTCHAR 0177
ENCODING 375
SWIDTH 500 0
DWIDTH 24 0
BBX 25 46 -1 -11
BITMAP
000F0000
001F0000
003F8000
003FC000
007FC000
00FFE000
00F9F000
01F0F000
03C07800
03803C00
01000800
00000000
00000000
7FF07F80
7FF07F80
1FC01E00
0FC01C00
0FC01C00
07E03C00
07E03800
03F03800
03F07000
01F07000
01F8F000
01F8E000
00FCE000
00FDE000
007DC000
007FC000
007F8000
003F8000
003F8000
001F0000
001F0000
000E0000
000E0000
001E0000
001C0000
003C0000
00780000
20F80000
3FF00000
7FE00000
FFC00000
FF800000
7E000000
ENDCHAR
STARTCHAR 0178
ENCODING 376
SWIDTH 604 0
DWIDTH 29 0
BBX 29 40 0 0
BITMAP
00401000
00F03C00
01F87E00
01F87E00
01F87E00
01F07C00
01F07C00
00802000
00000000
00000000
7F001FF8
FF801FF8
1FC003C0
0FC00380
07E00780
03F00700
03F00F00
01F80E00
01F81E00
00FC1C00
007C3C00
007E3800
003F7800
003FF000
001FF000
001FE000
000FE000
000FC000
000FC000
000FC000
000FC000
000FC000
000FC000
000FC000
000FC000
000FC000
000FC000
001FE000
00FFFC00
00FFFC00
ENDCHAR
STARTCHAR 0179
ENCODING 377
SWIDTH 541 0
DWIDTH 26 0
BBX 23 42 1 0
BITMAP
000100
0001C0
0003F0
0007F8
000FF8
001FE0
003F80
007E00
00F800
00E000
008000
000000
3FFFFE
3FFFFE
3C00FE
3801FC
3801F8
3003F8
3007F0
4007F0
000FE0
000FC0
001FC0
003F80
003F80
007F00
007E00
00FE00
01FC00
01FC00
03F800
03F800
07F000
0FE000
0FE004
1FC006
1FC006
3F800E
7F000E
7F001E
FFFFFE
7FFFFE
ENDCHAR
STARTCHAR 017A
ENCODING 378
SWIDTH 458 0
DWIDTH 22 0
BBX 20 35 1 0
BITMAP
000F00
000FC0
001FC0
001F80
003F00
003E00
007C00
007800
00F000
00E000
01C000
000000
000000
3FFFF0
3FFFF0
380FE0
380FC0
301FC0
301F80
203F00
007F00
007E00
00FC00
01FC00
01F800
03F000
07F000
07E000
0FE030
1FC030
1F8070
3F8070
7F00F0
7FFFF0
FFFFE0
ENDCHAR
STARTCHAR 017B
ENCODING 379
SWIDTH 541 0
DWIDTH 26 0
BBX 23 40 1 0
BITMAP
000800
001E00
003F00
003F00
003F00
003E00
003C00
001000
000000
000000
3FFFFE
3FFFFE
3C00FE
3801FC
3801F8
3003F8
3007F0
4007F0
000FE0
000FC0
001FC0
003F80
003F80
007F00
007E00
00FE00
01FC00
01FC00
03F800
03F800
07F000
0FE000
0FE004
1FC006
1FC006
3F800E
7F000E
7F001E
FFFFFE
7FFFFE
ENDCHAR
STARTCHAR 017C
ENCODING 380
SWIDTH 458 0
DWIDTH 22 0
BBX 20 33 1 0
BITMAP
003800
007C00
00FC00
00FC00
00FC00
00F800
007000
000000
000000
000000
000000
3FFFF0
3FFFF0
380FE0
380FC0
301FC0
301F80
203F00
007F00
007E00
00FC00
01FC00
01F800
03F000
07F000
07E000
0FE030
1FC030
1F8070
3F8070
7F00F0
7FFFF0
FFFFE0
ENDCHAR
STARTCHAR 017D
ENCODING 381
SWIDTH 541 0
DWIDTH 26 0
BBX 23 42 1 0
BITMAP
040020
070030
0780F8
03E1E0
01F7C0
00FFC0
00FF80
007F00
003E00
001C00
000000
000000
3FFFFE
3FFFFE
3C00FE
3801FC
3801F8
3003F8
3007F0
4007F0
000FE0
000FC0
001FC0
003F80
003F80
007F00
007E00
00FE00
01FC00
01FC00
03F800
03F800
07F000
0FE000
0FE004
1FC006
1FC006
3F800E
7F000E
7F001E
FFFFFE
7FFFFE
ENDCHAR
STARTCHAR 017E
ENCODING 382
SWIDTH 458 0
DWIDTH 22 0
BBX 20 35 1 0
BITMAP
080040
1C01E0
0E03C0
0F8780
07CF80
03FF00
01FE00
01FC00
00FC00
007800
000000
000000
000000
3FFFF0
3FFFF0
380FE0
380FC0
301FC0
301F80
203F00
007F00
007E00
00FC00
01FC00
01F800
03F000
07F000
07E000
0FE030
1FC030
1F8070
3F8070
7F00F0
7FFFF0
FFFFE0
ENDCHAR
STARTCHAR 0181
ENCODING 385
SWIDTH 729 0
DWIDTH 35 0
BBX 32 30 1 0
BITMAP
007FFE00
07FFFFE0
1FFF07F0
3F3F01F8
7E3F01FC
FC3F00FC
FC3F00FC
FC3F00FC
FE3F00FC
FF3F00F8
7C3F01F8
203F03F0
003F0FC0
003FFF80
003FFFF0
003F03F8
003F00FC
003F007E
003F007E
003F003F
003F003F
003F003F
003F003F
003F003F
003F003E
003F007E
003F00FC
007F83F8
01FFFFF0
01FFFF80
ENDCHAR
STARTCHAR 0186
ENCODING 390
SWIDTH 562 0
DWIDTH 27 0
BBX 24 30 1 0
BITMAP
00FE00
07FF80
0FFFE0
3FFFF0
7C0FF8
F003FC
4001FC
0000FE
0000FE
00007E
00007F
00003F
00003F
00003F
00003F
00003F
02003F
0F003F
3F003F
7E003E
FC003E
FC007E
FC007C
FC007C
FE00F8
7E01F0
7F83E0
3FFFC0
1FFF00
03FC00
ENDCHAR
STARTCHAR 0189
ENCODING 393
SWIDTH 645 0
DWIDTH 31 0
BBX 29 30 0 0
BITMAP
03FFC000
FFFFF800
7FC0FE00
8FC03F80
0FC01FC0
0FC00FC0
0FC007E0
0FC007F0
0FC003F0
0FC003F0
0FC003F8
0FC001F8
0FC001F8
7FFF01F8
FFFF01F8
0FC001F8
0FC001F8
0FC001F8
0FC001F8
0FC001F0
0FC003F0
0FC003F0
0FC007E0
0FC007E0
0FC00FC0
0FC01F80
0FC03F00
1FE0FE00
7FFFF800
7FFFC000
ENDCHAR
STARTCHAR 018A
ENCODING 394
SWIDTH 770 0
DWIDTH 37 0
BBX 35 30 0 0
BITMAP
003FFF0000
07FFFFF000
1FFF83F800
3F9F80FE00
7E1F803F00
FC1F803F00
FC1F801F80
FC1F800FC0
FE1F800FC0
FF1F800FC0
7C1F8007E0
201F8007E0
001F8007E0
001F8007E0
001F8007E0
001F8007E0
001F8007E0
001F8007E0
001F8007E0
001F8007C0
001F800FC0
001F800FC0
001F800F80
001F801F80
001F803F00
001F803E00
001F80FC00
003FC1F800
00FFFFF000
00FFFF8000
ENDCHAR
STARTCHAR 018E
ENCODING 398
SWIDTH 541 0
DWIDTH 26 0
BBX 23 30 1 0
BITMAP
1FFFFE
1FFFFE
1C03F8
3803F0
3803F0
3003F0
0003F0
0003F0
0003F0
0003F0
0003F0
0003F0
0203F0
07FFF0
0FFFF0
0003F0
0003F0
0003F0
0003F0
0003F0
0003F0
0003F0
2003F0
7003F0
7003F0
7003F0
7003F0
7007F8
FFFFFE
FFFFFE
ENDCHAR
STARTCHAR 0190
ENCODING 400
SWIDTH 520 0
DWIDTH 25 0
BBX 22 30 1 0
BITMAP
007F80
03FFF0
0FFFFC
1F83F8
3E01F8
3E0070
7C0070
7C0000
7C0000
7C0000
7E0000
3F0000
3FE000
1FFE00
07FE00
0FF000
1F8000
3E0000
7E0000
7C0000
FC0000
FC0000
FC0000
FE000C
FF003C
7F80F8
7FFFF0
3FFFE0
0FFF80
03FC00
ENDCHAR
STARTCHAR 0192
ENCODING 402
SWIDTH 312 0
DWIDTH 15 0
BBX 28 48 -7 -11
BITMAP
00000F80
00003FE0
0000FFF0
0001FFF0
0003E3E0
0007C1C0
0007C100
000F8000
000F8000
001F8000
001F8000
001F8000
001F8000
001F8000
001F8000
007FFF00
00FFFE00
001F8400
001F8000
001F8000
001F8000
001F8000
001F8000
001F8000
001F8000
001F8000
001F8000
001F8000
001F8000
001F8000
001F8000
001F8000
001F8000
001F8000
001F8000
001F8000
001F8000
001F8000
001F0000
001F0000
001F0000
003E0000
103E0000
3C7C0000
7FF80000
FFE00000
FFC00000
1F000000
ENDCHAR
STARTCHAR 0197
ENCODING 407
SWIDTH 333 0
DWIDTH 16 0
BBX 14 30 1 0
BITMAP
7FF8
7FF8
1FE0
0FC0
0FC0
0FC0
0FC0
0FC0
0FC0
0FC0
0FC0
0FC0
0FC0
0FC0
7FFC
FFF8
0FC0
0FC0
0FC0
0FC0
0FC0
0FC0
0FC0
0FC0
0FC0
0FC0
0FC0
1FE0
7FF8
7FF8
ENDCHAR
STARTCHAR 0198
ENCODING 408
SWIDTH 645 0
DWIDTH 31 0
BBX 29 30 1 0
BITMAP
FFF007C0
FFF01FF0
3FC03FF0
1F807FF8
1F80F8F8
1F80F0F8
1F81E0F8
1F83E0F8
1F87C1F8
1F8F81E0
1F8F0180
1F9E0000
1FBC0000
1FFC0000
1FFC0000
1FFE0000
1FBF0000
1F9F8000
1F8FC000
1F87E000
1F87E000
1F83F000
1F81F800
1F80FC00
1F80FE00
1F807F00
1F803F80
3FC01FF0
FFF00FF0
FFF00F80
ENDCHAR
STARTCHAR 0199
ENCODING 409
SWIDTH 541 0
DWIDTH 26 0
BBX 26 37 1 0
BITMAP
0007E000
001FF800
007FFC00
00FFFE00
01F0FE00
03E07C00
07C03800
07C01000
0FC00000
0F800000
0F800000
1F800000
1F800000
1F800000
1F800000
1F81FF80
1F81FF80
1F80FC00
1F81F800
1F83E000
1F87C000
1F8F8000
1F9E0000
1FBC0000
1FFC0000
1FBE0000
1FBF0000
1F9F8000
1F8FC000
1F87E000
1F87F000
1F83F800
1F81FC00
1F80FC00
3FC0FFC0
FFF07FC0
FFF03F00
ENDCHAR
STARTCHAR 019A
ENCODING 410
SWIDTH 354 0
DWIDTH 17 0
BBX 14 36 1 0
BITMAP
0080
0FC0
7FC0
7FC0
0FC0
0FC0
0FC0
0FC0
0FC0
0FC0
0FC0
0FC0
0FC0
0FC0
0FC0
0FC0
0FC0
FFFC
FFFC
0FC0
0FC0
0FC0
0FC0
0FC0
0FC0
0FC0
0FC0
0FC0
0FC0
0FC0
0FC0
0FC0
0FC0
0FE0
7FF8
7FF8
ENDCHAR
STARTCHAR 019D
ENCODING 413
SWIDTH 666 0
DWIDTH 32 0
BBX 39 40 -8 -10
BITMAP
007F8007FE
007FC007FE
001FE001F8
000FE000F0
000FF000F0
000FF800F0
000FF800F0
000FFC00F0
000FFE00F0
000F7F00F0
000F3F00F0
000F3F80F0
000F1FC0F0
000F0FC0F0
000F07E0F0
000F07F0F0
000F03F0F0
000F01F8F0
000F01FCF0
000F00FCF0
000F007EF0
000F003FF0
000F003FF0
000F001FF0
000F000FF0
000F000FF0
000F0007F0
000F0003F0
000F0001F0
000F0000F0
000F000030
000F000000
000E000000
001E000000
181E000000
3C3C000000
7FF8000000
FFF0000000
7FE0000000
1F80000000
ENDCHAR
STARTCHAR 019F
ENCODING 415
SWIDTH 625 0
DWIDTH 30 0
BBX 27 30 1 0
BITMAP
001FC000
00FFF000
03E1FC00
07807E00
0F003F00
1F003F00
1E001F80
3E001F80
7E000FC0
7E000FC0
7C000FE0
FC0007E0
FC0007E0
FC0007E0
FFFFFFE0
FFFFFFE0
FC0007E0
FC0007E0
FC0007E0
FE0007C0
7E000FC0
7E000F80
7F000F80
3F001F00
1F801F00
1FC03E00
0FF0FC00
07FFF000
01FFE000
007F0000
ENDCHAR
STARTCHAR 01A0
ENCODING 416
SWIDTH 625 0
DWIDTH 30 0
BBX 29 36 1 0
BITMAP
00000020
000000F0
000007F0
000003F8
000003F0
000003F0
003FC3E0
00FFF3C0
03E1FF80
07807E00
0F003F00
1F001F80
1E001F80
3E000FC0
7E000FC0
7C000FC0
7C0007E0
FC0007E0
FC0007E0
FC0007E0
FC0007E0
FC0007E0
FC0007E0
FC0007E0
FC0007C0
FE0007C0
7E000FC0
7E000F80
7F000F80
3F001F00
1F801F00
1FC03E00
0FF0FC00
07FFF000
01FFE000
007F0000
ENDCHAR
STARTCHAR 01A1
ENCODING 417
SWIDTH 604 0
DWIDTH 29 0
BBX 27 28 1 0
BITMAP
000000C0
000003E0
00000FE0
00000FE0
000007E0
000007C0
00FE07C0
03FFC780
0F87EF00
1F03FC00
3E01FC00
3E00FC00
7C00FC00
7C00FE00
FC007E00
FC007E00
FC007E00
FC007E00
FC007E00
FC007C00
FC007C00
7E007C00
7E00F800
3F00F000
1F81E000
0FC3C000
07FF8000
01FC0000
ENDCHAR
STARTCHAR 01A9
ENCODING 425
SWIDTH 541 0
DWIDTH 26 0
BBX 24 30 1 0
BITMAP
7FFFFE
7FFFFE
7FFFFE
3F001E
1F800E
1FC00E
0FC00E
07E006
07F000
03F000
01F800
01FC00
00FC00
007E00
007C00
003C00
007800
00F000
00E000
01E000
03C003
078007
078007
0F0007
1E000E
3FFFFE
3FFFFE
7FFFFE
FFFFFE
7FFFFE
ENDCHAR
STARTCHAR 01AA
ENCODING 426
SWIDTH 375 0
DWIDTH 18 0
BBX 24 47 1 -11
BITMAP
07E000
1FF800
38F800
70FC00
F07C00
F07E00
F07E00
F8FE00
FFFE00
7FFE00
7FFE00
1E7E00
007E00
007E00
007E00
007E00
007E00
007C00
00FC00
00FC00
00FC00
00FC00
00FC00
00FC00
00FC00
00FC00
00FC00
01FC00
01F800
01F800
01F800
01F800
01F800
01F800
01F800
01F800
01F800
01F800
01F800
01F801
01F81F
00F83F
00FC3F
00FC3E
007E7E
003FF8
000FE0
ENDCHAR
STARTCHAR 01AF
ENCODING 431
SWIDTH 729 0
DWIDTH 35 0
BBX 34 36 1 0
BITMAP
0000000100
0000000780
0000003F80
0000001FC0
0000001F80
0000001F80
FFF01FFF00
FFF01FFE00
3FC007FC00
1F8003F000
1F8003C000
1F8003C000
1F8003C000
1F8003C000
1F8003C000
1F8003C000
1F8003C000
1F8003C000
1F8003C000
1F8003C000
1F8003C000
1F8003C000
1F8003C000
1F8003C000
1F8003C000
1F8003C000
1F8003C000
1F8003C000
1FC0078000
0FC0078000
0FE0070000
07E00F0000
03F83E0000
01FFFC0000
00FFF00000
001FC00000
ENDCHAR
STARTCHAR 01B0
ENCODING 432
SWIDTH 666 0
DWIDTH 32 0
BBX 32 28 0 0
BITMAP
00000006
0000001F
0000007F
000000FF
0000003F
07800C3E
FF83FE3E
FF83FE7C
1F80FFF0
1F807FE0
1F807F80
1F807E00
1F807E00
1F807E00
1F807E00
1F807E00
1F807E00
1F807E00
1F807E00
1F807E00
1F807E00
1F807E00
1F81FE00
1FC3FF40
0FFFFFE0
0FFE7F80
07FC3F00
03F03800
ENDCHAR
STARTCHAR 01B3
ENCODING 435
SWIDTH 708 0
DWIDTH 34 0
BBX 33 32 0 0
BITMAP
0000001800
000000FE00
7F0001FF00
FF8003FF80
1FC003CF80
0FC0078780
07E0078780
07F00F0780
03F00F0780
01F81E0F00
01F81E0C00
00FC3C0000
00FE3C0000
007E780000
003F780000
003FF00000
001FE00000
001FE00000
000FC00000
000FC00000
000FC00000
000FC00000
000FC00000
000FC00000
000FC00000
000FC00000
000FC00000
000FC00000
000FC00000
001FE00000
00FFFC0000
00FFFC0000
ENDCHAR
STARTCHAR 01B4
ENCODING 436
SWIDTH 500 0
DWIDTH 24 0
BBX 36 42 -2 -11
BITMAP
00000007C0
0000001FF0
0000007FF0
000000FFE0
000000FFC0
000001F080
000003C000
0000038000
0000078000
3FF8070000
3FF8070000
0FE00F0000
07E00E0000
07E01E0000
03F01E0000
03F01C0000
01F83C0000
01F8380000
00F8380000
00FC780000
00FC700000
007EF00000
007EE00000
003EE00000
003FE00000
003FC00000
001FC00000
001FC00000
000F800000
000F800000
0007000000
0007000000
000F000000
000E000000
001E000000
003C000000
187C000000
3FF8000000
3FF0000000
7FE0000000
FFC0000000
3F00000000
ENDCHAR
STARTCHAR 01B7
ENCODING 439
SWIDTH 541 0
DWIDTH 26 0
BBX 22 30 2 0
BITMAP
3FFFF0
3FFFF8
7807F0
7007E0
700FC0
601FC0
603F80
003F00
007E00
00FE00
00FC00
01FF80
03FFE0
07FFF0
0707F8
0401F8
0000FC
0000FC
00007C
00007C
00007C
00007C
100078
3800F8
7C00F8
7E01F0
FF03E0
7FFFC0
1FFF00
03F800
ENDCHAR
STARTCHAR 01CD
ENCODING 461
SWIDTH 625 0
DWIDTH 30 0
BBX 30 42 0 0
BITMAP
01000800
01C00C00
01E03E00
00F87800
007DF800
003FF000
001FE000
000FC000
000F8000
00070000
00000000
00000000
00018000
00078000
000FC000
001FC000
001FE000
001FE000
003FE000
003FF000
003BF000
0079F000
0079F800
0071F800
00F0FC00
00F0FC00
00E0FC00
01E07E00
01E07E00
01C07E00
03FFFF00
03FFFF00
03801F00
07801F80
07001F80
07000FC0
0F000FC0
0E000FC0
0E0007E0
1E0007E0
FFC03FFC
FFC03FFC
ENDCHAR
STARTCHAR 01CE
ENCODING 462
SWIDTH 500 0
DWIDTH 24 0
BBX 23 35 1 0
BITMAP
080040
1C00E0
0F03C0
0787C0
07CF80
03FF00
01FE00
01FE00
00FC00
007800
000000
000000
000000
00FF00
0FFF80
1F0FC0
3E07E0
7E07E0
FC07E0
6007E0
0007E0
001FE0
01FFE0
07FFE0
1FE7E0
3F87E0
3F07E0
7E07E0
7E07E0
7E07E0
7E1FE4
7F3FFC
3FF7FE
3FE7F0
0F8380
ENDCHAR
STARTCHAR 01CF
ENCODING 463
SWIDTH 333 0
DWIDTH 16 0
BBX 16 42 0 0
BITMAP
8004
E006
F01F
7C3C
3EF8
1FF8
0FF0
0FE0
07C0
0380
0000
0000
3FFC
3FFC
0FF0
07E0
07E0
07E0
07E0
07E0
07E0
07E0
07E0
07E0
07E0
07E0
07E0
07E0
07E0
07E0
07E0
07E0
07E0
07E0
07E0
07E0
07E0
07E0
07E0
0FF0
3FFC
3FFC
ENDCHAR
STARTCHAR 01D0
ENCODING 464
SWIDTH 291 0
DWIDTH 14 0
BBX 16 35 -1 0
BITMAP
4003
F007
780F
3C3E
1F7C
1FF8
0FF8
07F0
03E0
03C0
0000
0000
0000
00E0
1FE0
3FE0
1FE0
07E0
07E0
07E0
07E0
07E0
07E0
07E0
07E0
07E0
07E0
07E0
07E0
07E0
07E0
07E0
0FF0
3FFC
3FFC
ENDCHAR
STARTCHAR 01D1
ENCODING 465
SWIDTH 625 0
DWIDTH 30 0
BBX 27 43 1 0
BITMAP
02001000
03801C00
03C03C00
01E07800
00F1F000
007FE000
007FE000
003FC000
001F8000
001F0000
000E0000
00000000
00000000
001FC000
00FFF000
03E1FC00
07807E00
0F003F00
1F001F00
1E001F80
3E000F80
7E000FC0
7C000FC0
7C0007E0
FC0007E0
FC0007E0
FC0007E0
FC0007E0
FC0007E0
FC0007E0
FC0007E0
FC0007E0
FE0007C0
7E000FC0
7E000F80
7F000F80
3F001F00
1F801F00
1FC03E00
0FF0FC00
07FFF000
01FFE000
007F0000
ENDCHAR
STARTCHAR 01D2
ENCODING 466
SWIDTH 520 0
DWIDTH 25 0
BBX 21 35 2 0
BITMAP
080040
1C00E0
0F03C0
0787C0
07CF80
03FF00
01FE00
00FE00
00FC00
007800
000000
000000
000000
00FC00
03FF00
0F0FC0
1E07E0
3E07E0
3E03F0
7C03F0
7C01F8
FC01F8
FC01F8
FC01F8
FC01F8
FC01F8
FC01F8
FC01F0
7E01F0
7E03E0
3E03E0
3F03C0
1F8780
07FE00
01F800
ENDCHAR
STARTCHAR 01D3
ENCODING 467
SWIDTH 666 0
DWIDTH 32 0
BBX 29 42 1 0
BITMAP
00800400
00C00E00
01F01E00
00787C00
007EF800
003FF000
001FE000
000FE000
0007C000
00038000
00000000
00000000
FFF01FF8
FFF01FF8
3FC007E0
1F8003C0
1F8003C0
1F8003C0
1F8003C0
1F8003C0
1F8003C0
1F8003C0
1F8003C0
1F8003C0
1F8003C0
1F8003C0
1F8003C0
1F8003C0
1F8003C0
1F8003C0
1F8003C0
1F8003C0
1F8003C0
1F800380
1FC00780
0FC00780
0FE00700
07E00F00
03F83E00
01FFFC00
00FFF000
001FC000
ENDCHAR
STARTCHAR 01D4
ENCODING 468
SWIDTH 562 0
DWIDTH 27 0
BBX 26 35 1 0
BITMAP
04003000
0F007800
0780F000
03C3E000
01F7C000
01FFC000
00FF8000
007F0000
003E0000
003C0000
00000000
00000000
00000000
03801C00
FF87FC00
FF87FC00
1F80FC00
1F80FC00
1F80FC00
1F80FC00
1F80FC00
1F80FC00
1F80FC00
1F80FC00
1F80FC00
1F80FC00
1F80FC00
1F80FC00
1F80FC00
1F81FC00
1FC7FC80
1FFFFF80
0FFEFFC0
07F87E00
03E07000
ENDCHAR
STARTCHAR 01D5
ENCODING 469
SWIDTH 666 0
DWIDTH 32 0
BBX 29 45 1 0
BITMAP
03FFFF80
03FFFF80
03FFFF80
07FFFF00
00000000
00200800
00F83E00
00F83E00
01F87E00
01F87E00
01F87E00
00F03C00
00401000
00000000
00000000
FFF01FF8
FFF01FF8
3FC007E0
1F8003C0
1F8003C0
1F8003C0
1F8003C0
1F8003C0
1F8003C0
1F8003C0
1F8003C0
1F8003C0
1F8003C0
1F8003C0
1F8003C0
1F8003C0
1F8003C0
1F8003C0
1F8003C0
1F8003C0
1F8003C0
1F800380
1FC00780
0FC00780
0FE00700
07E00F00
03F83E00
01FFFC00
00FFF000
001FC000
ENDCHAR
STARTCHAR 01D6
ENCODING 470
SWIDTH 562 0
DWIDTH 27 0
BBX 26 40 1 0
BITMAP
0FFFFC00
0FFFFE00
1FFFFC00
1FFFFC00
00000000
00000000
00000000
03C0F000
07C1F000
07E1F800
07E1F800
07C1F000
07C1F000
0781E000
00000000
00000000
00000000
00000000
03801C00
FF87FC00
FF87FC00
1F80FC00
1F80FC00
1F80FC00
1F80FC00
1F80FC00
1F80FC00
1F80FC00
1F80FC00
1F80FC00
1F80FC00
1F80FC00
1F80FC00
1F80FC00
1F81FC00
1FC7FC80
1FFFFF80
0FFEFFC0
07F87E00
03E07000
ENDCHAR
STARTCHAR 01D7
ENCODING 471
SWIDTH 666 0
DWIDTH 32 0
BBX 29 49 1 0
BITMAP
00003000
00007C00
0000FE00
0001FE00
0003FC00
0007F000
000FC000
001F8000
001E0000
00280800
00F83E00
00F83E00
01F87E00
01F87E00
01F87E00
00F03C00
00401000
00000000
00000000
FFF01FF8
FFF01FF8
3FC007E0
1F8003C0
1F8003C0
1F8003C0
1F8003C0
1F8003C0
1F8003C0
1F8003C0
1F8003C0
1F8003C0
1F8003C0
1F8003C0
1F8003C0
1F8003C0
1F8003C0
1F8003C0
1F8003C0
1F8003C0
1F8003C0
1F800380
1FC00780
0FC00780
0FE00700
07E00F00
03F83E00
01FFFC00
00FFF000
001FC000
ENDCHAR
STARTCHAR 01D8
ENCODING 472
SWIDTH 562 0
DWIDTH 27 0
BBX 26 44 1 0
BITMAP
00020000
0007E000
0007F000
000FE000
000FC000
001F8000
001F0000
003E0000
003C0000
00380000
00700000
03C0F000
07C1F000
07E1F800
07E1F800
07C1F000
07C1F000
0781E000
00000000
00000000
00000000
00000000
03801C00
FF87FC00
FF87FC00
1F80FC00
1F80FC00
1F80FC00
1F80FC00
1F80FC00
1F80FC00
1F80FC00
1F80FC00
1F80FC00
1F80FC00
1F80FC00
1F80FC00
1F80FC00
1F81FC00
1FC7FC80
1FFFFF80
0FFEFFC0
07F87E00
03E07000
ENDCHAR
STARTCHAR 01D9
ENCODING 473
SWIDTH 666 0
DWIDTH 32 0
BBX 29 49 1 0
BITMAP
00C00600
01E01E00
00F83C00
007CF800
003FF000
001FF000
000FE000
0007C000
00078000
00200800
00F83E00
00F83E00
01F87E00
01F87E00
01F87E00
00F03C00
00401000
00000000
00000000
FFF01FF8
FFF01FF8
3FC007E0
1F8003C0
1F8003C0
1F8003C0
1F8003C0
1F8003C0
1F8003C0
1F8003C0
1F8003C0
1F8003C0
1F8003C0
1F8003C0
1F8003C0
1F8003C0
1F8003C0
1F8003C0
1F8003C0
1F8003C0
1F8003C0
1F800380
1FC00780
0FC00780
0FE00700
07E00F00
03F83E00
01FFFC00
00FFF000
001FC000
ENDCHAR
STARTCHAR 01DA
ENCODING 474
SWIDTH 562 0
DWIDTH 27 0
BBX 26 44 1 0
BITMAP
04002000
06003000
0F80F800
03C1E000
03E3E000
01FFC000
00FF8000
007F0000
007E0000
003E0000
00000000
03C0F000
07C1F000
07E1F800
07E1F800
07C1F000
07C1F000
0781E000
00000000
00000000
00000000
00000000
03801C00
FF87FC00
FF87FC00
1F80FC00
1F80FC00
1F80FC00
1F80FC00
1F80FC00
1F80FC00
1F80FC00
1F80FC00
1F80FC00
1F80FC00
1F80FC00
1F80FC00
1F80FC00
1F81FC00
1FC7FC80
1FFFFF80
0FFEFFC0
07F87E00
03E07000
ENDCHAR
STARTCHAR 01DB
ENCODING 475
SWIDTH 666 0
DWIDTH 32 0
BBX 29 49 1 0
BITMAP
00300000
00780000
01FC0000
01FE0000
00FF0000
003F8000
000FC000
0003E000
0000F000
00202800
00F83E00
00F83E00
01F87E00
01F87E00
01F87E00
00F03C00
00401000
00000000
00000000
FFF01FF8
FFF01FF8
3FC007E0
1F8003C0
1F8003C0
1F8003C0
1F8003C0
1F8003C0
1F8003C0
1F8003C0
1F8003C0
1F8003C0
1F8003C0
1F8003C0
1F8003C0
1F8003C0
1F8003C0
1F8003C0
1F8003C0
1F8003C0
1F8003C0
1F800380
1FC00780
0FC00780
0FE00700
07E00F00
03F83E00
01FFFC00
00FFF000
001FC000
ENDCHAR
STARTCHAR 01DC
ENCODING 476
SWIDTH 562 0
DWIDTH 27 0
BBX 26 44 1 0
BITMAP
00200000
03F00000
07F00000
03F80000
01F80000
00FC0000
007C0000
003E0000
001E0000
000F0000
00070000
03C0F000
07C1F000
07E1F800
07E1F800
07C1F000
07C1F000
0781E000
00000000
00000000
00000000
00000000
03801C00
FF87FC00
FF87FC00
1F80FC00
1F80FC00
1F80FC00
1F80FC00
1F80FC00
1F80FC00
1F80FC00
1F80FC00
1F80FC00
1F80FC00
1F80FC00
1F80FC00
1F80FC00
1F81FC00
1FC7FC80
1FFFFF80
0FFEFFC0
07F87E00
03E07000
ENDCHAR
STARTCHAR 01DD
ENCODING 477
SWIDTH 479 0
DWIDTH 23 0
BBX 20 22 1 0
BITMAP
01F800
0FFF00
1FFF80
3FFFC0
783FC0
E00FE0
8007E0
0007F0
0003F0
0003F0
0003F0
1FFFF0
7FFFF0
FC03F0
FC03E0
FC03E0
FC07C0
7C07C0
7E0780
3F0F00
1FFE00
03F800
ENDCHAR
STARTCHAR 01DE
ENCODING 478
SWIDTH 625 0
DWIDTH 30 0
BBX 30 45 0 0
BITMAP
03FFFF80
03FFFF80
07FFFF00
03FFFF00
00000000
00401000
00F03C00
01F87E00
01F87E00
01F87E00
01F07C00
01F07C00
00402000
00000000
00000000
00018000
00078000
000FC000
001FC000
001FE000
001FE000
003FE000
003FF000
003BF000
0079F000
0079F800
0071F800
00F0FC00
00F0FC00
00E0FC00
01E07E00
01E07E00
01C07E00
03FFFF00
03FFFF00
03801F00
07801F80
07001F80
07000FC0
0F000FC0
0E000FC0
0E0007E0
1E0007E0
FFC03FFC
FFC03FFC
ENDCHAR
STARTCHAR 01DF
ENCODING 479
SWIDTH 500 0
DWIDTH 24 0
BBX 23 40 1 0
BITMAP
1FFFF8
3FFFF8
3FFFF8
7FFFF0
000000
000000
000000
0701C0
0F83E0
1F87E0
1F87E0
1F87E0
1F07C0
0E0380
000000
000000
000000
000000
00FF00
0FFF80
1F0FC0
3E07E0
7E07E0
FC07E0
6007E0
0007E0
001FE0
01FFE0
07FFE0
1FE7E0
3F87E0
3F07E0
7E07E0
7E07E0
7E07E0
7E1FE4
7F3FFC
3FF7FE
3FE7F0
0F8380
ENDCHAR
STARTCHAR 01E0
ENCODING 480
SWIDTH 625 0
DWIDTH 30 0
BBX 30 45 0 0
BITMAP
03FFFF80
03FFFF80
07FFFF00
07FFFF00
00000000
00020000
00078000
000FC000
000FC000
000FC000
000F8000
000F8000
00020000
00000000
00000000
00018000
00078000
000FC000
001FC000
001FE000
001FE000
003FE000
003FF000
003BF000
0079F000
0079F800
0071F800
00F0FC00
00F0FC00
00E0FC00
01E07E00
01E07E00
01C07E00
03FFFF00
03FFFF00
03801F00
07801F80
07001F80
07000FC0
0F000FC0
0E000FC0
0E0007E0
1E0007E0
FFC03FFC
FFC03FFC
ENDCHAR
STARTCHAR 01E1
ENCODING 481
SWIDTH 500 0
DWIDTH 24 0
BBX 23 39 1 0
BITMAP
3FFFF8
3FFFF8
7FFFF0
3FFFF0
000000
000000
003800
007C00
00FC00
00FC00
00FC00
00F800
007000
000000
000000
000000
000000
00FF00
0FFF80
1F0FC0
3E07E0
7E07E0
FC07E0
6007E0
0007E0
001FE0
01FFE0
07FFE0
1FE7E0
3F87E0
3F07E0
7E07E0
7E07E0
7E07E0
7E1FE4
7F3FFC
3FF7FE
3FE7F0
0F8380
ENDCHAR
STARTCHAR 01E2
ENCODING 482
SWIDTH 812 0
DWIDTH 39 0
BBX 38 38 0 0
BITMAP
0003FFFF00
0003FFFF80
0007FFFF00
0007FFFF00
0003FFFF00
0000000000
0000000000
0000000000
007FFFFFF0
007FFFFFF8
000FFF0070
0007FF0070
000F3F0070
000F3F0030
000F3F0030
001E3F0030
001E3F0000
003C3F0000
003C3F0000
003C3F0000
00783F0000
007FFFFFC0
00FFFFFF80
00F03F0180
00E03F0000
01E03F0000
01E03F0000
03C03F0000
03C03F0000
03803F0000
07803F0000
07803F000C
0F003F000C
0F003F001C
0E003F001C
1F007F807C
FFC1FFFFF8
FFC1FFFFF8
ENDCHAR
STARTCHAR 01E3
ENCODING 483
SWIDTH 729 0
DWIDTH 35 0
BBX 33 31 1 0
BITMAP
007FFFE000
00FFFFF000
00FFFFE000
00FFFFC000
0000000000
0000000000
0000000000
0000000000
0000000000
003F03E000
01FF9FF800
07FFFC3E00
0F87F81E00
1F03F01F00
3F03F00F00
7F03E00F80
7803E00F80
0003E00F80
007FFFFF80
03FFFFFE00
0FC3E00000
3F03E00000
7E03E00000
7C03F00000
FC03F00100
FC07F80700
FE1FFC1F00
FFFCFFFE00
7FF87FFC00
7FE03FF000
1F800FC000
ENDCHAR
STARTCHAR 01E6
ENCODING 486
SWIDTH 604 0
DWIDTH 29 0
BBX 27 42 1 0
BITMAP
01000800
01801C00
03E03C00
00F07800
007DF000
007FE000
003FE000
001FC000
000F8000
00070000
00000000
00000000
000FF800
007FFF80
01F07F80
03C03F00
07800F00
0F000E00
1F000000
3E000000
3E000000
7E000000
7C000000
7C000000
FC000000
FC000000
FC01FFE0
FC01FFE0
FC007FC0
FC001F80
FC001F80
FE001F80
7E001F80
7F001F80
7F001F80
3F801F80
3FC01F80
1FF03F00
0FFFFE00
07FFFC00
01FFF000
003F8000
ENDCHAR
STARTCHAR 01E7
ENCODING 487
SWIDTH 520 0
DWIDTH 25 0
BBX 25 46 0 -11
BITMAP
04002000
0F007000
0780F000
03C3E000
03E7C000
01FF8000
00FF8000
007F0000
007E0000
003C0000
00000000
00000000
00000000
007E0180
03FFDF80
0787FF00
0F03FE00
1E01F000
1E00F800
3E00F800
3E00F800
3E00F800
3E00F800
3F00F000
1F81E000
0FC3C000
07FF8000
01FE0000
03E00000
07C00000
0FC00000
1FFE0000
1FFFF000
0FFFFC00
07FFFE00
0F9FFF00
3E007F00
7C003F00
FC001F00
FC001E00
FE001E00
FF003C00
7FC0F800
3FFFF000
0FFFC000
01FE0000
ENDCHAR
STARTCHAR 01E8
ENCODING 488
SWIDTH 625 0
DWIDTH 30 0
BBX 29 42 1 0
BITMAP
02001000
03801800
03C07C00
01F0F000
00FBF000
007FE000
003FC000
003F8000
001F0000
000E0000
00000000
00000000
FFF0FFE0
FFF0FFE0
3FC01F00
1F803E00
1F807C00
1F80F800
1F81F000
1F81E000
1F83C000
1F878000
1F8F0000
1F9F0000
1FBE0000
1FBC0000
1FFC0000
1FFE0000
1FBF0000
1F9F8000
1F8FC000
1F87E000
1F87F000
1F83F800
1F81FC00
1F80FE00
1F807E00
1F807F00
1F803FC0
3FC01FF0
FFF00FF8
FFF00780
ENDCHAR
STARTCHAR 01E9
ENCODING 489
SWIDTH 541 0
DWIDTH 26 0
BBX 26 47 1 0
BITMAP
07003000
07807800
03E1F000
01F3E000
00FFC000
007F8000
007F0000
003E0000
001E0000
00000000
00000000
01800000
3F800000
FF800000
FF800000
1F800000
1F800000
1F800000
1F800000
1F800000
1F800000
1F800000
1F800000
1F800000
1F800000
1F81FF80
1F81FF80
1F80FC00
1F80F800
1F83E000
1F87C000
1F8F8000
1F9E0000
1FBC0000
1FFC0000
1FBE0000
1FBF0000
1F9F8000
1F8FC000
1F87E000
1F87F000
1F83F800
1F81FC00
1F80FC00
3F80FFC0
FFF07FC0
FFF03E00
ENDCHAR
STARTCHAR 01EE
ENCODING 494
SWIDTH 541 0
DWIDTH 26 0
BBX 22 43 2 0
BITMAP
100040
1C00E0
1E01E0
0F03C0
07CF80
03FF00
03FF00
01FE00
00FC00
007800
007800
000000
000000
3FFFF0
3FFFF8
7807F0
7007E0
700FC0
601FC0
603F80
003F00
007E00
00FE00
00FC00
01FF80
03FFE0
07FFF0
0707F8
0401F8
0000FC
0000FC
00007C
00007C
00007C
00007C
100078
3800F8
7C00F8
7E01F0
FF03E0
7FFFC0
1FFF00
03F800
ENDCHAR
STARTCHAR 01EF
ENCODING 495
SWIDTH 479 0
DWIDTH 23 0
BBX 21 45 1 -11
BITMAP
100080
3C03C0
1E0780
0F9F00
07FE00
03FE00
03FC00
01F800
00F000
000000
000000
000000
7FFFF0
7FFFF0
7807E0
700FE0
601FC0
601F80
603F00
007F00
00FE00
00FC00
01F800
03F000
07F000
07E000
0FFE00
1FFF80
0C1FC0
0007E0
0003F0
0003F0
0001F8
0001F8
0001F8
0001F8
0001F8
1801F8
3801F0
FC03F0
FE03E0
FF0FC0
7FFF00
3FFE00
07F000
ENDCHAR
STARTCHAR 01F4
ENCODING 500
SWIDTH 604 0
DWIDTH 29 0
BBX 27 42 1 0
BITMAP
00004000
00007000
0000F800
0001FC00
0003FE00
0007F800
000FE000
001F8000
003E0000
00380000
00200000
00000000
000FF800
007FFF80
01F07F80
03C03F00
07800F00
0F000E00
1F000000
3E000000
3E000000
7E000000
7C000000
7C000000
FC000000
FC000000
FC01FFE0
FC01FFE0
FC007FC0
FC001F80
FC001F80
FE001F80
7E001F80
7F001F80
7F001F80
3F801F80
3FC01F80
1FF03F00
0FFFFE00
07FFFC00
01FFF000
003F8000
ENDCHAR
STARTCHAR 01F5
ENCODING 501
SWIDTH 520 0
DWIDTH 25 0
BBX 25 46 0 -11
BITMAP
00038000
0007E000
0007F000
000FC000
000F8000
001F0000
001E0000
003C0000
00380000
00700000
00200000
00000000
00000000
007E0180
03FFDF80
0787FF00
0F03FE00
1E01F000
1E00F800
3E00F800
3E00F800
3E00F800
3E00F800
3F00F000
1F81E000
0FC3C000
07FF8000
01FE0000
03E00000
07C00000
0FC00000
1FFE0000
1FFFF000
0FFFFC00
07FFFE00
0F9FFF00
3E007F00
7C003F00
FC001F00
FC001E00
FE001E00
FF003C00
7FC0F800
3FFFF000
0FFFC000
01FE0000
ENDCHAR
STARTCHAR 01F8
ENCODING 504
SWIDTH 666 0
DWIDTH 32 0
BBX 30 42 1 0
BITMAP
00200000
00700000
00F80000
01FC0000
01FE0000
00FF0000
003F8000
000FC000
0003E000
0000E000
00004000
00000000
FF000FFC
FF800FFC
3FC003F0
1FC001E0
1FE001E0
1FF001E0
1FF001E0
1FF801E0
1FFC01E0
1EFE01E0
1E7E01E0
1E3F01E0
1E3F81E0
1E1F81E0
1E0FC1E0
1E07E1E0
1E07E1E0
1E03F1E0
1E01F9E0
1E01FDE0
1E00FDE0
1E007FE0
1E003FE0
1E003FE0
1E001FE0
1E000FE0
1E0007E0
3F0007E0
FFC003E0
FFC000E0
ENDCHAR
STARTCHAR 01F9
ENCODING 505
SWIDTH 583 0
DWIDTH 28 0
BBX 26 35 1 0
BITMAP
00700000
03F80000
03F80000
01FC0000
00FC0000
007E0000
003E0000
001F0000
000F0000
00078000
00030000
00000000
00000000
0301F000
7F87FC00
FF9FFC00
3FBFFE00
1FF8FE00
1FE07E00
1FC07E00
1F807E00
1F807E00
1F807E00
1F807E00
1F807E00
1F807E00
1F807E00
1F807E00
1F807E00
1F807E00
1F807E00
1F807E00
3FC0FF00
FFF3FFC0
FFF3FFC0
ENDCHAR
STARTCHAR 01FA
ENCODING 506
SWIDTH 625 0
DWIDTH 30 0
BBX 30 52 0 0
BITMAP
00002000
00007800
0000FC00
0001FE00
0003FE00
0007F800
000FE000
001F8000
003E0000
00180000
00010000
000FE000
001FE000
001CF000
003CF000
003CF000
003CE000
003FE000
001F8000
00040000
00000000
00000000
00018000
00078000
000FC000
001FC000
001FE000
001FE000
003FE000
003FF000
003BF000
0079F000
0079F800
0071F800
00F0FC00
00F0FC00
00E0FC00
01E07E00
01E07E00
01C07E00
03FFFF00
03FFFF00
03801F00
07801F80
07001F80
07000FC0
0F000FC0
0E000FC0
0E0007E0
1E0007E0
FFC03FFC
FFC03FFC
ENDCHAR
STARTCHAR 01FB
ENCODING 507
SWIDTH 500 0
DWIDTH 24 0
BBX 23 45 1 0
BITMAP
000FC0
000FC0
001FE0
001F80
003F00
003E00
007C00
007800
00F000
00E000
004000
003C00
00FE00
01EF00
03CF00
03CF00
03CF00
03EE00
01FC00
00F800
000000
000000
000000
00FF00
0FFF80
1F0FC0
3E07E0
7E07E0
FC07E0
6007E0
0007E0
001FE0
01FFE0
07FFE0
1FE7E0
3F87E0
3F07E0
7E07E0
7E07E0
7E07E0
7E1FE4
7F3FFC
3FF7FE
3FE7F0
0F8380
ENDCHAR
STARTCHAR 01FC
ENCODING 508
SWIDTH 812 0
DWIDTH 39 0
BBX 38 42 0 0
BITMAP
0000002000
0000003000
0000007C00
000001FE00
000003FE00
000007F800
00000FE000
00001F8000
00003E0000
00003C0000
0000100000
0000000000
007FFFFFF0
007FFFFFF8
000FFF0070
0007FF0070
000F3F0070
000F3F0030
000F3F0030
001E3F0030
001E3F0000
003C3F0000
003C3F0000
003C3F0000
00783F0000
007FFFFFC0
00FFFFFF80
00F03F0180
00E03F0000
01E03F0000
01E03F0000
03C03F0000
03C03F0000
03803F0000
07803F0000
07803F000C
0F003F000C
0F003F001C
0E003F001C
1F007F807C
FFC1FFFFF8
FFC1FFFFF8
ENDCHAR
STARTCHAR 01FD
ENCODING 509
SWIDTH 729 0
DWIDTH 35 0
BBX 33 35 1 0
BITMAP
00001C0000
00003F8000
00003F8000
00007F0000
00007E0000
0000F80000
0000F00000
0001E00000
0001C00000
0003800000
0001000000
0000000000
0000000000
003F03E000
01FF9FF800
07FFFC3E00
0F87F81E00
1F03F01F00
3F03F00F00
7F03E00F80
7803E00F80
0003E00F80
007FFFFF80
03FFFFFE00
0FC3E00000
3F03E00000
7E03E00000
7C03F00000
FC03F00100
FC07F80700
FE1FFC1F00
FFFCFFFE00
7FF87FFC00
7FE03FF000
1F800FC000
ENDCHAR
STARTCHAR 01FE
ENCODING 510
SWIDTH 625 0
DWIDTH 30 0
BBX 27 43 1 -1
BITMAP
00004000
00006000
0000F800
0003FC00
0007FC00
000FF000
001FC000
003F0000
007C0000
00780000
00200000
00000000
001FC3E0
00FFF7C0
03E1FF80
07807F00
0F003F00
1F003F80
1E007F80
3E00FFC0
7E00FFC0
7C01FFC0
7C03EFE0
FC03E7E0
FC07C7E0
FC0F87E0
FC0F07E0
FC1F07E0
FC3E07E0
FC3C07E0
FC7807C0
FEF807C0
7FF00FC0
7FE00F80
7FC00F80
3F801F00
3F801F00
1FC03E00
1FF0FC00
3FFFF000
79FFE000
F87F0000
C0000000
ENDCHAR
STARTCHAR 01FF
ENCODING 511
SWIDTH 520 0
DWIDTH 25 0
BBX 21 36 2 -1
BITMAP
000F00
000FC0
001FC0
001F80
003F00
003E00
007C00
007800
00F000
00E000
01C000
000000
000018
00FC38
03FFF0
0F0FE0
1E07E0
3E03F0
3C07F0
7C0FF0
7C1FF8
FC1DF8
FC39F8
FC79F8
FCF1F8
FCE1F8
FDC1F8
FFC1F0
7F81F0
7F01E0
3E03E0
3F03C0
3F8780
7FFE00
71F800
C00000
ENDCHAR
STARTCHAR 021E
ENCODING 542
SWIDTH 687 0
DWIDTH 33 0
BBX 30 42 1 0
BITMAP
00800400
00C00E00
01F01E00
00787C00
007EF800
003FF000
001FE000
000FC000
0007C000
00038000
00000000
00000000
FFF03FFC
FFF03FFC
3FC00FF0
1F8007E0
1F8007E0
1F8007E0
1F8007E0
1F8007E0
1F8007E0
1F8007E0
1F8007E0
1F8007E0
1F8007E0
1F8007E0
1FFFFFE0
1FFFFFE0
1F8007E0
1F8007E0
1F8007E0
1F8007E0
1F8007E0
1F8007E0
1F8007E0
1F8007E0
1F8007E0
1F8007E0
1F8007E0
3FC00FF0
FFF03FFC
FFF03FFC
ENDCHAR
STARTCHAR 021F
ENCODING 543
SWIDTH 583 0
DWIDTH 28 0
BBX 26 47 1 0
BITMAP
03001800
07807800
03E0F000
01F3E000
00FFC000
007F8000
003F8000
001F0000
000E0000
00000000
00000000
01800000
3F800000
FF800000
FF800000
1F800000
1F800000
1F800000
1F800000
1F800000
1F800000
1F800000
1F800000
1F800000
1F800000
1F81F000
1F8FFC00
1F9FFC00
1FFFFE00
1FF8FE00
1FE07E00
1FC07E00
1F807E00
1F807E00
1F807E00
1F807E00
1F807E00
1F807E00
1F807E00
1F807E00
1F807E00
1F807E00
1F807E00
1F807E00
3FC0FF00
FFF3FFC0
FFF3FFC0
ENDCHAR
STARTCHAR 0226
ENCODING 550
SWIDTH 625 0
DWIDTH 30 0
BBX 30 40 0 0
BITMAP
00020000
00078000
000FC000
000FC000
000FC000
000F8000
000F8000
00020000
00000000
00000000
00018000
00078000
000FC000
001FC000
001FE000
001FE000
003FE000
003FF000
003BF000
0079F000
0079F800
0071F800
00F0FC00
00F0FC00
00E0FC00
01E07E00
01E07E00
01C07E00
03FFFF00
03FFFF00
03801F00
07801F80
07001F80
07000FC0
0F000FC0
0E000FC0
0E0007E0
1E0007E0
FFC03FFC
FFC03FFC
ENDCHAR
STARTCHAR 0227
ENCODING 551
SWIDTH 500 0
DWIDTH 24 0
BBX 23 33 1 0
BITMAP
003800
007C00
00FC00
00FC00
00FC00
00F800
007000
000000
000000
000000
000000
00FF00
0FFF80
1F0FC0
3E07E0
7E07E0
FC07E0
6007E0
0007E0
001FE0
01FFE0
07FFE0
1FE7E0
3F87E0
3F07E0
7E07E0
7E07E0
7E07E0
7E1FE4
7F3FFC
3FF7FE
3FE7F0
0F8380
ENDCHAR
STARTCHAR 0228
ENCODING 552
SWIDTH 520 0
DWIDTH 25 0
BBX 23 40 1 -10
BITMAP
FFFFF8
FFFFFC
3F8038
1F8038
1F8018
1F8018
1F8018
1F8018
1F8000
1F8000
1F8000
1F8000
1F8000
1FFFE0
1FFFE0
1F80C0
1F8000
1F8000
1F8000
1F8000
1F8000
1F8000
1F8000
1F8006
1F8006
1F800E
1F800E
3FC01E
FFFFFE
FFFFFC
003800
003800
007C00
007F00
007F00
001F00
001F00
003E00
01F800
00E000
ENDCHAR
STARTCHAR 0229
ENCODING 553
SWIDTH 500 0
DWIDTH 24 0
BBX 21 32 1 -10
BITMAP
007E00
03FF80
0F87E0
1E03F0
3E03F0
3C01F8
7C01F8
7C01F8
FFFFF8
FFFFE0
FC0000
FC0000
FC0000
FE0000
FE0000
7E0010
7F0078
3FC1F0
3FFFE0
1FFFC0
07FF00
01FC00
003000
007000
007E00
007F00
00FF00
003F00
003E00
007C00
03F800
01C000
ENDCHAR
STARTCHAR 022A
ENCODING 554
SWIDTH 625 0
DWIDTH 30 0
BBX 27 45 1 0
BITMAP
07FFFF00
07FFFF00
0FFFFE00
07FFFE00
00000000
00802000
01F07C00
01F07C00
03F0FC00
03F0FC00
03F0FC00
03E0F800
00802000
00000000
00000000
001FC000
00FFF000
03E1FC00
07807E00
0F003F00
1F001F00
1E001F80
3E000F80
7E000FC0
7C000FC0
7C0007E0
FC0007E0
FC0007E0
FC0007E0
FC0007E0
FC0007E0
FC0007E0
FC0007E0
FC0007E0
FE0007C0
7E000FC0
7E000F80
7F000F80
3F001F00
1F801F00
1FC03E00
0FF0FC00
07FFF000
01FFE000
007F0000
ENDCHAR
STARTCHAR 022B
ENCODING 555
SWIDTH 520 0
DWIDTH 25 0
BBX 21 40 2 0
BITMAP
1FFFF8
3FFFF8
3FFFF8
7FFFF0
000000
000000
000000
0701C0
0F83E0
1F87E0
1F87E0
1F87E0
1F07C0
0E0380
000000
000000
000000
000000
00FC00
03FF00
0F0FC0
1E07E0
3E07E0
3E03F0
7C03F0
7C01F8
FC01F8
FC01F8
FC01F8
FC01F8
FC01F8
FC01F8
FC01F0
7E01F0
7E03E0
3E03E0
3F03C0
1F8780
07FE00
01F800
ENDCHAR
STARTCHAR 022C
ENCODING 556
SWIDTH 625 0
DWIDTH 30 0
BBX 27 46 1 0
BITMAP
07FFFF00
07FFFF00
0FFFFF00
0FFFFE00
00000000
00000000
00200800
00FE0E00
01FFFE00
01FFFC00
03FFF800
07FFF800
0607F000
02008000
00000000
00000000
001FC000
00FFF000
03E1FC00
07807E00
0F003F00
1F001F00
1E001F80
3E000F80
7E000FC0
7C000FC0
7C0007E0
FC0007E0
FC0007E0
FC0007E0
FC0007E0
FC0007E0
FC0007E0
FC0007E0
FC0007E0
FE0007C0
7E000FC0
7E000F80
7F000F80
3F001F00
1F801F00
1FC03E00
0FF0FC00
07FFF000
01FFE000
007F0000
ENDCHAR
STARTCHAR 022D
ENCODING 557
SWIDTH 520 0
DWIDTH 25 0
BBX 22 40 2 0
BITMAP
1FFFF8
3FFFFC
3FFFF8
3FFFF0
000000
000000
000000
03C030
07F030
0FFC60
1FFFE0
1FFFC0
387F80
300F00
000000
000000
000000
000000
00FC00
03FF00
0F0FC0
1E07E0
3E07E0
3E03F0
7C03F0
7C01F8
FC01F8
FC01F8
FC01F8
FC01F8
FC01F8
FC01F8
FC01F0
7E01F0
7E03E0
3E03E0
3F03C0
1F8780
07FE00
01F800
ENDCHAR
STARTCHAR 022E
ENCODING 558
SWIDTH 625 0
DWIDTH 30 0
BBX 27 40 1 0
BITMAP
00040000
000F8000
000F8000
001F8000
001F8000
001F8000
001F0000
00040000
00000000
00000000
001FC000
00FFF000
03E1FC00
07807E00
0F003F00
1F001F00
1E001F80
3E000F80
7E000FC0
7C000FC0
7C0007E0
FC0007E0
FC0007E0
FC0007E0
FC0007E0
FC0007E0
FC0007E0
FC0007E0
FC0007E0
FE0007C0
7E000FC0
7E000F80
7F000F80
3F001F00
1F801F00
1FC03E00
0FF0FC00
07FFF000
01FFE000
007F0000
ENDCHAR
STARTCHAR 022F
ENCODING 559
SWIDTH 520 0
DWIDTH 25 0
BBX 21 33 2 0
BITMAP
003800
007C00
00FC00
00FC00
00FC00
00F800
007000
000000
000000
000000
000000
00FC00
03FF00
0F0FC0
1E07E0
3E07E0
3E03F0
7C03F0
7C01F8
FC01F8
FC01F8
FC01F8
FC01F8
FC01F8
FC01F8
FC01F0
7E01F0
7E03E0
3E03E0
3F03C0
1F8780
07FE00
01F800
ENDCHAR
STARTCHAR 0230
ENCODING 560
SWIDTH 625 0
DWIDTH 30 0
BBX 27 45 1 0
BITMAP
07FFFF00
07FFFF00
0FFFFF00
0FFFFE00
00000000
00040000
000F8000
000F8000
001F8000
001F8000
001F8000
001F0000
00040000
00000000
00000000
001FC000
00FFF000
03E1FC00
07807E00
0F003F00
1F001F00
1E001F80
3E000F80
7E000FC0
7C000FC0
7C0007E0
FC0007E0
FC0007E0
FC0007E0
FC0007E0
FC0007E0
FC0007E0
FC0007E0
FC0007E0
FE0007C0
7E000FC0
7E000F80
7F000F80
3F001F00
1F801F00
1FC03E00
0FF0FC00
07FFF000
01FFE000
007F0000
ENDCHAR
STARTCHAR 0231
ENCODING 561
SWIDTH 520 0
DWIDTH 25 0
BBX 21 39 2 0
BITMAP
3FFFF8
3FFFF8
7FFFF0
3FFFF0
000000
000000
003800
007C00
00FC00
00FC00
00FC00
00F800
007000
000000
000000
000000
000000
00FC00
03FF00
0F0FC0
1E07E0
3E07E0
3E03F0
7C03F0
7C01F8
FC01F8
FC01F8
FC01F8
FC01F8
FC01F8
FC01F8
FC01F0
7E01F0
7E03E0
3E03E0
3F03C0
1F8780
07FE00
01F800
ENDCHAR
STARTCHAR 0232
ENCODING 562
SWIDTH 604 0
DWIDTH 29 0
BBX 29 38 0 0
BITMAP
03FFFF00
03FFFF80
07FFFF00
07FFFF00
03FFFF00
00000000
00000000
00000000
7F001FF8
FF801FF8
1FC003C0
0FC00380
07E00780
03F00700
03F00F00
01F80E00
01F81E00
00FC1C00
007C3C00
007E3800
003F7800
003FF000
001FF000
001FE000
000FE000
000FC000
000FC000
000FC000
000FC000
000FC000
000FC000
000FC000
000FC000
000FC000
000FC000
001FE000
00FFFC00
00FFFC00
ENDCHAR
STARTCHAR 0233
ENCODING 563
SWIDTH 500 0
DWIDTH 24 0
BBX 25 42 -1 -11
BITMAP
07FFFF00
07FFFF00
0FFFFE00
0FFFFE00
00000000
00000000
00000000
00000000
00000000
7FF07F80
7FF07F80
1FC01E00
0FC01C00
0FC01C00
07E03C00
07E03800
03F03800
03F07000
01F07000
01F8F000
01F8E000
00FCE000
00FDE000
007DC000
007FC000
007F8000
003F8000
003F8000
001F0000
001F0000
000E0000
000E0000
001E0000
001C0000
003C0000
00780000
20F80000
3FF00000
7FE00000
FFC00000
FF800000
7E000000
ENDCHAR
STARTCHAR 0237
ENCODING 567
SWIDTH 291 0
DWIDTH 14 0
BBX 17 33 -7 -11
BITMAP
000380
007F80
00FF80
007F80
001F80
001F80
001F80
001F80
001F80
001F80
001F80
001F80
001F80
001F80
001F80
001F80
001F80
001F80
001F80
001F80
001F80
001F80
001F80
001F80
001F00
001F00
003E00
103E00
3C7C00
7FF800
FFE000
FFC000
3F0000
ENDCHAR
STARTCHAR 023D
ENCODING 573
SWIDTH 500 0
DWIDTH 24 0
BBX 23 30 1 0
BITMAP
FFF000
FFF000
3FC000
1F8000
1F8000
1F8000
1F8000
1F8000
1F8000
1F8000
1F8000
1F8000
1F8000
1F8000
1F8000
FFFF80
FFFF00
1F8000
1F8000
1F8000
1F8000
1F8000
1F8000
1F8004
1F8006
1F800E
1F801E
3FC03C
FFFFFC
FFFFFC
ENDCHAR
STARTCHAR 0241
ENCODING 577
SWIDTH 479 0
DWIDTH 23 0
BBX 21 30 1 0
BITMAP
01FF00
0FFFC0
3F0FE0
7E03F0
7C03F0
FC01F8
FC01F8
FC01F8
FC01F8
E001F8
0003F0
0003F0
0007E0
001FC0
003F80
003E00
007E00
00FC00
00FC00
00FC00
00FC00
00FC00
00FC00
00FC00
00FC00
00FC00
00FC00
01FE00
0FFFC0
0FFFC0
ENDCHAR
STARTCHAR 0242
ENCODING 578
SWIDTH 458 0
DWIDTH 22 0
BBX 19 22 1 0
BITMAP
03FE00
1FFF80
3E1FC0
7C0FE0
FC07E0
FC07E0
FC07E0
F007E0
000FC0
001F80
003E00
00FC00
01F800
01F000
03F000
03F000
03F000
03F000
03F000
07F800
3FFF00
3FFF00
ENDCHAR
STARTCHAR 0244
ENCODING 580
SWIDTH 666 0
DWIDTH 32 0
BBX 29 30 1 0
BITMAP
FFF01FF8
FFF01FF8
3FC007E0
1F8003C0
1F8003C0
1F8003C0
1F8003C0
1F8003C0
1F8003C0
1F8003C0
1F8003C0
1F8003C0
1F8003C0
1F8003C0
FFFFFFF8
FFFFFFF8
1F8003C0
1F8003C0
1F8003C0
1F8003C0
1F8003C0
1F8003C0
1FC00780
0FC00780
0FC00700
07E00F00
07F83E00
03FFFC00
00FFF800
001FC000
ENDCHAR
STARTCHAR 0245
ENCODING 581
SWIDTH 666 0
DWIDTH 32 0
BBX 31 30 0 0
BITMAP
0000C000
0003C000
0007C000
000FE000
000FE000
000FE000
001FF000
001FF000
001DF800
003DF800
0038F800
0078FC00
0078FC00
00707E00
00F07E00
00E03E00
00E03F00
01E03F00
01C01F80
01C01F80
03C00F80
03800FC0
07800FC0
078007E0
070007E0
0F0007E0
0F0003F0
1F0003F8
FFC01FFE
FFC01FFE
ENDCHAR
STARTCHAR 024A
ENCODING 586
SWIDTH 666 0
DWIDTH 32 0
BBX 37 41 1 -11
BITMAP
001FC04000
007FF0E000
01FFFFE000
03FFFFC000
07F0FFC000
0FC03FC000
1F801FC000
1F000FC000
3E000FC000
7E000FC000
7E000FC000
7C000FC000
FC000FC000
FC000FC000
FC000FC000
FC000FC000
FC000FC000
FC000FC000
FC000FC000
FE000FC000
7E000FC000
7F001FC000
7F003FC000
3F807FC000
3FE1FFC000
1FFFEFC000
1FFFCFC000
0FFF8FC000
03FF0FC000
00FC0FC000
00000FC000
00000FC000
00000FC000
00000FC010
00000FC0F8
00000FC1F8
00000FC1F8
000007C1F0
000007E3E0
000003FF80
000000FE00
ENDCHAR
STARTCHAR 024B
ENCODING 587
SWIDTH 541 0
DWIDTH 26 0
BBX 32 33 2 -11
BITMAP
007C0800
01FF1C00
07FFF800
0F87F800
1E03F800
3E01F800
7C01F800
7C01F800
FC01F800
FC01F800
FC01F800
FC01F800
FC01F800
FC01F800
FE01F800
7E01F800
7F03F800
7F8FF800
3FFFF800
1FFDF800
0FF9F800
07E1F800
0001F800
0001F800
0001F800
0001F802
0001F81F
0001F83F
0001F83E
0000FC3E
0000FC7C
00007FF0
00001FC0
ENDCHAR
STARTCHAR 0251
ENCODING 593
SWIDTH 541 0
DWIDTH 26 0
BBX 24 22 2 0
BITMAP
00FC10
03FE30
0FFFF0
1F8FF0
3E07F0
3E03F0
7C03F0
7C03F0
FC03F0
FC03F0
FC03F0
FC03F0
FC03F0
FC03F0
FE03F0
FE03F0
7F07F0
7F8FF2
3FFFFF
3FFBFC
1FF3F8
07C1C0
ENDCHAR
STARTCHAR 0253
ENCODING 595
SWIDTH 541 0
DWIDTH 26 0
BBX 21 37 3 0
BITMAP
003F00
01FFC0
03FFE0
0FFFF0
1F8FE0
1F03E0
3E01C0
7E0100
7E0000
7C0000
FC0000
FC0000
FC0000
FC0000
FC0000
FC1F00
FC7FC0
FDFFE0
FFFFE0
FF87F0
FE03F0
FC01F8
FC01F8
FC00F8
FC00F8
FC00F8
FC00F8
FC00F8
FC00F0
FC00F0
FC01E0
FC01C0
FF83C0
FFFF80
7FFE00
1FFC00
03F000
ENDCHAR
STARTCHAR 0254
ENCODING 596
SWIDTH 479 0
DWIDTH 23 0
BBX 20 22 1 0
BITMAP
03F800
0FFE00
1FFF00
3FFF80
783FC0
E00FE0
400FE0
0007F0
0003F0
0003F0
0003F0
0203F0
3E03F0
7F03F0
FC03E0
FC03E0
FC07C0
FC07C0
FE0F80
7F1F00
3FFC00
07F000
ENDCHAR
STARTCHAR 0256
ENCODING 598
SWIDTH 562 0
DWIDTH 27 0
BBX 32 47 2 -11
BITMAP
00003800
000FF800
000FF800
0003F800
0001F800
0001F800
0001F800
0001F800
0001F800
0001F800
0001F800
0001F800
0001F800
0001F800
00F9F800
07FFF800
0FFFF800
1F87F800
3F03F800
3E01F800
7E01F800
7C01F800
FC01F800
FC01F800
FC01F800
FC01F800
FC01F800
FC01F800
FE01F800
7E01F800
7F03F800
7F87F800
3FFFF800
1FFDF800
0FF9F800
03E1F800
0001F800
0001F800
0001F800
0001F802
0001F81F
0001F83F
0001F83E
0000FC3E
0000FC7C
00007FF0
00001FC0
ENDCHAR
STARTCHAR 0257
ENCODING 599
SWIDTH 562 0
DWIDTH 27 0
BBX 31 37 2 0
BITMAP
000001E0
000007F8
00001FFC
00003FFE
00007C7C
00007C78
0000F830
0000F820
0001F800
0001F800
0001F800
0001F800
0001F800
0001F800
0001F800
00FDF800
07FFF800
0FFFF800
1F87F800
3F03F800
3E01F800
7E01F800
7C01F800
FC01F800
FC01F800
FC01F800
FC01F800
FC01F800
FC01F800
FE01F800
7E01F800
7F03F800
7F87FF00
3FFFFF80
1FFDFE00
0FF8FC00
03E0E000
ENDCHAR
STARTCHAR 0259
ENCODING 601
SWIDTH 479 0
DWIDTH 23 0
BBX 20 22 1 0
BITMAP
01F800
0FFF00
1FFF80
3FFFC0
783FC0
E00FE0
8007E0
0007F0
0003F0
0003F0
0003F0
1FFFF0
7FFFF0
FC03F0
FC03E0
FC03E0
FC07C0
7C07C0
7E0780
3F0F00
1FFE00
03F800
ENDCHAR
STARTCHAR 025B
ENCODING 603
SWIDTH 437 0
DWIDTH 21 0
BBX 19 22 2 0
BITMAP
01FE00
0FFFC0
1F0F80
3C0780
7C0380
7C0300
7C0000
7E0000
7F8000
3FF000
0FF000
0F8000
3E0000
7C0000
7C0000
FC0040
FE00E0
FF07C0
FFFF80
7FFF00
3FFC00
07F000
ENDCHAR
STARTCHAR 0263
ENCODING 611
SWIDTH 500 0
DWIDTH 24 0
BBX 24 33 0 -11
BITMAP
FFE0FF
FFE0FF
3F803C
1F8038
1F8078
0FC070
0FC0F0
07E0E0
07E1E0
03F1C0
03F3C0
01FB80
01FF80
00FF00
00FF00
007E00
007E00
003F00
003F00
007F80
007F80
00FFC0
00FFC0
01E7C0
01E7E0
03C7E0
03C3E0
03C3E0
03C3E0
03E7C0
01FFC0
00FF00
007E00
ENDCHAR
STARTCHAR 0268
ENCODING 616
SWIDTH 291 0
DWIDTH 14 0
BBX 14 32 0 0
BITMAP
03C0
07E0
0FE0
0FE0
0FC0
0780
0000
0000
0000
0000
01C0
3FC0
7FC0
3FC0
0FC0
0FC0
0FC0
0FC0
0FC0
0FC0
7FFC
FFF8
0FC0
0FC0
0FC0
0FC0
0FC0
0FC0
0FC0
1FE0
7FF8
7FF8
ENDCHAR
STARTCHAR 0269
ENCODING 617
SWIDTH 333 0
DWIDTH 16 0
BBX 15 22 1 0
BITMAP
0380
7F80
FF80
3F80
1F80
1F80
1F80
1F80
1F80
1F80
1F80
1F80
1F80
1F80
1F80
1F80
1F86
1FFE
1FFC
1FF8
0FE0
0780
ENDCHAR
STARTCHAR 026B
ENCODING 619
SWIDTH 375 0
DWIDTH 18 0
BBX 18 36 0 0
BITMAP
003000
07F000
1FF000
0FF000
03F000
03F000
03F000
03F000
03F000
03F000
03F000
03F000
03F000
03F000
0FF0C0
1FF0C0
3FF3C0
7FFF80
7FFF00
E3FE00
C3FC00
83F000
03F000
03F000
03F000
03F000
03F000
03F000
03F000
03F000
03F000
03F000
03F000
03F800
1FFE00
1FFE00
ENDCHAR
STARTCHAR 0272
ENCODING 626
SWIDTH 583 0
DWIDTH 28 0
BBX 34 33 -7 -11
BITMAP
000301F000
007F87FC00
00FF9FFC00
003FBFFE00
001FF8FE00
001FE07E00
001FC07E00
001F807E00
001F807E00
001F807E00
001F807E00
001F807E00
001F807E00
001F807E00
001F807E00
001F807E00
001F807E00
001F807E00
001F807E00
001F80FF00
001F83FFC0
001F83FFC0
001F800000
001F800000
001F000000
001F000000
003E000000
103E000000
3C7C000000
7FF8000000
FFE0000000
FFC0000000
3F00000000
ENDCHAR
STARTCHAR 0275
ENCODING 629
SWIDTH 520 0
DWIDTH 25 0
BBX 21 22 2 0
BITMAP
00FC00
03FF00
0F8FC0
1E07E0
3E03E0
3E03F0
7C03F0
7C01F8
FC01F8
FC01F8
FFFFF8
FFFFF8
FC01F8
FC01F8
FC01F0
7E01F0
7E03E0
3E03E0
3F03C0
1F8780
07FE00
01F800
ENDCHAR
STARTCHAR 0283
ENCODING 643
SWIDTH 291 0
DWIDTH 14 0
BBX 26 48 -6 -11
BITMAP
00007C00
0001FF80
0007FFC0
000FFF80
000F9F00
001F0600
003E0400
003E0000
007E0000
007E0000
007E0000
007E0000
007E0000
007E0000
007E0000
007E0000
007F0000
007F0000
003F0000
003F0000
003F0000
003F0000
003F0000
003F8000
001F8000
001F8000
001F8000
001F8000
001F8000
001FC000
001FC000
000FC000
000FC000
000FC000
000FC000
000FC000
000FC000
000FC000
000F8000
000F8000
000F8000
000F0000
181E0000
3E3E0000
7FFC0000
FFF00000
7FE00000
1F800000
ENDCHAR
STARTCHAR 0289
ENCODING 649
SWIDTH 583 0
DWIDTH 28 0
BBX 27 22 1 0
BITMAP
03800E00
FF83FE00
FF83FE00
3F80FE00
1F807E00
1F807E00
1F807E00
1F807E00
1F807E00
1F807E00
7FFFFFC0
FFFFFFC0
1F807E00
1F807E00
1F807E00
1F807E00
1F81FE00
1FC3FF40
0FFFFFE0
0FFE7F80
07FC3F00
03F03800
ENDCHAR
STARTCHAR 028A
ENCODING 650
SWIDTH 500 0
DWIDTH 24 0
BBX 20 22 2 0
BITMAP
FF8FF0
FF9FF0
1FDF80
078F00
0F0780
1E03C0
3E03C0
7C03E0
7C01E0
FC01F0
FC01F0
FC01F0
FC01F0
FC01F0
FC01F0
FC01E0
7E03E0
7E03C0
3F07C0
1F8F80
0FFE00
03F800
ENDCHAR
STARTCHAR 028C
ENCODING 652
SWIDTH 520 0
DWIDTH 25 0
BBX 24 22 0 0
BITMAP
000C00
003C00
003E00
007E00
007F00
00FF00
00FF00
01FF80
01DF80
01CFC0
03CFC0
0387E0
0787E0
0703F0
0703F0
0F01F0
0E01F8
1E01F8
1C00FC
3C00FC
FF03FF
FF03FF
ENDCHAR
STARTCHAR 0292
ENCODING 658
SWIDTH 479 0
DWIDTH 23 0
BBX 21 33 1 -11
BITMAP
7FFFF0
7FFFF0
7807E0
700FE0
601FC0
601F80
603F00
007F00
00FE00
00FC00
01F800
03F000
07F000
07E000
0FFE00
1FFF80
0C1FC0
0007E0
0003F0
0003F0
0001F8
0001F8
0001F8
0001F8
0001F8
1801F8
3801F0
FC03F0
FE03E0
FF0FC0
7FFF00
3FFE00
07F000
ENDCHAR
STARTCHAR 0294
ENCODING 660
SWIDTH 479 0
DWIDTH 23 0
BBX 21 35 1 0
BITMAP
01FF00
0FFFC0
1F0FE0
3E07F0
7C03F0
FC01F8
FC01F8
FC01F8
FC01F8
4001F8
0001F0
0003F0
0007E0
0007C0
000F80
001F00
003E00
007E00
00FC00
00F800
01F800
01F800
01F800
01F800
01F800
01F800
01F800
01F800
01F800
01F800
01F800
01F800
03FC00
1FFF80
1FFF80
ENDCHAR
STARTCHAR 02A0
ENCODING 672
SWIDTH 541 0
DWIDTH 26 0
BBX 31 48 2 -11
BITMAP
000001E0
000007F8
00001FFC
00003FFE
00007C7C
00007C78
0000F830
0000F820
0001F800
0001F800
0001F800
0001F800
0001F800
0001F800
0001F800
007DF800
01FFF800
07FFF800
0F87F800
1E03F800
3E01F800
7C01F800
7C01F800
FC01F800
FC01F800
FC01F800
FC01F800
FC01F800
FC01F800
FE01F800
7E01F800
7F03F800
3F87F800
3FFFF800
1FFDF800
0FF9F800
03E1F800
0001F800
0001F800
0001F800
0001F800
0001F800
0001F800
0001F800
0001F800
0003FC00
001FFF00
001FFF00
ENDCHAR
STARTCHAR 02BC
ENCODING 700
SWIDTH 250 0
DWIDTH 12 0
BBX 8 13 2 22
BITMAP
0C
7E
FF
FF
3F
1F
0F
0F
0E
1E
1C
38
10
ENDCHAR
STARTCHAR 02C0
ENCODING 704
SWIDTH 333 0
DWIDTH 16 0
BBX 14 17 1 19
BITMAP
07E0
3FF8
7878
703C
F03C
F03C
003C
0078
00F0
01C0
0380
0780
0F00
0F00
0F00
0F00
0F00
ENDCHAR
STARTCHAR 02C6
ENCODING 710
SWIDTH 354 0
DWIDTH 17 0
BBX 17 11 0 24
BITMAP
01E000
03E000
07F000
07F800
0FF800
1FFC00
3F7E00
3C1E00
780F00
F00780
600100
ENDCHAR
STARTCHAR 02C7
ENCODING 711
SWIDTH 354 0
DWIDTH 17 0
BBX 16 10 1 25
BITMAP
C006
E00F
F01E
7C3C
3EF8
1FF8
1FF0
0FE0
07C0
03C0
ENDCHAR
STARTCHAR 02C9
ENCODING 713
SWIDTH 500 0
DWIDTH 24 0
BBX 20 4 2 27
BITMAP
7FFFF0
FFFFF0
FFFFE0
FFFFE0
ENDCHAR
STARTCHAR 02CA
ENCODING 714
SWIDTH 229 0
DWIDTH 11 0
BBX 11 11 0 24
BITMAP
0700
0FE0
0FE0
1FC0
1F80
3F00
3E00
7C00
7800
F000
6000
ENDCHAR
STARTCHAR 02CB
ENCODING 715
SWIDTH 229 0
DWIDTH 11 0
BBX 11 11 0 24
BITMAP
1C00
FE00
FE00
7F00
3F00
1F80
0F80
07C0
03C0
01E0
00C0
ENDCHAR
STARTCHAR 02CD
ENCODING 717
SWIDTH 500 0
DWIDTH 24 0
BBX 20 4 2 -5
BITMAP
7FFFF0
FFFFF0
FFFFE0
FFFFE0
ENDCHAR
STARTCHAR 02D7
ENCODING 727
SWIDTH 354 0
DWIDTH 17 0
BBX 15 3 1 11
BITMAP
7FFE
7FFC
FFFC
ENDCHAR
STARTCHAR 02D8
ENCODING 728
SWIDTH 354 0
DWIDTH 17 0
BBX 17 9 0 25
BITMAP
400100
E00380
700780
7C1F00
3FFF00
3FFE00
1FFC00
0FF800
03E000
ENDCHAR
STARTCHAR 02D9
ENCODING 729
SWIDTH 187 0
DWIDTH 9 0
BBX 6 7 2 26
BITMAP
38
7C
FC
FC
FC
F8
70
ENDCHAR
STARTCHAR 02DA
ENCODING 730
SWIDTH 250 0
DWIDTH 12 0
BBX 10 9 1 25
BITMAP
1F00
3F80
73C0
F3C0
F3C0
F3C0
F380
7F00
3E00
ENDCHAR
STARTCHAR 02DB
ENCODING 731
SWIDTH 250 0
DWIDTH 12 0
BBX 11 11 2 -10
BITMAP
0380
0F00
1E00
3C00
7800
7800
F840
F8C0
FFE0
FF80
3C00
ENDCHAR
STARTCHAR 02DC
ENCODING 732
SWIDTH 395 0
DWIDTH 19 0
BBX 19 7 0 26
BITMAP
078040
0FC0E0
1FF1C0
3FFF80
7FFF80
70FF00
E03C00
ENDCHAR
STARTCHAR 02DD
ENCODING 733
SWIDTH 375 0
DWIDTH 18 0
BBX 16 11 1 24
BITMAP
0E1E
1F1F
1FBF
1E3E
3E3C
3C7C
7878
7870
70E0
E0E0
6040
ENDCHAR
STARTCHAR 0300
ENCODING 768
SWIDTH 0 0
DWIDTH 0 0
BBX 11 11 -17 24
BITMAP
3C00
FC00
FE00
7E00
3F00
1F00
0F80
0780
03C0
01C0
00E0
ENDCHAR
STARTCHAR 0301
ENCODING 769
SWIDTH 0 0
DWIDTH 0 0
BBX 11 11 -16 24
BITMAP
0700
0FE0
0FE0
1FC0
1F00
3E00
3C00
7800
7000
E000
4000
ENDCHAR
STARTCHAR 0302
ENCODING 770
SWIDTH 0 0
DWIDTH 0 0
BBX 16 11 -20 24
BITMAP
03C0
07E0
07E0
0FF0
1FF8
1FF8
3E7C
7C3E
F81E
E007
4002
ENDCHAR
STARTCHAR 0303
ENCODING 771
SWIDTH 0 0
DWIDTH 0 0
BBX 19 7 -22 26
BITMAP
070040
1FC0E0
3FF1C0
3FFF80
7FFF00
70FF00
C03C00
ENDCHAR
STARTCHAR 0304
ENCODING 772
SWIDTH 0 0
DWIDTH 0 0
BBX 20 4 -22 27
BITMAP
7FFFF0
7FFFF0
FFFFE0
FFFFE0
ENDCHAR
STARTCHAR 0306
ENCODING 774
SWIDTH 0 0
DWIDTH 0 0
BBX 16 9 -20 25
BITMAP
4002
C007
F00F
F83E
7FFE
3FFC
3FF8
1FF0
07E0
ENDCHAR
STARTCHAR 0307
ENCODING 775
SWIDTH 0 0
DWIDTH 0 0
BBX 6 7 -15 26
BITMAP
38
7C
FC
FC
FC
F8
70
ENDCHAR
STARTCHAR 0308
ENCODING 776
SWIDTH 0 0
DWIDTH 0 0
BBX 16 7 -20 26
BITMAP
380E
7C1F
FC3F
FC3F
FC3F
F83E
701C
ENDCHAR
STARTCHAR 0309
ENCODING 777
SWIDTH 0 0
DWIDTH 0 0
BBX 10 9 -17 25
BITMAP
1F00
7FC0
73C0
F3C0
0780
0E00
3C00
3C00
0E00
ENDCHAR
STARTCHAR 030A
ENCODING 778
SWIDTH 0 0
DWIDTH 0 0
BBX 10 9 -17 25
BITMAP
1F00
3F80
73C0
F3C0
F3C0
F3C0
F380
7F00
3E00
ENDCHAR
STARTCHAR 030B
ENCODING 779
SWIDTH 0 0
DWIDTH 0 0
BBX 16 11 -18 24
BITMAP
0F1E
1F9F
1F1F
1F3E
3E3C
3C3C
3C78
7870
70F0
70E0
E040
ENDCHAR
STARTCHAR 030C
ENCODING 780
SWIDTH 0 0
DWIDTH 0 0
BBX 16 10 -20 25
BITMAP
4002
E007
781E
3C3E
3E7C
1FF8
0FF0
07F0
07E0
03C0
ENDCHAR
STARTCHAR 031B
ENCODING 795
SWIDTH 62 0
DWIDTH 3 0
BBX 10 12 -7 16
BITMAP
0180
07C0
1FC0
3FC0
0FC0
0F80
0F80
1F00
3E00
F800
E000
8000
ENDCHAR
STARTCHAR 0323
ENCODING 803
SWIDTH 0 0
DWIDTH 0 0
BBX 6 7 -15 -11
BITMAP
38
7C
FC
FC
FC
F8
70
ENDCHAR
STARTCHAR 0327
ENCODING 807
SWIDTH 0 0
DWIDTH 0 0
BBX 10 10 -17 -10
BITMAP
0E00
1C00
1E00
3F80
3FC0
0FC0
0FC0
1F80
FE00
7000
ENDCHAR
STARTCHAR 0328
ENCODING 808
SWIDTH 0 0
DWIDTH 0 0
BBX 11 11 -17 -10
BITMAP
0380
0F00
1E00
3C00
7800
7800
F840
F8C0
FFE0
FF80
3C00
ENDCHAR
STARTCHAR 0331
ENCODING 817
SWIDTH 0 0
DWIDTH 0 0
BBX 20 4 -22 -8
BITMAP
7FFFF0
7FFFF0
FFFFE0
FFFFE0
ENDCHAR
STARTCHAR 033F
ENCODING 831
SWIDTH 0 0
DWIDTH 0 0
BBX 26 11 -24 27
BITMAP
7FFFFF80
FFFFFFC0
FFFFFF80
FFFFFF80
00000000
00000000
00000000
7FFFFF80
FFFFFFC0
FFFFFF80
FFFFFF80
ENDCHAR
STARTCHAR 035E
ENCODING 862
SWIDTH 0 0
DWIDTH 0 0
BBX 34 4 -17 38
BITMAP
7FFFFFFFC0
7FFFFFFFC0
FFFFFFFF80
FFFFFFFF80
ENDCHAR
STARTCHAR 035F
ENCODING 863
SWIDTH 0 0
DWIDTH 0 0
BBX 34 4 -17 -17
BITMAP
7FFFFFFFC0
7FFFFFFFC0
FFFFFFFF80
FFFFFFFF80
ENDCHAR
STARTCHAR 03A0
ENCODING 928
SWIDTH 666 0
DWIDTH 32 0
BBX 29 30 1 0
BITMAP
FFFFFFF8
FFFFFFF8
3FC01FE0
1F800FC0
1F800FC0
1F800FC0
1F800FC0
1F800FC0
1F800FC0
1F800FC0
1F800FC0
1F800FC0
1F800FC0
1F800FC0
1F800FC0
1F800FC0
1F800FC0
1F800FC0
1F800FC0
1F800FC0
1F800FC0
1F800FC0
1F800FC0
1F800FC0
1F800FC0
1F800FC0
1F800FC0
3FC01FE0
FFF07FF8
FFF07FF8
ENDCHAR
STARTCHAR 03A9
ENCODING 937
SWIDTH 687 0
DWIDTH 33 0
BBX 29 30 2 0
BITMAP
001FE000
00FFFC00
03F07F00
07C01F80
0FC00FC0
1F800FC0
1F0007E0
3F0007E0
3E0003F0
7E0003F0
7E0003F0
7E0003F0
7E0003F0
7E0003F0
7E0003F0
7E0003E0
3F0007E0
3F0007E0
1F000FC0
1F800F80
0F801F00
07C01F00
63E03E18
61E07C38
60F07838
F078F078
FFF8FFF0
FFF8FFF0
FFF8FFF0
7FF8FFF0
ENDCHAR
STARTCHAR 03C0
ENCODING 960
SWIDTH 541 0
DWIDTH 26 0
BBX 26 22 0 0
BITMAP
07FFFF80
0FFFFFC0
1FFFFF80
3FFFFF00
7FFFFE00
7FFFFC00
E1C0E000
01C0E000
01C0E000
01C0E000
03C1E000
03C1E000
03C1E000
03C1E000
03C1E000
03C1E000
07C1F000
07C1F080
0FC1FF80
0FC1FFC0
1F00FE00
18007800
ENDCHAR
STARTCHAR 1E02
ENCODING 7682
SWIDTH 604 0
DWIDTH 29 0
BBX 26 40 0 0
BITMAP
00040000
000F0000
001F8000
001F8000
001F8000
001F0000
001E0000
00080000
00000000
00000000
03FF8000
FFFFF000
7FC1FC00
0FC07E00
0FC07F00
0FC03F00
0FC03F00
0FC03F00
0FC03F00
0FC03E00
0FC07E00
0FC0FC00
0FC3F800
0FFFE000
0FFFFC00
0FC0FE00
0FC03F00
0FC01F80
0FC01F80
0FC00FC0
0FC00FC0
0FC00FC0
0FC00FC0
0FC00FC0
0FC00F80
0FC01F80
0FC03F00
1FC0FE00
7FFFFC00
7FFFE000
ENDCHAR
STARTCHAR 1E03
ENCODING 7683
SWIDTH 520 0
DWIDTH 25 0
BBX 23 36 0 0
BITMAP
030000
7F8000
FF8000
3F81C0
1F83E0
1F87E0
1F87E0
1F87E0
1F87C0
1F8380
1F8000
1F8000
1F8000
1F8000
1F07C0
1F1FF0
1F3FF8
1F7FFC
1FF1FC
1FC0FC
1F807E
1F807E
1F803E
1F803E
1F803E
1F803E
1F803E
1F803C
1F803C
1F8078
1F8078
1FF0F0
1FFFE0
0FFFC0
03FF00
007C00
ENDCHAR
STARTCHAR 1E04
ENCODING 7684
SWIDTH 604 0
DWIDTH 29 0
BBX 26 41 0 -11
BITMAP
03FF8000
FFFFF000
7FC1FC00
0FC07E00
0FC07F00
0FC03F00
0FC03F00
0FC03F00
0FC03F00
0FC03E00
0FC07E00
0FC0FC00
0FC3F800
0FFFE000
0FFFFC00
0FC0FE00
0FC03F00
0FC01F80
0FC01F80
0FC00FC0
0FC00FC0
0FC00FC0
0FC00FC0
0FC00FC0
0FC00F80
0FC01F80
0FC03F00
1FC0FE00
7FFFFC00
7FFFE000
00000000
00000000
00000000
00000000
000F0000
001F0000
001F8000
001F8000
001F0000
001F0000
000E0000
ENDCHAR
STARTCHAR 1E05
ENCODING 7685
SWIDTH 541 0
DWIDTH 26 0
BBX 24 47 0 -11
BITMAP
030000
3F8000
FF8000
7F8000
1F8000
1F8000
1F8000
1F8000
1F8000
1F8000
1F8000
1F8000
1F8000
1F8000
1F83E0
1F8FF8
1FBFFC
1FFFFC
1FF0FE
1FC07E
1F803F
1F803F
1F801F
1F801F
1F801F
1F801F
1F801F
1F801E
1F801E
1F803C
1F8038
1FF0F8
1FFFF0
0FFFC0
03FF80
007E00
000000
000000
000000
000000
001C00
003E00
007E00
007E00
007E00
007C00
003800
ENDCHAR
STARTCHAR 1E06
ENCODING 7686
SWIDTH 604 0
DWIDTH 29 0
BBX 26 38 0 -8
BITMAP
03FF8000
FFFFF000
7FC1FC00
0FC07E00
0FC07F00
0FC03F00
0FC03F00
0FC03F00
0FC03F00
0FC03E00
0FC07E00
0FC0FC00
0FC3F800
0FFFE000
0FFFFC00
0FC0FE00
0FC03F00
0FC01F80
0FC01F80
0FC00FC0
0FC00FC0
0FC00FC0
0FC00FC0
0FC00FC0
0FC00F80
0FC01F80
0FC03F00
1FC0FE00
7FFFFC00
7FFFE000
00000000
00000000
00000000
00000000
07FFFE00
0FFFFF00
0FFFFE00
0FFFFC00
ENDCHAR
STARTCHAR 1E07
ENCODING 7687
SWIDTH 541 0
DWIDTH 26 0
BBX 24 44 0 -8
BITMAP
030000
3F8000
FF8000
7F8000
1F8000
1F8000
1F8000
1F8000
1F8000
1F8000
1F8000
1F8000
1F8000
1F8000
1F83E0
1F8FF8
1FBFFC
1FFFFC
1FF0FE
1FC07E
1F803F
1F803F
1F801F
1F801F
1F801F
1F801F
1F801F
1F801E
1F801E
1F803C
1F8038
1FF0F8
1FFFF0
0FFFC0
03FF80
007E00
000000
000000
000000
000000
1FFFFC
1FFFFC
3FFFF8
3FFFF8
ENDCHAR
STARTCHAR 1E08
ENCODING 7688
SWIDTH 562 0
DWIDTH 27 0
BBX 24 51 1 -10
BITMAP
000060
0000F8
0001FC
0003FC
0007F8
000FE0
001F80
003E00
007800
002000
000000
001FE0
00FFFC
01FFFE
07E0FE
0FC07E
1F803C
1F001C
3E0000
3E0000
7E0000
7C0000
7C0000
FC0000
FC0000
FC0000
FC0000
FC0000
FC0000
FC0000
FC0000
FE0000
7E0000
7F0000
3F8002
3F8007
1FE00F
0FFCFE
07FFF8
03FFF0
00FFC0
001E00
001C00
001F00
003FC0
003FC0
000FC0
000F80
001F80
00FE00
007000
ENDCHAR
STARTCHAR 1E09
ENCODING 7689
SWIDTH 458 0
DWIDTH 22 0
BBX 20 45 2 -10
BITMAP
001E00
001F80
003FC0
003F00
007E00
007C00
00F800
00F000
01E000
01C000
018000
000000
000000
007F80
01FFF0
0787E0
0F03E0
1E01E0
3E00C0
7C00C0
7C0000
FC0000
FC0000
FC0000
FC0000
FC0000
FC0000
FE0000
7E0000
7F0060
7F81E0
3FFFC0
1FFF80
0FFE00
03FC00
00F000
00E000
00FC00
01FE00
00FE00
007E00
007C00
00FC00
03F000
018000
ENDCHAR
STARTCHAR 1E0A
ENCODING 7690
SWIDTH 645 0
DWIDTH 31 0
BBX 29 40 0 0
BITMAP
00040000
000F0000
001F8000
001F8000
001F8000
001F0000
001F0000
00040000
00000000
00000000
03FFC000
FFFFF800
7FC0FE00
8FC03F80
0FC01FC0
0FC00FC0
0FC007E0
0FC007F0
0FC003F0
0FC003F0
0FC003F8
0FC001F8
0FC001F8
0FC001F8
0FC001F8
0FC001F8
0FC001F8
0FC001F8
0FC001F8
0FC001F0
0FC003F0
0FC003F0
0FC007E0
0FC007E0
0FC00FC0
0FC01F80
0FC03F00
1FE0FE00
7FFFF800
7FFFC000
ENDCHAR
STARTCHAR 1E0B
ENCODING 7691
SWIDTH 562 0
DWIDTH 27 0
BBX 25 36 2 0
BITMAP
00003800
000FF800
000FF800
0703F800
0F81F800
1F81F800
1F81F800
1F81F800
1F01F800
0E01F800
0001F800
0001F800
0001F800
0001F800
00F9F800
07FFF800
0FFFF800
1F87F800
3F03F800
3E01F800
7E01F800
7C01F800
FC01F800
FC01F800
FC01F800
FC01F800
FC01F800
FC01F800
FE01F800
7E01F800
7F03F800
7F87FD00
3FFFFF80
1FFDFE00
0FF8FC00
03E0E000
ENDCHAR
STARTCHAR 1E0C
ENCODING 7692
SWIDTH 645 0
DWIDTH 31 0
BBX 29 41 0 -11
BITMAP
03FFC000
FFFFF800
7FC0FE00
8FC03F80
0FC01FC0
0FC00FC0
0FC007E0
0FC007F0
0FC003F0
0FC003F0
0FC003F8
0FC001F8
0FC001F8
0FC001F8
0FC001F8
0FC001F8
0FC001F8
0FC001F8
0FC001F8
0FC001F0
0FC003F0
0FC003F0
0FC007E0
0FC007E0
0FC00FC0
0FC01F80
0FC03F00
1FE0FE00
7FFFF800
7FFFC000
00000000
00000000
00000000
00000000
00070000
000F8000
001F8000
001F8000
001F8000
001F0000
000E0000
ENDCHAR
STARTCHAR 1E0D
ENCODING 7693
SWIDTH 562 0
DWIDTH 27 0
BBX 25 47 2 -11
BITMAP
00003800
000FF800
000FF800
0003F800
0001F800
0001F800
0001F800
0001F800
0001F800
0001F800
0001F800
0001F800
0001F800
0001F800
00F9F800
07FFF800
0FFFF800
1F87F800
3F03F800
3E01F800
7E01F800
7C01F800
FC01F800
FC01F800
FC01F800
FC01F800
FC01F800
FC01F800
FE01F800
7E01F800
7F03F800
7F87FD00
3FFFFF80
1FFDFE00
0FF8FC00
03E0E000
00000000
00000000
00000000
00000000
00380000
007C0000
00FC0000
00FC0000
00FC0000
00F80000
00700000
ENDCHAR
STARTCHAR 1E0E
ENCODING 7694
SWIDTH 645 0
DWIDTH 31 0
BBX 29 38 0 -8
BITMAP
03FFC000
FFFFF800
7FC0FE00
8FC03F80
0FC01FC0
0FC00FC0
0FC007E0
0FC007F0
0FC003F0
0FC003F0
0FC003F8
0FC001F8
0FC001F8
0FC001F8
0FC001F8
0FC001F8
0FC001F8
0FC001F8
0FC001F8
0FC001F0
0FC003F0
0FC003F0
0FC007E0
0FC007E0
0FC00FC0
0FC01F80
0FC03F00
1FE0FE00
7FFFF800
7FFFC000
00000000
00000000
00000000
00000000
07FFFF00
0FFFFF00
0FFFFE00
0FFFFE00
ENDCHAR
STARTCHAR 1E0F
ENCODING 7695
SWIDTH 562 0
DWIDTH 27 0
BBX 25 44 2 -8
BITMAP
00003800
000FF800
000FF800
0003F800
0001F800
0001F800
0001F800
0001F800
0001F800
0001F800
0001F800
0001F800
0001F800
0001F800
00F9F800
07FFF800
0FFFF800
1F87F800
3F03F800
3E01F800
7E01F800
7C01F800
FC01F800
FC01F800
FC01F800
FC01F800
FC01F800
FC01F800
FE01F800
7E01F800
7F03F800
7F87FD00
3FFFFF80
1FFDFE00
0FF8FC00
03E0E000
00000000
00000000
00000000
00000000
3FFFF800
3FFFF800
7FFFF000
7FFFF000
ENDCHAR
STARTCHAR 1E14
ENCODING 7700
SWIDTH 520 0
DWIDTH 25 0
BBX 23 49 1 0
BITMAP
010000
078000
0FC000
0FE000
1FF000
03F800
00FC00
003E00
000F00
000200
000000
1FFFF8
1FFFFC
3FFFF8
3FFFF8
1FFFF0
000000
000000
000000
FFFFF8
FFFFFC
3F8038
1F8038
1F8018
1F8018
1F8018
1F8018
1F8000
1F8000
1F8000
1F8000
1F8000
1FFFE0
1FFFE0
1F80C0
1F8000
1F8000
1F8000
1F8000
1F8000
1F8000
1F8000
1F8006
1F8006
1F800E
1F800E
3FC01E
FFFFFE
FFFFFC
ENDCHAR
STARTCHAR 1E15
ENCODING 7701
SWIDTH 479 0
DWIDTH 23 0
BBX 21 43 2 0
BITMAP
0FC000
0FC000
1FE000
07E000
03F000
01F000
00F800
007800
003C00
001C00
000800
000000
3FFFF8
7FFFF8
7FFFF0
7FFFF0
000000
000000
000000
000000
000000
00FC00
07FF00
0F1F80
1E0F80
3E0FC0
7C07C0
7C07E0
7C07E0
FC07E0
FFFFE0
FFFF80
FC0000
FC0000
FC0000
FE0000
7E0040
7F00E0
3F83C0
3FFF80
1FFF00
0FFE00
03F800
ENDCHAR
STARTCHAR 1E16
ENCODING 7702
SWIDTH 520 0
DWIDTH 25 0
BBX 23 49 1 0
BITMAP
000100
0003C0
0007E0
000FF0
001FE0
003F80
007E00
00F800
01E000
008000
000000
1FFFF8
1FFFFC
3FFFF8
3FFFF8
1FFFF0
000000
000000
000000
FFFFF8
FFFFFC
3F8038
1F8038
1F8018
1F8018
1F8018
1F8018
1F8000
1F8000
1F8000
1F8000
1F8000
1FFFE0
1FFFE0
1F80C0
1F8000
1F8000
1F8000
1F8000
1F8000
1F8000
1F8000
1F8006
1F8006
1F800E
1F800E
3FC01E
FFFFFE
FFFFFC
ENDCHAR
STARTCHAR 1E17
ENCODING 7703
SWIDTH 479 0
DWIDTH 23 0
BBX 21 43 2 0
BITMAP
000F80
001FC0
001F80
003F00
003E00
007C00
007800
00F000
00E000
01C000
008000
000000
3FFFF8
7FFFF8
7FFFF0
7FFFF0
000000
000000
000000
000000
000000
00FC00
07FF00
0F1F80
1E0F80
3E0FC0
7C07C0
7C07E0
7C07E0
FC07E0
FFFFE0
FFFF80
FC0000
FC0000
FC0000
FE0000
7E0040
7F00E0
3F83C0
3FFF80
1FFF00
0FFE00
03F800
ENDCHAR
STARTCHAR 1E1C
ENCODING 7708
SWIDTH 520 0
DWIDTH 25 0
BBX 23 51 1 -10
BITMAP
080020
1C0070
0E00F0
0F83E0
07FFE0
07FFC0
03FF80
01FF00
007C00
000000
000000
FFFFF8
FFFFFC
3F8038
1F8038
1F8018
1F8018
1F8018
1F8018
1F8000
1F8000
1F8000
1F8000
1F8000
1FFFE0
1FFFE0
1F80C0
1F8000
1F8000
1F8000
1F8000
1F8000
1F8000
1F8000
1F8006
1F8006
1F800E
1F800E
3FC01E
FFFFFE
FFFFFC
003800
003800
007C00
007F00
007F00
001F00
001F00
003E00
01F800
01E000
ENDCHAR
STARTCHAR 1E1D
ENCODING 7709
SWIDTH 500 0
DWIDTH 24 0
BBX 21 44 1 -10
BITMAP
080020
1C0070
0E00F0
0F83E0
07FFE0
07FFC0
03FF80
01FF00
007C00
000000
000000
000000
007E00
03FF80
0F87C0
1E03E0
3E03F0
3C01F0
7C01F8
7C01F8
FFFFF8
FFFFF8
FFFFE0
FC0000
FC0000
FC0000
FE0000
7E0000
7E0010
3F0078
3FC1F0
1FFFE0
07FF80
01FE00
003000
007000
007E00
007F00
00FF00
003F00
003E00
007C00
03F800
01C000
ENDCHAR
STARTCHAR 1E1E
ENCODING 7710
SWIDTH 500 0
DWIDTH 24 0
BBX 22 40 1 0
BITMAP
002000
007800
00FC00
00FC00
00FC00
00F800
00F800
002000
000000
000000
FFFFF8
FFFFFC
3F803C
1F801C
1F8018
1F8018
1F8018
1F8018
1F8000
1F8000
1F8000
1F8000
1F8000
1FFFC0
1FFFE0
1F8180
1F8000
1F8000
1F8000
1F8000
1F8000
1F8000
1F8000
1F8000
1F8000
1F8000
1F8000
3FC000
FFF800
FFF800
ENDCHAR
STARTCHAR 1E1F
ENCODING 7711
SWIDTH 333 0
DWIDTH 16 0
BBX 20 45 1 0
BITMAP
007800
00F800
01F800
01F800
01F800
00F000
004000
000000
000F80
003FE0
00FFF0
01FFE0
03E3E0
07C1C0
07C100
0F8000
0F8000
0F8000
1F8000
1F8000
1F8000
1F8000
1F8000
7FFF00
FFFE00
1F8400
1F8000
1F8000
1F8000
1F8000
1F8000
1F8000
1F8000
1F8000
1F8000
1F8000
1F8000
1F8000
1F8000
1F8000
1F8000
1F8000
3FE000
FFFC00
FFFC00
ENDCHAR
STARTCHAR 1E20
ENCODING 7712
SWIDTH 604 0
DWIDTH 29 0
BBX 27 38 1 0
BITMAP
03FFFF00
03FFFF80
07FFFF00
07FFFF00
07FFFE00
00000000
00000000
00000000
000FF800
007FFF80
01F07F80
03C03F00
07800F00
0F000E00
1F000000
3E000000
3E000000
7E000000
7C000000
7C000000
FC000000
FC000000
FC01FFE0
FC01FFE0
FC007FC0
FC001F80
FC001F80
FE001F80
7E001F80
7F001F80
7F001F80
3F801F80
3FC01F80
1FF03F00
0FFFFE00
07FFFC00
01FFF000
003F8000
ENDCHAR
STARTCHAR 1E21
ENCODING 7713
SWIDTH 520 0
DWIDTH 25 0
BBX 25 42 0 -11
BITMAP
0FFFFC00
1FFFFE00
1FFFFC00
1FFFF800
00000000
00000000
00000000
00000000
00000000
007E0180
03FFDF80
0787FF00
0F03FE00
1E01F000
1E00F800
3E00F800
3E00F800
3E00F800
3E00F800
3F00F000
1F81E000
0FC3C000
07FF8000
01FE0000
03E00000
07C00000
0FC00000
1FFE0000
1FFFF000
0FFFFC00
07FFFE00
0F9FFF00
3E007F00
7C003F00
FC001F00
FC001E00
FE001E00
FF003C00
7FC0F800
3FFFF000
0FFFC000
01FE0000
ENDCHAR
STARTCHAR 1E22
ENCODING 7714
SWIDTH 687 0
DWIDTH 33 0
BBX 30 40 1 0
BITMAP
00010000
0007C000
0007C000
000FC000
000FC000
000FC000
00078000
00020000
00000000
00000000
FFF03FFC
FFF03FFC
3FC00FF0
1F8007E0
1F8007E0
1F8007E0
1F8007E0
1F8007E0
1F8007E0
1F8007E0
1F8007E0
1F8007E0
1F8007E0
1F8007E0
1FFFFFE0
1FFFFFE0
1F8007E0
1F8007E0
1F8007E0
1F8007E0
1F8007E0
1F8007E0
1F8007E0
1F8007E0
1F8007E0
1F8007E0
1F8007E0
3FC00FF0
FFF03FFC
FFF03FFC
ENDCHAR
STARTCHAR 1E23
ENCODING 7715
SWIDTH 583 0
DWIDTH 28 0
BBX 26 45 1 0
BITMAP
000F0000
001F0000
003F0000
003F0000
003F0000
001E0000
00080000
00000000
00000000
01800000
3F800000
FF800000
FF800000
1F800000
1F800000
1F800000
1F800000
1F800000
1F800000
1F800000
1F800000
1F800000
1F800000
1F81F000
1F8FFC00
1F9FFC00
1FFFFE00
1FF8FE00
1FE07E00
1FC07E00
1F807E00
1F807E00
1F807E00
1F807E00
1F807E00
1F807E00
1F807E00
1F807E00
1F807E00
1F807E00
1F807E00
1F807E00
3FC0FF00
FFF3FFC0
FFF3FFC0
ENDCHAR
STARTCHAR 1E24
ENCODING 7716
SWIDTH 687 0
DWIDTH 33 0
BBX 30 41 1 -11
BITMAP
FFF03FFC
FFF03FFC
3FC00FF0
1F8007E0
1F8007E0
1F8007E0
1F8007E0
1F8007E0
1F8007E0
1F8007E0
1F8007E0
1F8007E0
1F8007E0
1F8007E0
1FFFFFE0
1FFFFFE0
1F8007E0
1F8007E0
1F8007E0
1F8007E0
1F8007E0
1F8007E0
1F8007E0
1F8007E0
1F8007E0
1F8007E0
1F8007E0
3FC00FF0
FFF03FFC
FFF03FFC
00000000
00000000
00000000
00000000
00038000
0007C000
0007C000
000FC000
000FC000
000F8000
00070000
ENDCHAR
STARTCHAR 1E25
ENCODING 7717
SWIDTH 583 0
DWIDTH 28 0
BBX 26 47 1 -11
BITMAP
01800000
3F800000
FF800000
FF800000
1F800000
1F800000
1F800000
1F800000
1F800000
1F800000
1F800000
1F800000
1F800000
1F800000
1F81F000
1F8FFC00
1F9FFC00
1FFFFE00
1FF8FE00
1FE07E00
1FC07E00
1F807E00
1F807E00
1F807E00
1F807E00
1F807E00
1F807E00
1F807E00
1F807E00
1F807E00
1F807E00
1F807E00
1F807E00
3FC0FF00
FFF3FFC0
FFF3FFC0
00000000
00000000
00000000
00000000
000E0000
001F0000
001F0000
003F0000
003F0000
003E0000
001C0000
ENDCHAR
STARTCHAR 1E26
ENCODING 7718
SWIDTH 687 0
DWIDTH 33 0
BBX 30 40 1 0
BITMAP
00200800
00F83E00
00F83E00
01F87E00
01F87E00
01F87E00
00F03C00
00401000
00000000
00000000
FFF03FFC
FFF03FFC
3FC00FF0
1F8007E0
1F8007E0
1F8007E0
1F8007E0
1F8007E0
1F8007E0
1F8007E0
1F8007E0
1F8007E0
1F8007E0
1F8007E0
1FFFFFE0
1FFFFFE0
1F8007E0
1F8007E0
1F8007E0
1F8007E0
1F8007E0
1F8007E0
1F8007E0
1F8007E0
1F8007E0
1F8007E0
1F8007E0
3FC00FF0
FFF03FFC
FFF03FFC
ENDCHAR
STARTCHAR 1E27
ENCODING 7719
SWIDTH 583 0
DWIDTH 28 0
BBX 26 45 1 0
BITMAP
01E07800
03E0F800
07E1F800
07E1F800
07E1F800
03C0F000
01004000
00000000
00000000
01800000
3F800000
FF800000
FF800000
1F800000
1F800000
1F800000
1F800000
1F800000
1F800000
1F800000
1F800000
1F800000
1F800000
1F81F000
1F8FFC00
1F9FFC00
1FFFFE00
1FF8FE00
1FE07E00
1FC07E00
1F807E00
1F807E00
1F807E00
1F807E00
1F807E00
1F807E00
1F807E00
1F807E00
1F807E00
1F807E00
1F807E00
1F807E00
3FC0FF00
FFF3FFC0
FFF3FFC0
ENDCHAR
STARTCHAR 1E2E
ENCODING 7726
SWIDTH 333 0
DWIDTH 16 0
BBX 16 49 0 0
BITMAP
0018
003C
007F
00FF
01FE
03F8
07E0
0F80
1E00
2808
781E
FC3F
FC3F
FC3F
F83E
F03C
4010
0000
0000
3FFC
3FFC
0FF0
07E0
07E0
07E0
07E0
07E0
07E0
07E0
07E0
07E0
07E0
07E0
07E0
07E0
07E0
07E0
07E0
07E0
07E0
07E0
07E0
07E0
07E0
07E0
07E0
0FF0
3FFC
3FFC
ENDCHAR
STARTCHAR 1E2F
ENCODING 7727
SWIDTH 291 0
DWIDTH 14 0
BBX 16 44 -1 0
BITMAP
0020
007E
007F
00FE
00FC
01F8
01F0
03E0
03C0
0780
0700
380E
7C1F
7C1F
FC3F
FC3F
7C1F
781E
0000
0000
0000
0000
00E0
1FE0
3FE0
1FE0
07E0
07E0
07E0
07E0
07E0
07E0
07E0
07E0
07E0
07E0
07E0
07E0
07E0
07E0
07E0
0FF0
3FFC
3FFC
ENDCHAR
STARTCHAR 1E30
ENCODING 7728
SWIDTH 625 0
DWIDTH 30 0
BBX 29 42 1 0
BITMAP
00004000
00006000
0000F800
0001FC00
0003FC00
000FF000
001FC000
003F0000
007C0000
00380000
00200000
00000000
FFF0FFE0
FFF0FFE0
3FC01F00
1F803E00
1F807C00
1F80F800
1F81F000
1F81E000
1F83C000
1F878000
1F8F0000
1F9F0000
1FBE0000
1FBC0000
1FFC0000
1FFE0000
1FBF0000
1F9F8000
1F8FC000
1F87E000
1F87F000
1F83F800
1F81FC00
1F80FE00
1F807E00
1F807F00
1F803FC0
3FC01FF0
FFF00FF8
FFF00780
ENDCHAR
STARTCHAR 1E31
ENCODING 7729
SWIDTH 541 0
DWIDTH 26 0
BBX 26 47 1 0
BITMAP
0000C000
0001F000
0003F800
0007F800
000FF000
001FC000
003F0000
007C0000
00F00000
00400000
00000000
01800000
3F800000
FF800000
FF800000
1F800000
1F800000
1F800000
1F800000
1F800000
1F800000
1F800000
1F800000
1F800000
1F800000
1F81FF80
1F81FF80
1F80FC00
1F80F800
1F83E000
1F87C000
1F8F8000
1F9E0000
1FBC0000
1FFC0000
1FBE0000
1FBF0000
1F9F8000
1F8FC000
1F87E000
1F87F000
1F83F800
1F81FC00
1F80FC00
3F80FFC0
FFF07FC0
FFF03E00
ENDCHAR
STARTCHAR 1E32
ENCODING 7730
SWIDTH 625 0
DWIDTH 30 0
BBX 29 41 1 -11
BITMAP
FFF0FFE0
FFF0FFE0
3FC01F00
1F803E00
1F807C00
1F80F800
1F81F000
1F81E000
1F83C000
1F878000
1F8F0000
1F9F0000
1FBE0000
1FBC0000
1FFC0000
1FFE0000
1FBF0000
1F9F8000
1F8FC000
1F87E000
1F87F000
1F83F800
1F81FC00
1F80FE00
1F807E00
1F807F00
1F803FC0
3FC01FF0
FFF00FF8
FFF00780
00000000
00000000
00000000
00000000
00070000
000F8000
000F8000
001F8000
001F8000
000F8000
000F0000
ENDCHAR
STARTCHAR 1E33
ENCODING 7731
SWIDTH 541 0
DWIDTH 26 0
BBX 26 47 1 -11
BITMAP
01800000
3F800000
FF800000
FF800000
1F800000
1F800000
1F800000
1F800000
1F800000
1F800000
1F800000
1F800000
1F800000
1F800000
1F81FF80
1F81FF80
1F80FC00
1F80F800
1F83E000
1F87C000
1F8F8000
1F9E0000
1FBC0000
1FFC0000
1FBE0000
1FBF0000
1F9F8000
1F8FC000
1F87E000
1F87F000
1F83F800
1F81FC00
1F80FC00
3F80FFC0
FFF07FC0
FFF03E00
00000000
00000000
00000000
00000000
000E0000
001F0000
003F0000
003F0000
003F0000
003E0000
001C0000
ENDCHAR
STARTCHAR 1E34
ENCODING 7732
SWIDTH 625 0
DWIDTH 30 0
BBX 29 38 1 -8
BITMAP
FFF0FFE0
FFF0FFE0
3FC01F00
1F803E00
1F807C00
1F80F800
1F81F000
1F81E000
1F83C000
1F878000
1F8F0000
1F9F0000
1FBE0000
1FBC0000
1FFC0000
1FFE0000
1FBF0000
1F9F8000
1F8FC000
1F87E000
1F87F000
1F83F800
1F81FC00
1F80FE00
1F807E00
1F807F00
1F803FC0
3FC01FF0
FFF00FF8
FFF00780
00000000
00000000
00000000
00000000
07FFFF00
07FFFF00
07FFFF00
0FFFFE00
ENDCHAR
STARTCHAR 1E35
ENCODING 7733
SWIDTH 541 0
DWIDTH 26 0
BBX 26 44 1 -8
BITMAP
01800000
3F800000
FF800000
FF800000
1F800000
1F800000
1F800000
1F800000
1F800000
1F800000
1F800000
1F800000
1F800000
1F800000
1F81FF80
1F81FF80
1F80FC00
1F80F800
1F83E000
1F87C000
1F8F8000
1F9E0000
1FBC0000
1FFC0000
1FBE0000
1FBF0000
1F9F8000
1F8FC000
1F87E000
1F87F000
1F83F800
1F81FC00
1F80FC00
3F80FFC0
FFF07FC0
FFF03E00
00000000
00000000
00000000
00000000
0FFFFE00
0FFFFE00
1FFFFC00
1FFFFC00
ENDCHAR
STARTCHAR 1E36
ENCODING 7734
SWIDTH 500 0
DWIDTH 24 0
BBX 23 41 1 -11
BITMAP
FFF000
FFF000
3FC000
1F8000
1F8000
1F8000
1F8000
1F8000
1F8000
1F8000
1F8000
1F8000
1F8000
1F8000
1F8000
1F8000
1F8000
1F8000
1F8000
1F8000
1F8000
1F8000
1F8000
1F8004
1F8006
1F800E
1F801E
3FC03C
FFFFFC
FFFFFC
000000
000000
000000
000000
003C00
007C00
007C00
007E00
007C00
007C00
007800
ENDCHAR
STARTCHAR 1E37
ENCODING 7735
SWIDTH 291 0
DWIDTH 14 0
BBX 12 47 1 -11
BITMAP
0180
3F80
FF80
FF80
1F80
1F80
1F80
1F80
1F80
1F80
1F80
1F80
1F80
1F80
1F80
1F80
1F80
1F80
1F80
1F80
1F80
1F80
1F80
1F80
1F80
1F80
1F80
1F80
1F80
1F80
1F80
1F80
1F80
1FC0
FFF0
FFF0
0000
0000
0000
0000
0700
0F80
0F80
1F80
1F80
0F80
0F00
ENDCHAR
STARTCHAR 1E38
ENCODING 7736
SWIDTH 500 0
DWIDTH 24 0
BBX 23 49 1 -11
BITMAP
3FFFF0
3FFFF8
7FFFF0
7FFFF0
3FFFF0
000000
000000
000000
FFF000
FFF000
3FC000
1F8000
1F8000
1F8000
1F8000
1F8000
1F8000
1F8000
1F8000
1F8000
1F8000
1F8000
1F8000
1F8000
1F8000
1F8000
1F8000
1F8000
1F8000
1F8000
1F8000
1F8004
1F8006
1F800E
1F801E
3FC03C
FFFFFC
FFFFFC
000000
000000
000000
000000
003C00
007C00
007C00
007E00
007C00
007C00
007800
ENDCHAR
STARTCHAR 1E39
ENCODING 7737
SWIDTH 291 0
DWIDTH 14 0
BBX 20 56 -2 -11
BITMAP
7FFFE0
FFFFF0
FFFFE0
FFFFE0
000000
000000
000000
000000
000000
003000
07F000
1FF000
1FF000
03F000
03F000
03F000
03F000
03F000
03F000
03F000
03F000
03F000
03F000
03F000
03F000
03F000
03F000
03F000
03F000
03F000
03F000
03F000
03F000
03F000
03F000
03F000
03F000
03F000
03F000
03F000
03F000
03F000
03F800
1FFE00
1FFE00
000000
000000
000000
000000
00E000
01F000
01F000
03F000
03F000
01F000
01E000
ENDCHAR
STARTCHAR 1E3A
ENCODING 7738
SWIDTH 500 0
DWIDTH 24 0
BBX 23 38 1 -8
BITMAP
FFF000
FFF000
3FC000
1F8000
1F8000
1F8000
1F8000
1F8000
1F8000
1F8000
1F8000
1F8000
1F8000
1F8000
1F8000
1F8000
1F8000
1F8000
1F8000
1F8000
1F8000
1F8000
1F8000
1F8004
1F8006
1F800E
1F801E
3FC03C
FFFFFC
FFFFFC
000000
000000
000000
000000
1FFFF8
3FFFF8
3FFFF8
7FFFF0
ENDCHAR
STARTCHAR 1E3B
ENCODING 7739
SWIDTH 291 0
DWIDTH 14 0
BBX 20 44 -3 -8
BITMAP
001800
03F800
0FF800
0FF800
01F800
01F800
01F800
01F800
01F800
01F800
01F800
01F800
01F800
01F800
01F800
01F800
01F800
01F800
01F800
01F800
01F800
01F800
01F800
01F800
01F800
01F800
01F800
01F800
01F800
01F800
01F800
01F800
01F800
01FC00
0FFF00
0FFF00
000000
000000
000000
000000
7FFFF0
7FFFF0
7FFFF0
FFFFE0
ENDCHAR
STARTCHAR 1E3E
ENCODING 7742
SWIDTH 854 0
DWIDTH 41 0
BBX 38 42 1 0
BITMAP
0000020000
0000038000
000007C000
00000FE000
00001FE000
00003F8000
00007F0000
0000FC0000
0001F00000
0003C00000
0001000000
0000000000
FF80000FF8
FFC0000FF8
0FC0001FC0
0FE0001FC0
0FE0001FC0
0FF0003FC0
0FF0003FC0
0FF8007FC0
0FF80077C0
0EFC00F7C0
0EFC00F7C0
0E7C01E7C0
0E7E01E7C0
0E3E01C7C0
0E3F03C7C0
0E1F0387C0
0E1F8787C0
0E1F8787C0
0E0F8F07C0
0E0FCF07C0
1E07DE07C0
1E07FE07C0
1E03FC07C0
1E03FC07C0
1E03F807C0
1E01F807E0
1E01F807E0
1F00F00FE0
FFC0F03FFC
FFC0603FFC
ENDCHAR
STARTCHAR 1E3F
ENCODING 7743
SWIDTH 854 0
DWIDTH 41 0
BBX 39 35 1 0
BITMAP
0000070000
00000FE000
00000FE000
00001FC000
00001F8000
00003F0000
00003E0000
00007C0000
0000780000
0000F00000
0000600000
0000000000
0000000000
0303E01F80
7F8FF87FC0
FF9FF9FFE0
7FFFFFFFF0
1FF1FF87F0
1FE0FF03F0
1F80FC03F0
1F80FC03F0
1F80FC03F0
1F80FC03F0
1F80FC03F0
1F80FC03F0
1F80FC03F0
1F80FC03F0
1F80FC03F0
1F80FC03F0
1F80FC03F0
1F80FC03F0
1F80FC03F0
3F80FC03F8
FFF7FF9FFE
FFF7FF9FFE
ENDCHAR
STARTCHAR 1E40
ENCODING 7744
SWIDTH 854 0
DWIDTH 41 0
BBX 38 40 1 0
BITMAP
0000100000
00007C0000
00007C0000
0000FC0000
0000FC0000
0000FC0000
0000780000
0000200000
0000000000
0000000000
FF80000FF8
FFC0000FF8
0FC0001FC0
0FE0001FC0
0FE0001FC0
0FF0003FC0
0FF0003FC0
0FF8007FC0
0FF80077C0
0EFC00F7C0
0EFC00F7C0
0E7C01E7C0
0E7E01E7C0
0E3E01C7C0
0E3F03C7C0
0E1F0387C0
0E1F8787C0
0E1F8787C0
0E0F8F07C0
0E0FCF07C0
1E07DE07C0
1E07FE07C0
1E03FC07C0
1E03FC07C0
1E03F807C0
1E01F807E0
1E01F807E0
1F00F00FE0
FFC0F03FFC
FFC0603FFC
ENDCHAR
STARTCHAR 1E41
ENCODING 7745
SWIDTH 854 0
DWIDTH 41 0
BBX 39 33 1 0
BITMAP
00003C0000
00007C0000
00007E0000
00007E0000
00007C0000
00007C0000
0000380000
0000000000
0000000000
0000000000
0000000000
0303E01F80
7F8FF87FC0
FF9FF9FFE0
7FFFFFFFF0
1FF1FF87F0
1FE0FF03F0
1F80FC03F0
1F80FC03F0
1F80FC03F0
1F80FC03F0
1F80FC03F0
1F80FC03F0
1F80FC03F0
1F80FC03F0
1F80FC03F0
1F80FC03F0
1F80FC03F0
1F80FC03F0
1F80FC03F0
3F80FC03F8
FFF7FF9FFE
FFF7FF9FFE
ENDCHAR
STARTCHAR 1E42
ENCODING 7746
SWIDTH 854 0
DWIDTH 41 0
BBX 38 41 1 -11
BITMAP
FF80000FF8
FFC0000FF8
0FC0001FC0
0FE0001FC0
0FE0001FC0
0FF0003FC0
0FF0003FC0
0FF8007FC0
0FF80077C0
0EFC00F7C0
0EFC00F7C0
0E7C01E7C0
0E7E01E7C0
0E3E01C7C0
0E3F03C7C0
0E1F0387C0
0E1F8787C0
0E1F8787C0
0E0F8F07C0
0E0FCF07C0
1E07DE07C0
1E07FE07C0
1E03FC07C0
1E03FC07C0
1E03F807C0
1E01F807E0
1E01F807E0
1F00F00FE0
FFC0F03FFC
FFC0603FFC
0000000000
0000000000
0000000000
0000000000
0000380000
00007C0000
0000FC0000
0000FC0000
0000FC0000
0000F80000
0000700000
ENDCHAR
STARTCHAR 1E43
ENCODING 7747
SWIDTH 854 0
DWIDTH 41 0
BBX 39 33 1 -11
BITMAP
0303E01F80
7F8FF87FC0
FF9FF9FFE0
7FFFFFFFF0
1FF1FF87F0
1FE0FF03F0
1F80FC03F0
1F80FC03F0
1F80FC03F0
1F80FC03F0
1F80FC03F0
1F80FC03F0
1F80FC03F0
1F80FC03F0
1F80FC03F0
1F80FC03F0
1F80FC03F0
1F80FC03F0
1F80FC03F0
3F80FC03F8
FFF7FF9FFE
FFF7FF9FFE
0000000000
0000000000
0000000000
0000000000
00003C0000
00007C0000
00007E0000
00007E0000
00007C0000
00007C0000
0000380000
ENDCHAR
STARTCHAR 1E44
ENCODING 7748
SWIDTH 666 0
DWIDTH 32 0
BBX 30 40 1 0
BITMAP
00020000
0007C000
0007C000
000FC000
000FC000
000FC000
000F8000
00020000
00000000
00000000
FF000FFC
FF800FFC
3FC003F0
1FC001E0
1FE001E0
1FF001E0
1FF001E0
1FF801E0
1FFC01E0
1EFE01E0
1E7E01E0
1E3F01E0
1E3F81E0
1E1F81E0
1E0FC1E0
1E07E1E0
1E07E1E0
1E03F1E0
1E01F9E0
1E01FDE0
1E00FDE0
1E007FE0
1E003FE0
1E003FE0
1E001FE0
1E000FE0
1E0007E0
3F0007E0
FFC003E0
FFC000E0
ENDCHAR
STARTCHAR 1E45
ENCODING 7749
SWIDTH 583 0
DWIDTH 28 0
BBX 26 33 1 0
BITMAP
000E0000
001F0000
001F0000
003F0000
003F0000
003E0000
001C0000
00000000
00000000
00000000
00000000
0301F000
7F87FC00
FF9FFC00
3FBFFE00
1FF8FE00
1FE07E00
1FC07E00
1F807E00
1F807E00
1F807E00
1F807E00
1F807E00
1F807E00
1F807E00
1F807E00
1F807E00
1F807E00
1F807E00
1F807E00
3FC0FF00
FFF3FFC0
FFF3FFC0
ENDCHAR
STARTCHAR 1E46
ENCODING 7750
SWIDTH 666 0
DWIDTH 32 0
BBX 30 41 1 -11
BITMAP
FF000FFC
FF800FFC
3FC003F0
1FC001E0
1FE001E0
1FF001E0
1FF001E0
1FF801E0
1FFC01E0
1EFE01E0
1E7E01E0
1E3F01E0
1E3F81E0
1E1F81E0
1E0FC1E0
1E07E1E0
1E07E1E0
1E03F1E0
1E01F9E0
1E01FDE0
1E00FDE0
1E007FE0
1E003FE0
1E003FE0
1E001FE0
1E000FE0
1E0007E0
3F0007E0
FFC003E0
FFC000E0
00000000
00000000
00000000
00000000
00038000
0007C000
000FC000
000FC000
000FC000
000F8000
00070000
ENDCHAR
STARTCHAR 1E47
ENCODING 7751
SWIDTH 583 0
DWIDTH 28 0
BBX 26 33 1 -11
BITMAP
0301F000
7F87FC00
FF9FFC00
3FBFFE00
1FF8FE00
1FE07E00
1FC07E00
1F807E00
1F807E00
1F807E00
1F807E00
1F807E00
1F807E00
1F807E00
1F807E00
1F807E00
1F807E00
1F807E00
1F807E00
3FC0FF00
FFF3FFC0
FFF3FFC0
00000000
00000000
00000000
00000000
000E0000
001F0000
001F0000
003F0000
003F0000
003E0000
001C0000
ENDCHAR
STARTCHAR 1E48
ENCODING 7752
SWIDTH 666 0
DWIDTH 32 0
BBX 30 38 1 -8
BITMAP
FF000FFC
FF800FFC
3FC003F0
1FC001E0
1FE001E0
1FF001E0
1FF001E0
1FF801E0
1FFC01E0
1EFE01E0
1E7E01E0
1E3F01E0
1E3F81E0
1E1F81E0
1E0FC1E0
1E07E1E0
1E07E1E0
1E03F1E0
1E01F9E0
1E01FDE0
1E00FDE0
1E007FE0
1E003FE0
1E003FE0
1E001FE0
1E000FE0
1E0007E0
3F0007E0
FFC003E0
FFC000E0
00000000
00000000
00000000
00000000
03FFFF80
03FFFF80
07FFFF00
07FFFF00
ENDCHAR
STARTCHAR 1E49
ENCODING 7753
SWIDTH 583 0
DWIDTH 28 0
BBX 26 30 1 -8
BITMAP
0301F000
7F87FC00
FF9FFC00
3FBFFE00
1FF8FE00
1FE07E00
1FC07E00
1F807E00
1F807E00
1F807E00
1F807E00
1F807E00
1F807E00
1F807E00
1F807E00
1F807E00
1F807E00
1F807E00
1F807E00
3FC0FF00
FFF3FFC0
FFF3FFC0
00000000
00000000
00000000
00000000
0FFFFE00
0FFFFE00
1FFFFE00
1FFFFC00
ENDCHAR
STARTCHAR 1E4C
ENCODING 7756
SWIDTH 625 0
DWIDTH 30 0
BBX 27 50 1 0
BITMAP
00004000
0000F000
0001FC00
0003FC00
0007FC00
000FF000
001FC000
003F0000
007C0000
00300000
00200800
00FE0E00
01FFFE00
01FFFC00
03FFF800
07FFF800
0607F000
02008000
00000000
00000000
001FC000
00FFF000
03E1FC00
07807E00
0F003F00
1F001F00
1E001F80
3E000F80
7E000FC0
7C000FC0
7C0007E0
FC0007E0
FC0007E0
FC0007E0
FC0007E0
FC0007E0
FC0007E0
FC0007E0
FC0007E0
FE0007C0
7E000FC0
7E000F80
7F000F80
3F001F00
1F801F00
1FC03E00
0FF0FC00
07FFF000
01FFE000
007F0000
ENDCHAR
STARTCHAR 1E4D
ENCODING 7757
SWIDTH 520 0
DWIDTH 25 0
BBX 21 44 2 0
BITMAP
000F80
000FE0
001FC0
001F80
001F00
003E00
003C00
007800
007000
00E000
004000
03C030
07F030
0FFC60
1FFFE0
1FFFC0
387F80
300F00
000000
000000
000000
000000
00FC00
03FF00
0F0FC0
1E07E0
3E07E0
3E03F0
7C03F0
7C01F8
FC01F8
FC01F8
FC01F8
FC01F8
FC01F8
FC01F8
FC01F0
7E01F0
7E03E0
3E03E0
3F03C0
1F8780
07FE00
01F800
ENDCHAR
STARTCHAR 1E4E
ENCODING 7758
SWIDTH 625 0
DWIDTH 30 0
BBX 27 48 1 0
BITMAP
00E03800
01F07C00
03F0FC00
03F0FC00
03F0FC00
03E0F800
01C07000
00000000
00200800
00FE0E00
01FFFE00
01FFFC00
03FFF800
07FFF800
0607F000
02008000
00000000
00000000
001FC000
00FFF000
03E1FC00
07807E00
0F003F00
1F001F00
1E001F80
3E000F80
7E000FC0
7C000FC0
7C0007E0
FC0007E0
FC0007E0
FC0007E0
FC0007E0
FC0007E0
FC0007E0
FC0007E0
FC0007E0
FE0007C0
7E000FC0
7E000F80
7F000F80
3F001F00
1F801F00
1FC03E00
0FF0FC00
07FFF000
01FFE000
007F0000
ENDCHAR
STARTCHAR 1E4F
ENCODING 7759
SWIDTH 520 0
DWIDTH 25 0
BBX 21 42 2 0
BITMAP
0781E0
0F83E0
0F83E0
1F87E0
1F87E0
0F03C0
0E0380
000000
000000
03C030
07F030
0FFC60
1FFFE0
1FFFC0
387F80
300F00
000000
000000
000000
000000
00FC00
03FF00
0F0FC0
1E07E0
3E07E0
3E03F0
7C03F0
7C01F8
FC01F8
FC01F8
FC01F8
FC01F8
FC01F8
FC01F8
FC01F0
7E01F0
7E03E0
3E03E0
3F03C0
1F8780
07FE00
01F800
ENDCHAR
STARTCHAR 1E50
ENCODING 7760
SWIDTH 625 0
DWIDTH 30 0
BBX 27 49 1 0
BITMAP
00400000
00E00000
03F00000
03F80000
03FC0000
00FE0000
003F0000
000F8000
0003C000
0000C000
00000000
03FFFE00
07FFFF00
07FFFF00
0FFFFE00
07FFFE00
00000000
00000000
00000000
001FC000
00FFF000
03E1FC00
07807E00
0F003F00
1F001F00
1E001F80
3E000F80
7E000FC0
7C000FC0
7C0007E0
FC0007E0
FC0007E0
FC0007E0
FC0007E0
FC0007E0
FC0007E0
FC0007E0
FC0007E0
FE0007C0
7E000FC0
7E000F80
7F000F80
3F001F00
1F801F00
1FC03E00
0FF0FC00
07FFF000
01FFE000
007F0000
ENDCHAR
STARTCHAR 1E51
ENCODING 7761
SWIDTH 520 0
DWIDTH 25 0
BBX 21 43 2 0
BITMAP
07C000
0FE000
07E000
03F000
01F000
00F800
007800
003C00
001C00
000E00
000800
000000
3FFFF8
3FFFF8
3FFFF8
7FFFF0
000000
000000
000000
000000
000000
00FC00
03FF00
0F0FC0
1E07E0
3E07E0
3E03F0
7C03F0
7C01F8
FC01F8
FC01F8
FC01F8
FC01F8
FC01F8
FC01F8
FC01F0
7E01F0
7E03E0
3E03E0
3F03C0
1F8780
07FE00
01F800
ENDCHAR
STARTCHAR 1E52
ENCODING 7762
SWIDTH 625 0
DWIDTH 30 0
BBX 27 49 1 0
BITMAP
00006000
0000F000
0001FC00
0003FC00
0007F800
000FE000
001FC000
003F0000
007C0000
00300000
00000000
03FFFE00
07FFFF00
07FFFF00
0FFFFE00
07FFFE00
00000000
00000000
00000000
001FC000
00FFF000
03E1FC00
07807E00
0F003F00
1F001F00
1E001F80
3E000F80
7E000FC0
7C000FC0
7C0007E0
FC0007E0
FC0007E0
FC0007E0
FC0007E0
FC0007E0
FC0007E0
FC0007E0
FC0007E0
FE0007C0
7E000FC0
7E000F80
7F000F80
3F001F00
1F801F00
1FC03E00
0FF0FC00
07FFF000
01FFE000
007F0000
ENDCHAR
STARTCHAR 1E53
ENCODING 7763
SWIDTH 520 0
DWIDTH 25 0
BBX 21 43 2 0
BITMAP
000FC0
000FE0
001FC0
001F80
003F00
003E00
007C00
007800
00F000
00E000
004000
000000
3FFFF8
3FFFF8
3FFFF8
7FFFF0
000000
000000
000000
000000
000000
00FC00
03FF00
0F0FC0
1E07E0
3E07E0
3E03F0
7C03F0
7C01F8
FC01F8
FC01F8
FC01F8
FC01F8
FC01F8
FC01F8
FC01F0
7E01F0
7E03E0
3E03E0
3F03C0
1F8780
07FE00
01F800
ENDCHAR
STARTCHAR 1E54
ENCODING 7764
SWIDTH 562 0
DWIDTH 27 0
BBX 25 42 0 0
BITMAP
00008000
0000E000
0001F000
0003F800
0007F800
000FE000
001FC000
003F0000
007C0000
00F00000
00400000
00000000
03FFC000
FFFFF800
7FC1FC00
8FC07E00
0FC03F00
0FC03F00
0FC01F80
0FC01F80
0FC01F80
0FC01F80
0FC01F80
0FC01F00
0FC03F00
0FC03E00
0FC07E00
0FD0FC00
0FDFF000
0FCFC000
0FC00000
0FC00000
0FC00000
0FC00000
0FC00000
0FC00000
0FC00000
0FC00000
0FC00000
1FE00000
7FFC0000
7FFC0000
ENDCHAR
STARTCHAR 1E55
ENCODING 7765
SWIDTH 562 0
DWIDTH 27 0
BBX 24 46 1 -11
BITMAP
000780
0007E0
000FF0
000FC0
001F80
001F00
003E00
003C00
007800
007000
002000
000000
000000
0303E0
7F8FF8
FF9FFC
3FFFFC
1FF0FE
1FC07E
1F803F
1F803F
1F801F
1F801F
1F801F
1F801F
1F801F
1F801E
1F801E
1F803E
1FC03C
1FF07C
1FFFF8
1FFFF0
1F9FE0
1F8780
1F8000
1F8000
1F8000
1F8000
1F8000
1F8000
1F8000
1F8000
3FC000
FFF800
FFF800
ENDCHAR
STARTCHAR 1E56
ENCODING 7766
SWIDTH 562 0
DWIDTH 27 0
BBX 25 40 0 0
BITMAP
00040000
001F0000
001F0000
003F0000
003F0000
003F0000
001E0000
00080000
00000000
00000000
03FFC000
FFFFF800
7FC1FC00
8FC07E00
0FC03F00
0FC03F00
0FC01F80
0FC01F80
0FC01F80
0FC01F80
0FC01F80
0FC01F00
0FC03F00
0FC03E00
0FC07E00
0FD0FC00
0FDFF000
0FCFC000
0FC00000
0FC00000
0FC00000
0FC00000
0FC00000
0FC00000
0FC00000
0FC00000
0FC00000
1FE00000
7FFC0000
7FFC0000
ENDCHAR
STARTCHAR 1E57
ENCODING 7767
SWIDTH 562 0
DWIDTH 27 0
BBX 24 44 1 -11
BITMAP
001C00
003E00
003E00
007E00
007E00
007C00
003800
000000
000000
000000
000000
0303E0
7F8FF8
FF9FFC
3FFFFC
1FF0FE
1FC07E
1F803F
1F803F
1F801F
1F801F
1F801F
1F801F
1F801F
1F801E
1F801E
1F803E
1FC03C
1FF07C
1FFFF8
1FFFF0
1F9FE0
1F8780
1F8000
1F8000
1F8000
1F8000
1F8000
1F8000
1F8000
1F8000
3FC000
FFF800
FFF800
ENDCHAR
STARTCHAR 1E58
ENCODING 7768
SWIDTH 604 0
DWIDTH 29 0
BBX 29 40 0 0
BITMAP
00040000
001F0000
001F0000
003F0000
003F0000
003F0000
001E0000
00080000
00000000
00000000
07FF8000
FFFFF000
7FC1FC00
8FC07E00
0FC07E00
0FC03F00
0FC03F00
0FC03F00
0FC03F00
0FC03F00
0FC07E00
0FC07E00
0FC0FC00
0FFFF800
0FFFF000
0FFFC000
0FC7C000
0FC3E000
0FC1F000
0FC1F000
0FC0F800
0FC0FC00
0FC07E00
0FC07E00
0FC03F00
0FC03F80
0FC01FC0
1FE01FF8
7FF80FF8
7FF80F80
ENDCHAR
STARTCHAR 1E59
ENCODING 7769
SWIDTH 437 0
DWIDTH 21 0
BBX 20 33 1 0
BITMAP
003800
007C00
00FC00
00FC00
00FC00
00F800
007000
000000
000000
000000
000000
0307C0
7F8FF0
FFBFF0
3FFFE0
1FF1E0
1FE0E0
1FC0E0
1F80C0
1F80C0
1F8000
1F8000
1F8000
1F8000
1F8000
1F8000
1F8000
1F8000
1F8000
1F8000
1FC000
FFF800
FFF800
ENDCHAR
STARTCHAR 1E5A
ENCODING 7770
SWIDTH 604 0
DWIDTH 29 0
BBX 29 41 0 -11
BITMAP
07FF8000
FFFFF000
7FC1FC00
8FC07E00
0FC07E00
0FC03F00
0FC03F00
0FC03F00
0FC03F00
0FC03F00
0FC07E00
0FC07E00
0FC0FC00
0FFFF800
0FFFF000
0FFFC000
0FC7C000
0FC3E000
0FC1F000
0FC1F000
0FC0F800
0FC0FC00
0FC07E00
0FC07E00
0FC03F00
0FC03F80
0FC01FC0
1FE01FF8
7FF80FF8
7FF80F80
00000000
00000000
00000000
00000000
000E0000
001F0000
003F0000
003F0000
003F0000
003E0000
001C0000
ENDCHAR
STARTCHAR 1E5B
ENCODING 7771
SWIDTH 437 0
DWIDTH 21 0
BBX 20 33 1 -11
BITMAP
0307C0
7F8FF0
FFBFF0
3FFFE0
1FF1E0
1FE0E0
1FC0E0
1F80C0
1F80C0
1F8000
1F8000
1F8000
1F8000
1F8000
1F8000
1F8000
1F8000
1F8000
1F8000
1FC000
FFF800
FFF800
000000
000000
000000
000000
070000
0F8000
1F8000
1F8000
1F8000
1F0000
0E0000
ENDCHAR
STARTCHAR 1E5C
ENCODING 7772
SWIDTH 604 0
DWIDTH 29 0
BBX 29 49 0 -11
BITMAP
07FFFE00
0FFFFE00
0FFFFE00
1FFFFC00
0FFFFC00
00000000
00000000
00000000
07FF8000
FFFFF000
7FC1FC00
8FC07E00
0FC07E00
0FC03F00
0FC03F00
0FC03F00
0FC03F00
0FC03F00
0FC07E00
0FC07E00
0FC0FC00
0FFFF800
0FFFF000
0FFFC000
0FC7C000
0FC3E000
0FC1F000
0FC1F000
0FC0F800
0FC0FC00
0FC07E00
0FC07E00
0FC03F00
0FC03F80
0FC01FC0
1FE01FF8
7FF80FF8
7FF80F80
00000000
00000000
00000000
00000000
000E0000
001F0000
003F0000
003F0000
003F0000
003E0000
001C0000
ENDCHAR
STARTCHAR 1E5D
ENCODING 7773
SWIDTH 437 0
DWIDTH 21 0
BBX 21 42 1 -11
BITMAP
3FFFF8
3FFFF8
7FFFF0
7FFFF0
000000
000000
000000
000000
000000
0307C0
7F8FF0
FFBFF0
3FFFE0
1FF1E0
1FE0E0
1FC0E0
1F80C0
1F80C0
1F8000
1F8000
1F8000
1F8000
1F8000
1F8000
1F8000
1F8000
1F8000
1F8000
1FC000
FFF800
FFF800
000000
000000
000000
000000
070000
0F8000
1F8000
1F8000
1F8000
1F0000
0E0000
ENDCHAR
STARTCHAR 1E5E
ENCODING 7774
SWIDTH 604 0
DWIDTH 29 0
BBX 29 38 0 -8
BITMAP
07FF8000
FFFFF000
7FC1FC00
8FC07E00
0FC07E00
0FC03F00
0FC03F00
0FC03F00
0FC03F00
0FC03F00
0FC07E00
0FC07E00
0FC0FC00
0FFFF800
0FFFF000
0FFFC000
0FC7C000
0FC3E000
0FC1F000
0FC1F000
0FC0F800
0FC0FC00
0FC07E00
0FC07E00
0FC03F00
0FC03F80
0FC01FC0
1FE01FF8
7FF80FF8
7FF80F80
00000000
00000000
00000000
00000000
0FFFFE00
0FFFFE00
1FFFFC00
1FFFFC00
ENDCHAR
STARTCHAR 1E5F
ENCODING 7775
SWIDTH 437 0
DWIDTH 21 0
BBX 24 30 -3 -8
BITMAP
00307C
07F8FF
0FFBFF
03FFFE
01FF1E
01FE0E
01FC0E
01F80C
01F80C
01F800
01F800
01F800
01F800
01F800
01F800
01F800
01F800
01F800
01F800
01FC00
0FFF80
0FFF80
000000
000000
000000
000000
7FFFF0
7FFFF0
FFFFE0
FFFFE0
ENDCHAR
STARTCHAR 1E60
ENCODING 7776
SWIDTH 520 0
DWIDTH 25 0
BBX 20 40 3 0
BITMAP
004000
00F000
01F800
01F800
01F000
01F000
01E000
008000
000000
000000
01FF00
0FFFC0
1E0FE0
3C07C0
7803C0
F80180
F80000
FC0000
FE0000
FF0000
7FC000
7FF000
3FFC00
1FFF00
07FF80
01FFC0
007FE0
001FE0
0007F0
0003F0
0001F0
C001F0
E001F0
E001E0
F003E0
F803C0
FE0F80
FFFF00
7FFE00
0FF000
ENDCHAR
STARTCHAR 1E61
ENCODING 7777
SWIDTH 416 0
DWIDTH 20 0
BBX 16 33 2 0
BITMAP
01C0
03E0
07E0
07E0
07E0
07C0
0380
0000
0000
0000
0000
07F8
1FFE
3C3E
781E
F80E
F80C
FC00
FF00
7FC0
7FF0
3FF8
0FFE
03FE
00FF
807F
C03F
E01F
E01F
F01E
F83C
FFF8
3FE0
ENDCHAR
STARTCHAR 1E62
ENCODING 7778
SWIDTH 520 0
DWIDTH 25 0
BBX 20 41 3 -11
BITMAP
01FF00
0FFFC0
1E0FE0
3C07C0
7803C0
F80180
F80000
FC0000
FE0000
FF0000
7FC000
7FF000
3FFC00
1FFF00
07FF80
01FFC0
007FE0
001FE0
0007F0
0003F0
0001F0
C001F0
E001F0
E001E0
F003E0
F803C0
FE0F80
FFFF00
7FFE00
0FF000
000000
000000
000000
000000
00F000
01F000
01F800
01F800
01F000
01F000
00E000
ENDCHAR
STARTCHAR 1E63
ENCODING 7779
SWIDTH 416 0
DWIDTH 20 0
BBX 16 33 2 -11
BITMAP
07F8
1FFE
3C3E
781E
F80E
F80C
FC00
FF00
7FC0
7FF0
3FF8
0FFE
03FE
00FF
807F
C03F
E01F
E01F
F01E
F83C
FFF8
3FE0
0000
0000
0000
0000
01C0
03E0
07E0
07E0
07E0
07C0
0380
ENDCHAR
STARTCHAR 1E64
ENCODING 7780
SWIDTH 520 0
DWIDTH 25 0
BBX 20 48 3 0
BITMAP
004000
01F000
01F000
03F000
03F000
03F000
01E800
000E00
001F80
003FC0
007FC0
00FF00
01FC00
03F000
07C000
070000
040000
000000
01FF00
0FFFC0
1E0FE0
3C07C0
7803C0
F80180
F80000
FC0000
FE0000
FF0000
7FC000
7FF000
3FFC00
1FFF00
07FF80
01FFC0
007FE0
001FE0
0007F0
0003F0
0001F0
C001F0
E001F0
E001E0
F003E0
F803C0
FE0F80
FFFF00
7FFE00
0FF000
ENDCHAR
STARTCHAR 1E65
ENCODING 7781
SWIDTH 416 0
DWIDTH 20 0
BBX 16 42 2 0
BITMAP
0780
0F80
0FC0
0FC0
0F80
0F80
0F00
0078
007E
00FF
00FC
01F8
01F0
03E0
03C0
0780
0700
0600
0000
0000
07F8
1FFE
3C3E
781E
F80E
F80C
FC00
FF00
7FC0
7FF0
3FF8
0FFE
03FE
00FF
807F
C03F
E01F
E01F
F01E
F83C
FFF8
3FE0
ENDCHAR
STARTCHAR 1E66
ENCODING 7782
SWIDTH 520 0
DWIDTH 25 0
BBX 20 48 3 0
BITMAP
004000
00F000
01F800
01F800
01F000
01F000
21E100
300180
3C0780
1E0F00
0FBE00
07FE00
07FC00
03F800
01F000
00E000
000000
000000
01FF00
0FFFC0
1E0FE0
3C07C0
7803C0
F80180
F80000
FC0000
FE0000
FF0000
7FC000
7FF000
3FFC00
1FFF00
07FF80
01FFC0
007FE0
001FE0
0007F0
0003F0
0001F0
C001F0
E001F0
E001E0
F003E0
F803C0
FE0F80
FFFF00
7FFE00
0FF000
ENDCHAR
STARTCHAR 1E67
ENCODING 7783
SWIDTH 416 0
DWIDTH 20 0
BBX 16 42 2 0
BITMAP
03E0
03E0
07E0
07E0
07E0
03C0
0100
4002
E007
781E
7C3E
3E7C
1FF8
0FF0
0FF0
07E0
03C0
0000
0000
0000
07F8
1FFE
3C3E
781E
F80E
F80C
FC00
FF00
7FC0
7FF0
3FF8
0FFE
03FE
00FF
807F
C03F
E01F
E01F
F01E
F83C
FFF8
3FE0
ENDCHAR
STARTCHAR 1E68
ENCODING 7784
SWIDTH 520 0
DWIDTH 25 0
BBX 20 51 3 -11
BITMAP
004000
00F000
01F800
01F800
01F000
01F000
01E000
008000
000000
000000
01FF00
0FFFC0
1E0FE0
3C07C0
7803C0
F80180
F80000
FC0000
FE0000
FF0000
7FC000
7FF000
3FFC00
1FFF00
07FF80
01FFC0
007FE0
001FE0
0007F0
0003F0
0001F0
C001F0
E001F0
E001E0
F003E0
F803C0
FE0F80
FFFF00
7FFE00
0FF000
000000
000000
000000
000000
00F000
01F000
01F800
01F800
01F000
01F000
00E000
ENDCHAR
STARTCHAR 1E69
ENCODING 7785
SWIDTH 416 0
DWIDTH 20 0
BBX 16 44 2 -11
BITMAP
01C0
03E0
07E0
07E0
07E0
07C0
0380
0000
0000
0000
0000
07F8
1FFE
3C3E
781E
F80E
F80C
FC00
FF00
7FC0
7FF0
3FF8
0FFE
03FE
00FF
807F
C03F
E01F
E01F
F01E
F83C
FFF8
3FE0
0000
0000
0000
0000
01C0
03E0
07E0
07E0
07E0
07C0
0380
ENDCHAR
STARTCHAR 1E6A
ENCODING 7786
SWIDTH 583 0
DWIDTH 28 0
BBX 27 40 0 0
BITMAP
00040000
000F0000
001F0000
001F8000
001F0000
001F0000
001E0000
00080000
00000000
00000000
7FFFFFE0
7FFFFFE0
701F80E0
701F80E0
601F80E0
601F80E0
E01F8060
401F8060
001F8000
001F8000
001F8000
001F8000
001F8000
001F8000
001F8000
001F8000
001F8000
001F8000
001F8000
001F8000
001F8000
001F8000
001F8000
001F8000
001F8000
001F8000
001F8000
003FC000
01FFF800
01FFF800
ENDCHAR
STARTCHAR 1E6B
ENCODING 7787
SWIDTH 375 0
DWIDTH 18 0
BBX 18 39 -1 0
BITMAP
00F000
01F800
01F800
01F800
01F000
01F000
00C000
000000
000000
00C000
01C000
07C000
0FC000
0FC000
0FC000
0FC000
0FC000
3FFFC0
FFFF80
0FC100
0FC000
0FC000
0FC000
0FC000
0FC000
0FC000
0FC000
0FC000
0FC000
0FC000
0FC000
0FC000
0FC000
0FC080
0FE3C0
0FFF80
07FF00
03FC00
01F000
ENDCHAR
STARTCHAR 1E6C
ENCODING 7788
SWIDTH 583 0
DWIDTH 28 0
BBX 27 41 0 -11
BITMAP
7FFFFFE0
7FFFFFE0
701F80E0
701F80E0
601F80E0
601F80E0
E01F8060
401F8060
001F8000
001F8000
001F8000
001F8000
001F8000
001F8000
001F8000
001F8000
001F8000
001F8000
001F8000
001F8000
001F8000
001F8000
001F8000
001F8000
001F8000
001F8000
001F8000
003FC000
01FFF800
01FFF800
00000000
00000000
00000000
00000000
000F0000
001F0000
001F8000
001F8000
001F0000
001F0000
001E0000
ENDCHAR
STARTCHAR 1E6D
ENCODING 7789
SWIDTH 375 0
DWIDTH 18 0
BBX 18 41 -1 -11
BITMAP
00C000
01C000
07C000
0FC000
0FC000
0FC000
0FC000
0FC000
3FFFC0
FFFF80
0FC100
0FC000
0FC000
0FC000
0FC000
0FC000
0FC000
0FC000
0FC000
0FC000
0FC000
0FC000
0FC000
0FC000
0FC080
0FE3C0
0FFF80
07FF00
03FC00
01F000
000000
000000
000000
000000
007000
00F800
01F800
01F800
01F000
01F000
00E000
ENDCHAR
STARTCHAR 1E6E
ENCODING 7790
SWIDTH 583 0
DWIDTH 28 0
BBX 27 38 0 -8
BITMAP
7FFFFFE0
7FFFFFE0
701F80E0
701F80E0
601F80E0
601F80E0
E01F8060
401F8060
001F8000
001F8000
001F8000
001F8000
001F8000
001F8000
001F8000
001F8000
001F8000
001F8000
001F8000
001F8000
001F8000
001F8000
001F8000
001F8000
001F8000
001F8000
001F8000
003FC000
01FFF800
01FFF800
00000000
00000000
00000000
00000000
07FFFE00
0FFFFE00
0FFFFE00
0FFFFC00
ENDCHAR
STARTCHAR 1E6F
ENCODING 7791
SWIDTH 375 0
DWIDTH 18 0
BBX 20 38 -1 -8
BITMAP
00C000
01C000
07C000
0FC000
0FC000
0FC000
0FC000
0FC000
3FFFC0
FFFF80
0FC100
0FC000
0FC000
0FC000
0FC000
0FC000
0FC000
0FC000
0FC000
0FC000
0FC000
0FC000
0FC000
0FC000
0FC080
0FE3C0
0FFF80
07FF00
03FC00
01F000
000000
000000
000000
000000
7FFFE0
FFFFF0
FFFFE0
FFFFE0
ENDCHAR
STARTCHAR 1E78
ENCODING 7800
SWIDTH 666 0
DWIDTH 32 0
BBX 29 50 1 0
BITMAP
00001000
00003800
00007E00
0000FE00
0001FE00
0003F800
0007E000
000F8000
001E0000
00180000
00100200
003F0300
007FFF00
00FFFE00
01FFFE00
01FFFC00
0381F800
01004000
00000000
00000000
FFF01FF8
FFF01FF8
3FC007E0
1F8003C0
1F8003C0
1F8003C0
1F8003C0
1F8003C0
1F8003C0
1F8003C0
1F8003C0
1F8003C0
1F8003C0
1F8003C0
1F8003C0
1F8003C0
1F8003C0
1F8003C0
1F8003C0
1F8003C0
1F8003C0
1F800380
1FC00780
0FC00780
0FE00700
07E00F00
03F83E00
01FFFC00
00FFF000
001FC000
ENDCHAR
STARTCHAR 1E79
ENCODING 7801
SWIDTH 562 0
DWIDTH 27 0
BBX 26 44 1 0
BITMAP
0003C000
0007F000
0007F000
000FE000
000FC000
001F8000
001F0000
003E0000
003C0000
00780000
00300000
00F00800
03F81C00
07FE3800
07FFF000
0FFFF000
0E1FE000
1C078000
00000000
00000000
00000000
00000000
03801C00
FF87FC00
FF87FC00
1F80FC00
1F80FC00
1F80FC00
1F80FC00
1F80FC00
1F80FC00
1F80FC00
1F80FC00
1F80FC00
1F80FC00
1F80FC00
1F80FC00
1F80FC00
1F81FC00
1FC7FC80
1FFFFF80
0FFEFFC0
07F87E00
03E07000
ENDCHAR
STARTCHAR 1E7A
ENCODING 7802
SWIDTH 666 0
DWIDTH 32 0
BBX 29 47 1 0
BITMAP
00701C00
00F83E00
00F83E00
01F87E00
01F87E00
01F07C00
00E03800
00000000
00000000
01FFFF80
03FFFF80
03FFFF80
03FFFF80
07FFFF00
00000000
00000000
00000000
FFF01FF8
FFF01FF8
3FC007E0
1F8003C0
1F8003C0
1F8003C0
1F8003C0
1F8003C0
1F8003C0
1F8003C0
1F8003C0
1F8003C0
1F8003C0
1F8003C0
1F8003C0
1F8003C0
1F8003C0
1F8003C0
1F8003C0
1F8003C0
1F8003C0
1F800380
1FC00780
0FC00780
0FE00700
07E00F00
03F83E00
01FFFC00
00FFF000
001FC000
ENDCHAR
STARTCHAR 1E7B
ENCODING 7803
SWIDTH 562 0
DWIDTH 27 0
BBX 26 41 1 0
BITMAP
03C0F000
07C1F000
07E1F800
07C1F000
07C1F000
0781E000
02008000
00000000
00000000
00000000
0FFFFC00
1FFFFE00
1FFFFC00
1FFFFC00
00000000
00000000
00000000
00000000
00000000
03801C00
FF87FC00
FF87FC00
1F80FC00
1F80FC00
1F80FC00
1F80FC00
1F80FC00
1F80FC00
1F80FC00
1F80FC00
1F80FC00
1F80FC00
1F80FC00
1F80FC00
1F80FC00
1F81FC00
1FC7FC80
1FFFFF80
0FFEFFC0
07F87E00
03E07000
ENDCHAR
STARTCHAR 1E7C
ENCODING 7804
SWIDTH 666 0
DWIDTH 32 0
BBX 31 40 0 0
BITMAP
00080200
003F8380
007FFF80
007FFF00
00FFFE00
01FFFE00
0181FC00
01002000
00000000
00000000
FFF007FE
FFF007FE
1F8000F0
0FC000E0
0FC000E0
0FC001E0
07E001C0
07E003C0
03F003C0
03F00380
03F00780
01F80780
01F80700
00F80F00
00FC0E00
00FC0E00
007E1E00
007E1C00
003E1C00
003F3C00
003F3800
001FF800
001FF000
000FF000
000FF000
000FE000
0007E000
0007E000
0003C000
00030000
ENDCHAR
STARTCHAR 1E7D
ENCODING 7805
SWIDTH 500 0
DWIDTH 24 0
BBX 24 33 0 0
BITMAP
00F00C
01FC1C
03FE38
07FFF8
07FFF0
0E1FE0
0C03C0
000000
000000
000000
000000
FFE0FF
FFE0FF
3F803C
1F803C
1F8038
0FC078
0FC070
07C070
07E0F0
07E0E0
03F1E0
03F1C0
01F9C0
01FB80
00FF80
00FF80
007F00
007F00
007E00
003E00
003C00
001800
ENDCHAR
STARTCHAR 1E7E
ENCODING 7806
SWIDTH 666 0
DWIDTH 32 0
BBX 31 41 0 -11
BITMAP
FFF007FE
FFF007FE
1F8000F0
0FC000E0
0FC000E0
0FC001E0
07E001C0
07E003C0
03F003C0
03F00380
03F00780
01F80780
01F80700
00F80F00
00FC0E00
00FC0E00
007E1E00
007E1C00
003E1C00
003F3C00
003F3800
001FF800
001FF000
000FF000
000FF000
000FE000
0007E000
0007E000
0003C000
00030000
00000000
00000000
00000000
00000000
0001C000
0003E000
0007E000
0007E000
0007E000
0007C000
00038000
ENDCHAR
STARTCHAR 1E7F
ENCODING 7807
SWIDTH 500 0
DWIDTH 24 0
BBX 24 33 0 -11
BITMAP
FFE0FF
FFE0FF
3F803C
1F803C
1F8038
0FC078
0FC070
07C070
07E0F0
07E0E0
03F1E0
03F1C0
01F9C0
01FB80
00FF80
00FF80
007F00
007F00
007E00
003E00
003C00
001800
000000
000000
000000
000000
001E00
003E00
003E00
003F00
003E00
003E00
003C00
ENDCHAR
STARTCHAR 1E80
ENCODING 7808
SWIDTH 854 0
DWIDTH 41 0
BBX 41 42 0 0
BITMAP
000100000000
000180000000
0007C0000000
0007E0000000
000FF0000000
0003F8000000
0000FC000000
00003E000000
00000F000000
000003800000
000001000000
000000000000
FFF00C03FF80
FFF01E03FF80
1F801E007C00
0F801E003800
0F803F007800
0F803F007800
0FC03F807000
07C07F807000
07C07F807000
07C07FC0F000
07E0F7C0E000
03E0E7E0E000
03E0E3E0E000
03E1E3E1E000
03F1C3F1E000
03F1C1F1C000
01F3C1F1C000
01F380F9C000
01FB80FBC000
01FF80FFC000
00FF007F8000
00FF007F8000
00FE007F8000
00FE003F8000
007E003F0000
007C001F0000
007C001F0000
007C001F0000
0078000E0000
0030000C0000
ENDCHAR
STARTCHAR 1E81
ENCODING 7809
SWIDTH 708 0
DWIDTH 34 0
BBX 34 35 0 0
BITMAP
0007800000
001F800000
001FC00000
000FC00000
0007E00000
0003E00000
0001F00000
0000F00000
0000780000
0000380000
00001C0000
0000000000
0000000000
FFE0603FC0
FFE0703FC0
3F00F00700
1F00F80F00
1F80F80E00
0F81FC0E00
0F81FC1E00
0FC3FC1C00
07C3FE1C00
07C3BE1C00
07E73F3C00
03E71F3800
03EF1FB800
03FE1FF800
01FE0FF000
01FC0FF000
01FC07F000
00FC07E000
00F803E000
00F803E000
007001C000
0060018000
ENDCHAR
STARTCHAR 1E82
ENCODING 7810
SWIDTH 854 0
DWIDTH 41 0
BBX 41 42 0 0
BITMAP
000001000000
000001C00000
000003F00000
000007F80000
00000FF80000
00001FE00000
00003F800000
00007E000000
0000F8000000
0000E0000000
000080000000
000000000000
FFF00C03FF80
FFF01E03FF80
1F801E007C00
0F801E003800
0F803F007800
0F803F007800
0FC03F807000
07C07F807000
07C07F807000
07C07FC0F000
07E0F7C0E000
03E0E7E0E000
03E0E3E0E000
03E1E3E1E000
03F1C3F1E000
03F1C1F1C000
01F3C1F1C000
01F380F9C000
01FB80FBC000
01FF80FFC000
00FF007F8000
00FF007F8000
00FE007F8000
00FE003F8000
007E003F0000
007C001F0000
007C001F0000
007C001F0000
0078000E0000
0030000C0000
ENDCHAR
STARTCHAR 1E83
ENCODING 7811
SWIDTH 708 0
DWIDTH 34 0
BBX 34 35 0 0
BITMAP
00001E0000
00001F8000
00003F8000
00003F0000
00007E0000
00007C0000
0000F80000
0000F00000
0001E00000
0001C00000
0003800000
0000000000
0000000000
FFE0603FC0
FFE0703FC0
3F00F00700
1F00F80F00
1F80F80E00
0F81FC0E00
0F81FC1E00
0FC3FC1C00
07C3FE1C00
07C3BE1C00
07E73F3C00
03E71F3800
03EF1FB800
03FE1FF800
01FE0FF000
01FC0FF000
01FC07F000
00FC07E000
00F803E000
00F803E000
007001C000
0060018000
ENDCHAR
STARTCHAR 1E84
ENCODING 7812
SWIDTH 854 0
DWIDTH 41 0
BBX 41 40 0 0
BITMAP
000100400000
0003C0F00000
0007E1F80000
0007E1F80000
0007C1F00000
0007C1F00000
000781E00000
000200800000
000000000000
000000000000
FFF00C03FF80
FFF01E03FF80
1F801E007C00
0F801E003800
0F803F007800
0F803F007800
0FC03F807000
07C07F807000
07C07F807000
07C07FC0F000
07E0F7C0E000
03E0E7E0E000
03E0E3E0E000
03E1E3E1E000
03F1C3F1E000
03F1C1F1C000
01F3C1F1C000
01F380F9C000
01FB80FBC000
01FF80FFC000
00FF007F8000
00FF007F8000
00FE007F8000
00FE003F8000
007E003F0000
007C001F0000
007C001F0000
007C001F0000
0078000E0000
0030000C0000
ENDCHAR
STARTCHAR 1E85
ENCODING 7813
SWIDTH 708 0
DWIDTH 34 0
BBX 34 33 0 0
BITMAP
000E038000
001F07C000
003F0FC000
003F0FC000
003F0FC000
003E0F8000
001C070000
0000000000
0000000000
0000000000
0000000000
FFE0603FC0
FFE0703FC0
3F00F00700
1F00F80F00
1F80F80E00
0F81FC0E00
0F81FC1E00
0FC3FC1C00
07C3FE1C00
07C3BE1C00
07E73F3C00
03E71F3800
03EF1FB800
03FE1FF800
01FE0FF000
01FC0FF000
01FC07F000
00FC07E000
00F803E000
00F803E000
007001C000
0060018000
ENDCHAR
STARTCHAR 1E86
ENCODING 7814
SWIDTH 854 0
DWIDTH 41 0
BBX 41 40 0 0
BITMAP
000008000000
00001E000000
00003F000000
00003F000000
00003E000000
00003E000000
00003C000000
000010000000
000000000000
000000000000
FFF00C03FF80
FFF01E03FF80
1F801E007C00
0F801E003800
0F803F007800
0F803F007800
0FC03F807000
07C07F807000
07C07F807000
07C07FC0F000
07E0F7C0E000
03E0E7E0E000
03E0E3E0E000
03E1E3E1E000
03F1C3F1E000
03F1C1F1C000
01F3C1F1C000
01F380F9C000
01FB80FBC000
01FF80FFC000
00FF007F8000
00FF007F8000
00FE007F8000
00FE003F8000
007E003F0000
007C001F0000
007C001F0000
007C001F0000
0078000E0000
0030000C0000
ENDCHAR
STARTCHAR 1E87
ENCODING 7815
SWIDTH 708 0
DWIDTH 34 0
BBX 34 33 0 0
BITMAP
0000700000
0000F80000
0001F80000
0001F80000
0001F80000
0001F00000
0000E00000
0000000000
0000000000
0000000000
0000000000
FFE0603FC0
FFE0703FC0
3F00F00700
1F00F80F00
1F80F80E00
0F81FC0E00
0F81FC1E00
0FC3FC1C00
07C3FE1C00
07C3BE1C00
07E73F3C00
03E71F3800
03EF1FB800
03FE1FF800
01FE0FF000
01FC0FF000
01FC07F000
00FC07E000
00F803E000
00F803E000
007001C000
0060018000
ENDCHAR
STARTCHAR 1E88
ENCODING 7816
SWIDTH 854 0
DWIDTH 41 0
BBX 41 41 0 -11
BITMAP
FFF00C03FF80
FFF01E03FF80
1F801E007C00
0F801E003800
0F803F007800
0F803F007800
0FC03F807000
07C07F807000
07C07F807000
07C07FC0F000
07E0F7C0E000
03E0E7E0E000
03E0E3E0E000
03E1E3E1E000
03F1C3F1E000
03F1C1F1C000
01F3C1F1C000
01F380F9C000
01FB80FBC000
01FF80FFC000
00FF007F8000
00FF007F8000
00FE007F8000
00FE003F8000
007E003F0000
007C001F0000
007C001F0000
007C001F0000
0078000E0000
0030000C0000
000000000000
000000000000
000000000000
000000000000
00001E000000
00003E000000
00003F000000
00003F000000
00003E000000
00003E000000
00001C000000
ENDCHAR
STARTCHAR 1E89
ENCODING 7817
SWIDTH 708 0
DWIDTH 34 0
BBX 34 33 0 -11
BITMAP
FFE0603FC0
FFE0703FC0
3F00F00700
1F00F80F00
1F80F80E00
0F81FC0E00
0F81FC1E00
0FC3FC1C00
07C3FE1C00
07C3BE1C00
07E73F3C00
03E71F3800
03EF1FB800
03FE1FF800
01FE0FF000
01FC0FF000
01FC07F000
00FC07E000
00F803E000
00F803E000
007001C000
0060018000
0000000000
0000000000
0000000000
0000000000
0000E00000
0001F00000
0001F00000
0003F00000
0003F00000
0001F00000
0001E00000
ENDCHAR
STARTCHAR 1E8A
ENCODING 7818
SWIDTH 625 0
DWIDTH 30 0
BBX 29 40 1 0
BITMAP
00020000
000F8000
000F8000
001F8000
001F8000
001F8000
000F0000
00040000
00000000
00000000
FFF07FF0
FFF07FF0
3FC01F80
1FC00F00
0FC01E00
07E03C00
07F03C00
03F07800
01F8F000
01FCF000
00FFE000
007FC000
007FC000
003F8000
001F8000
001FC000
003FE000
007FE000
007FF000
00F3F800
01F1F800
01E1FC00
03C0FE00
07C07E00
07803F00
0F003F80
1F001FC0
3F003FE0
FFC0FFF8
FFC0FFF8
ENDCHAR
STARTCHAR 1E8B
ENCODING 7819
SWIDTH 520 0
DWIDTH 25 0
BBX 25 33 0 0
BITMAP
001E0000
003E0000
003F0000
003F0000
003E0000
003E0000
003C0000
00000000
00000000
00000000
00000000
7FF1FF00
7FF1FF00
1FC07C00
0FE07000
07E0E000
07F1E000
03FBC000
01FF8000
00FF0000
00FE0000
007F0000
007F0000
007F8000
00FFC000
01CFE000
03C7E000
0783F000
0703F800
0E01FC00
1E01FE00
FF87FF80
FF87FF80
ENDCHAR
STARTCHAR 1E8C
ENCODING 7820
SWIDTH 625 0
DWIDTH 30 0
BBX 29 40 1 0
BITMAP
00401000
01F07C00
01F07C00
03F0FC00
03F0FC00
03F0FC00
01E07800
00802000
00000000
00000000
FFF07FF0
FFF07FF0
3FC01F80
1FC00F00
0FC01E00
07E03C00
07F03C00
03F07800
01F8F000
01FCF000
00FFE000
007FC000
007FC000
003F8000
001F8000
001FC000
003FE000
007FE000
007FF000
00F3F800
01F1F800
01E1FC00
03C0FE00
07C07E00
07803F00
0F003F80
1F001FC0
3F003FE0
FFC0FFF8
FFC0FFF8
ENDCHAR
STARTCHAR 1E8D
ENCODING 7821
SWIDTH 520 0
DWIDTH 25 0
BBX 25 33 0 0
BITMAP
03C0F000
07C1F000
07E1F800
07E1F800
07C1F000
07C1F000
0781E000
00000000
00000000
00000000
00000000
7FF1FF00
7FF1FF00
1FC07C00
0FE07000
07E0E000
07F1E000
03FBC000
01FF8000
00FF0000
00FE0000
007F0000
007F0000
007F8000
00FFC000
01CFE000
03C7E000
0783F000
0703F800
0E01FC00
1E01FE00
FF87FF80
FF87FF80
ENDCHAR
STARTCHAR 1E8E
ENCODING 7822
SWIDTH 604 0
DWIDTH 29 0
BBX 29 40 0 0
BITMAP
00020000
00078000
000FC000
000FC000
000FC000
000F8000
000F8000
00040000
00000000
00000000
7F001FF8
FF801FF8
1FC003C0
0FC00380
07E00780
03F00700
03F00F00
01F80E00
01F81E00
00FC1C00
007C3C00
007E3800
003F7800
003FF000
001FF000
001FE000
000FE000
000FC000
000FC000
000FC000
000FC000
000FC000
000FC000
000FC000
000FC000
000FC000
000FC000
001FE000
00FFFC00
00FFFC00
ENDCHAR
STARTCHAR 1E8F
ENCODING 7823
SWIDTH 500 0
DWIDTH 24 0
BBX 25 44 -1 -11
BITMAP
00070000
000F8000
001F8000
001F8000
001F8000
001F0000
000E0000
00000000
00000000
00000000
00000000
7FF07F80
7FF07F80
1FC01E00
0FC01C00
0FC01C00
07E03C00
07E03800
03F03800
03F07000
01F07000
01F8F000
01F8E000
00FCE000
00FDE000
007DC000
007FC000
007F8000
003F8000
003F8000
001F0000
001F0000
000E0000
000E0000
001E0000
001C0000
003C0000
00780000
20F80000
3FF00000
7FE00000
FFC00000
FF800000
7E000000
ENDCHAR
STARTCHAR 1E90
ENCODING 7824
SWIDTH 541 0
DWIDTH 26 0
BBX 23 41 1 0
BITMAP
001C00
003E00
007F00
007F80
00FF80
01FFC0
03E3E0
0780F0
070078
040020
000000
3FFFFE
3FFFFE
3C00FE
3801FC
3801F8
3003F8
3007F0
4007F0
000FE0
000FC0
001FC0
003F80
003F80
007F00
007E00
00FE00
01FC00
01FC00
03F800
03F800
07F000
0FE000
0FE004
1FC006
1FC006
3F800E
7F000E
7F001E
FFFFFE
7FFFFE
ENDCHAR
STARTCHAR 1E91
ENCODING 7825
SWIDTH 458 0
DWIDTH 22 0
BBX 20 35 1 0
BITMAP
007800
00FC00
00FC00
01FE00
03FF00
07FF00
07CF80
0F87C0
1F03C0
1C00E0
080040
000000
000000
3FFFF0
3FFFF0
380FE0
380FC0
301FC0
301F80
203F00
007F00
007E00
00FC00
01FC00
01F800
03F000
07F000
07E000
0FE030
1FC030
1F8070
3F8070
7F00F0
7FFFF0
FFFFE0
ENDCHAR
STARTCHAR 1E92
ENCODING 7826
SWIDTH 541 0
DWIDTH 26 0
BBX 23 41 1 -11
BITMAP
3FFFFE
3FFFFE
3C00FE
3801FC
3801F8
3003F8
3007F0
4007F0
000FE0
000FC0
001FC0
003F80
003F80
007F00
007E00
00FE00
01FC00
01FC00
03F800
03F800
07F000
0FE000
0FE004
1FC006
1FC006
3F800E
7F000E
7F001E
FFFFFE
7FFFFE
000000
000000
000000
000000
001C00
003E00
007E00
007E00
007E00
007C00
003800
ENDCHAR
STARTCHAR 1E93
ENCODING 7827
SWIDTH 458 0
DWIDTH 22 0
BBX 20 33 1 -11
BITMAP
3FFFF0
3FFFF0
380FE0
380FC0
301FC0
301F80
203F00
007F00
007E00
00FC00
01FC00
01F800
03F000
07F000
07E000
0FE030
1FC030
1F8070
3F8070
7F00F0
7FFFF0
FFFFE0
000000
000000
000000
000000
007000
00F800
00F800
01F800
01F800
01F000
00E000
ENDCHAR
STARTCHAR 1E94
ENCODING 7828
SWIDTH 541 0
DWIDTH 26 0
BBX 23 38 1 -8
BITMAP
3FFFFE
3FFFFE
3C00FE
3801FC
3801F8
3003F8
3007F0
4007F0
000FE0
000FC0
001FC0
003F80
003F80
007F00
007E00
00FE00
01FC00
01FC00
03F800
03F800
07F000
0FE000
0FE004
1FC006
1FC006
3F800E
7F000E
7F001E
FFFFFE
7FFFFE
000000
000000
000000
000000
1FFFFC
1FFFFC
3FFFF8
3FFFF8
ENDCHAR
STARTCHAR 1E95
ENCODING 7829
SWIDTH 458 0
DWIDTH 22 0
BBX 20 30 1 -8
BITMAP
3FFFF0
3FFFF0
380FE0
380FC0
301FC0
301F80
203F00
007F00
007E00
00FC00
01FC00
01F800
03F000
07F000
07E000
0FE030
1FC030
1F8070
3F8070
7F00F0
7FFFF0
FFFFE0
000000
000000
000000
000000
7FFFF0
7FFFF0
FFFFF0
FFFFE0
ENDCHAR
STARTCHAR 1E96
ENCODING 7830
SWIDTH 583 0
DWIDTH 28 0
BBX 26 44 1 -8
BITMAP
01800000
3F800000
FF800000
FF800000
1F800000
1F800000
1F800000
1F800000
1F800000
1F800000
1F800000
1F800000
1F800000
1F800000
1F81F000
1F8FFC00
1F9FFC00
1FFFFE00
1FF8FE00
1FE07E00
1FC07E00
1F807E00
1F807E00
1F807E00
1F807E00
1F807E00
1F807E00
1F807E00
1F807E00
1F807E00
1F807E00
1F807E00
1F807E00
3FC0FF00
FFF3FFC0
FFF3FFC0
00000000
00000000
00000000
00000000
0FFFFE00
0FFFFE00
1FFFFE00
1FFFFC00
ENDCHAR
STARTCHAR 1E97
ENCODING 7831
SWIDTH 375 0
DWIDTH 18 0
BBX 18 39 -1 0
BITMAP
1E0780
3F0FC0
3F0FC0
3F0FC0
3E0F80
3E0F80
180600
000000
000000
00C000
01C000
07C000
0FC000
0FC000
0FC000
0FC000
0FC000
3FFFC0
FFFF80
0FC100
0FC000
0FC000
0FC000
0FC000
0FC000
0FC000
0FC000
0FC000
0FC000
0FC000
0FC000
0FC000
0FC000
0FC080
0FE3C0
0FFF80
07FF00
03FC00
01F000
ENDCHAR
STARTCHAR 1E98
ENCODING 7832
SWIDTH 708 0
DWIDTH 34 0
BBX 34 34 0 0
BITMAP
0000F80000
0001FC0000
00039E0000
00079E0000
00079E0000
00079E0000
0007BC0000
0003F80000
0001F00000
0000000000
0000000000
0000000000
FFE0603FC0
FFE0703FC0
3F00F00700
1F00F80F00
1F80F80E00
0F81FC0E00
0F81FC1E00
0FC3FC1C00
07C3FE1C00
07C3BE1C00
07E73F3C00
03E71F3800
03EF1FB800
03FE1FF800
01FE0FF000
01FC0FF000
01FC07F000
00FC07E000
00F803E000
00F803E000
007001C000
0060018000
ENDCHAR
STARTCHAR 1E99
ENCODING 7833
SWIDTH 500 0
DWIDTH 24 0
BBX 25 45 -1 -11
BITMAP
000F8000
001FC000
003BE000
0079E000
0079E000
0079C000
007BC000
003F8000
001E0000
00000000
00000000
00000000
7FF07F80
7FF07F80
1FC01E00
0FC01C00
0FC01C00
07E03C00
07E03800
03F03800
03F07000
01F07000
01F8F000
01F8E000
00FCE000
00FDE000
007DC000
007FC000
007F8000
003F8000
003F8000
001F0000
001F0000
000E0000
000E0000
001E0000
001C0000
003C0000
00780000
20F80000
3FF00000
7FE00000
FFC00000
FF800000
7E000000
ENDCHAR
STARTCHAR 1EA0
ENCODING 7840
SWIDTH 625 0
DWIDTH 30 0
BBX 30 41 0 -11
BITMAP
00018000
00078000
000FC000
001FC000
001FE000
001FE000
003FE000
003FF000
003BF000
0079F000
0079F800
0071F800
00F0FC00
00F0FC00
00E0FC00
01E07E00
01E07E00
01C07E00
03FFFF00
03FFFF00
03801F00
07801F80
07001F80
07000FC0
0F000FC0
0E000FC0
0E0007E0
1E0007E0
FFC03FFC
FFC03FFC
00000000
00000000
00000000
00000000
00038000
0007C000
000FC000
000FC000
000FC000
000F8000
00070000
ENDCHAR
STARTCHAR 1EA1
ENCODING 7841
SWIDTH 500 0
DWIDTH 24 0
BBX 23 33 1 -11
BITMAP
00FF00
0FFF80
1F0FC0
3E07E0
7E07E0
FC07E0
6007E0
0007E0
001FE0
01FFE0
07FFE0
1FE7E0
3F87E0
3F07E0
7E07E0
7E07E0
7E07E0
7E1FE4
7F3FFC
3FF7FE
3FE7F0
0F83C0
000000
000000
000000
000000
007800
00F800
00FC00
00FC00
00F800
00F800
007000
ENDCHAR
STARTCHAR 1EA2
ENCODING 7842
SWIDTH 625 0
DWIDTH 30 0
BBX 30 42 0 0
BITMAP
00010000
000FE000
001DF000
003CF000
0038E000
0003C000
00078000
000F0000
00078000
00020000
00000000
00000000
00018000
00078000
000FC000
001FC000
001FE000
001FE000
003FE000
003FF000
003BF000
0079F000
0079F800
0071F800
00F0FC00
00F0FC00
00E0FC00
01E07E00
01E07E00
01C07E00
03FFFF00
03FFFF00
03801F00
07801F80
07001F80
07000FC0
0F000FC0
0E000FC0
0E0007E0
1E0007E0
FFC03FFC
FFC03FFC
ENDCHAR
STARTCHAR 1EA3
ENCODING 7843
SWIDTH 500 0
DWIDTH 24 0
BBX 23 34 1 0
BITMAP
007E00
00FF00
01CF00
03CF00
001E00
003C00
007000
00F000
003800
000000
000000
000000
00FF00
0FFF80
1F0FC0
3E07E0
7E07E0
FC07E0
6007E0
0007E0
001FE0
01FFE0
07FFE0
1FE7E0
3F87E0
3F07E0
7E07E0
7E07E0
7E07E0
7E1FE4
7F3FFC
3FF7FE
3FE7F0
0F8380
ENDCHAR
STARTCHAR 1EA4
ENCODING 7844
SWIDTH 625 0
DWIDTH 30 0
BBX 30 51 0 0
BITMAP
00002000
00007800
0000FC00
0001FE00
0003FC00
0007F800
000FE000
001F8000
003E0000
00180000
00070000
00078000
000FC000
001FE000
003FF000
007FF800
00F8F800
01F03C00
01C00E00
01000800
00000000
00018000
00078000
000FC000
001FC000
001FE000
001FE000
003FE000
003FF000
003BF000
0079F000
0079F800
0071F800
00F0FC00
00F0FC00
00E0FC00
01E07E00
01E07E00
01C07E00
03FFFF00
03FFFF00
03801F00
07801F80
07001F80
07000FC0
0F000FC0
0E000FC0
0E0007E0
1E0007E0
FFC03FFC
FFC03FFC
ENDCHAR
STARTCHAR 1EA5
ENCODING 7845
SWIDTH 500 0
DWIDTH 24 0
BBX 23 46 1 0
BITMAP
000F00
000FC0
001FE0
001F80
003F00
003E00
007C00
007800
00F000
00E000
004000
007800
00FC00
00FC00
01FE00
03FF00
03FF00
07CF80
0F87C0
0F01C0
1C00E0
080040
000000
000000
00FF00
0FFF80
1F0FC0
3E07E0
7E07E0
FC07E0
6007E0
0007E0
001FE0
01FFE0
07FFE0
1FE7E0
3F87E0
3F07E0
7E07E0
7E07E0
7E07E0
7E1FE4
7F3FFC
3FF7FE
3FE7F0
0F8380
ENDCHAR
STARTCHAR 1EA6
ENCODING 7846
SWIDTH 625 0
DWIDTH 30 0
BBX 30 51 0 0
BITMAP
00200000
00700000
01F80000
01FC0000
01FE0000
007F0000
001F8000
0007C000
0001E000
00006000
00070000
00078000
000FC000
001FE000
003FF000
007FF800
00F8F800
01F03C00
01C00E00
01000800
00000000
00018000
00078000
000FC000
001FC000
001FE000
001FE000
003FE000
003FF000
003BF000
0079F000
0079F800
0071F800
00F0FC00
00F0FC00
00E0FC00
01E07E00
01E07E00
01C07E00
03FFFF00
03FFFF00
03801F00
07801F80
07001F80
07000FC0
0F000FC0
0E000FC0
0E0007E0
1E0007E0
FFC03FFC
FFC03FFC
ENDCHAR
STARTCHAR 1EA7
ENCODING 7847
SWIDTH 500 0
DWIDTH 24 0
BBX 23 46 1 0
BITMAP
03C000
0FE000
0FE000
07F000
03F000
01F800
00F800
007C00
003C00
001E00
000C00
007800
00FC00
00FC00
01FE00
03FF00
03FF00
07CF80
0F87C0
0F01C0
1C00E0
080040
000000
000000
00FF00
0FFF80
1F0FC0
3E07E0
7E07E0
FC07E0
6007E0
0007E0
001FE0
01FFE0
07FFE0
1FE7E0
3F87E0
3F07E0
7E07E0
7E07E0
7E07E0
7E1FE4
7F3FFC
3FF7FE
3FE7F0
0F8380
ENDCHAR
STARTCHAR 1EA8
ENCODING 7848
SWIDTH 625 0
DWIDTH 30 0
BBX 30 51 0 0
BITMAP
0007C000
000FE000
001CF000
003CF000
0001E000
0003C000
00070000
000F0000
00078000
00000000
00070000
00078000
000FC000
001FE000
003FF000
007FF800
00F8F800
01F03C00
01C00E00
01000800
00000000
00018000
00078000
000FC000
001FC000
001FE000
001FE000
003FE000
003FF000
003BF000
0079F000
0079F800
0071F800
00F0FC00
00F0FC00
00E0FC00
01E07E00
01E07E00
01C07E00
03FFFF00
03FFFF00
03801F00
07801F80
07001F80
07000FC0
0F000FC0
0E000FC0
0E0007E0
1E0007E0
FFC03FFC
FFC03FFC
ENDCHAR
STARTCHAR 1EA9
ENCODING 7849
SWIDTH 500 0
DWIDTH 24 0
BBX 23 45 1 0
BITMAP
007E00
00FF00
01CF00
03CF00
001E00
003800
007000
00F000
003800
000000
007800
00FC00
00FC00
01FE00
03FF00
03FF00
07CF80
0F87C0
0F01C0
1C00E0
080040
000000
000000
00FF00
0FFF80
1F0FC0
3E07E0
7E07E0
FC07E0
6007E0
0007E0
001FE0
01FFE0
07FFE0
1FE7E0
3F87E0
3F07E0
7E07E0
7E07E0
7E07E0
7E1FE4
7F3FFC
3FF7FE
3FE7F0
0F8380
ENDCHAR
STARTCHAR 1EAA
ENCODING 7850
SWIDTH 625 0
DWIDTH 30 0
BBX 30 49 0 0
BITMAP
003C0200
007F8700
00FFFE00
01FFFE00
01FFFC00
0387F800
0301F000
00000000
00070000
00078000
000FC000
001FE000
003FF000
007FF800
00F8F800
01F03C00
01C00E00
01000800
00000000
00018000
00078000
000FC000
001FC000
001FE000
001FE000
003FE000
003FF000
003BF000
0079F000
0079F800
0071F800
00F0FC00
00F0FC00
00E0FC00
01E07E00
01E07E00
01C07E00
03FFFF00
03FFFF00
03801F00
07801F80
07001F80
07000FC0
0F000FC0
0E000FC0
0E0007E0
1E0007E0
FFC03FFC
FFC03FFC
ENDCHAR
STARTCHAR 1EAB
ENCODING 7851
SWIDTH 500 0
DWIDTH 24 0
BBX 23 44 1 0
BITMAP
03C030
07F030
0FFC60
1FFFE0
1FFFC0
387F80
300F00
000000
000000
007800
00FC00
00FC00
01FE00
03FF00
03FF00
07CF80
0F87C0
0F01C0
1C00E0
080040
000000
000000
00FF00
0FFF80
1F0FC0
3E07E0
7E07E0
FC07E0
6007E0
0007E0
001FE0
01FFE0
07FFE0
1FE7E0
3F87E0
3F07E0
7E07E0
7E07E0
7E07E0
7E1FE4
7F3FFC
3FF7FE
3FE7F0
0F8380
ENDCHAR
STARTCHAR 1EAC
ENCODING 7852
SWIDTH 625 0
DWIDTH 30 0
BBX 30 52 0 -11
BITMAP
00070000
00078000
000FC000
001FE000
003FF000
007FF800
00F8F800
01F03C00
01C00E00
01000800
00000000
00018000
00078000
000FC000
001FC000
001FE000
001FE000
003FE000
003FF000
003BF000
0079F000
0079F800
0071F800
00F0FC00
00F0FC00
00E0FC00
01E07E00
01E07E00
01C07E00
03FFFF00
03FFFF00
03801F00
07801F80
07001F80
07000FC0
0F000FC0
0E000FC0
0E0007E0
1E0007E0
FFC03FFC
FFC03FFC
00000000
00000000
00000000
00000000
00038000
0007C000
000FC000
000FC000
000FC000
000F8000
00070000
ENDCHAR
STARTCHAR 1EAD
ENCODING 7853
SWIDTH 500 0
DWIDTH 24 0
BBX 23 46 1 -11
BITMAP
007800
00FC00
00FC00
01FE00
03FF00
03FF00
07CF80
0F87C0
0F01C0
1C00E0
080040
000000
000000
00FF00
0FFF80
1F0FC0
3E07E0
7E07E0
FC07E0
6007E0
0007E0
001FE0
01FFE0
07FFE0
1FE7E0
3F87E0
3F07E0
7E07E0
7E07E0
7E07E0
7E1FE4
7F3FFC
3FF7FE
3FE7F0
0F83C0
000000
000000
000000
000000
007800
00F800
00FC00
00FC00
00F800
00F800
007000
ENDCHAR
ENDFONT
